<ttFont>
    <TTGlyph name="A" xMin="10" yMin="-5" xMax="660" yMax="715">
      <contour>
        <pt x="660" y="54" on="1"/>
        <pt x="655" y="0" on="1"/>
        <pt x="554" y="0" on="1"/>
        <pt x="411" y="-5" on="1"/>
        <pt x="407" y="44" on="1"/>
        <pt x="480" y="64" on="1"/>
        <pt x="453" y="172" on="1"/>
        <pt x="432" y="232" on="1"/>
        <pt x="212" y="232" on="1"/>
        <pt x="180" y="127" on="1"/>
        <pt x="170" y="64" on="1"/>
        <pt x="240" y="54" on="1"/>
        <pt x="235" y="0" on="1"/>
        <pt x="149" y="0" on="1"/>
        <pt x="14" y="-5" on="1"/>
        <pt x="10" y="44" on="1"/>
        <pt x="73" y="61" on="1"/>
        <pt x="116" y="160" on="1"/>
        <pt x="295" y="705" on="1"/>
        <pt x="353" y="715" on="1"/>
        <pt x="559" y="149" on="1"/>
        <pt x="598" y="64" on="1"/>
      </contour>
      <contour>
        <pt x="318" y="557" on="1"/>
        <pt x="230" y="282" on="1"/>
        <pt x="412" y="286" on="1"/>
      </contour>
    </TTGlyph>
    <TTGlyph name="AE" xMin="-10" yMin="-5" xMax="869" yMax="715">
      <contour>
        <pt x="657" y="648" on="1"/>
        <pt x="476" y="648" on="1"/>
        <pt x="483" y="570" on="0"/>
        <pt x="487" y="541" on="1"/>
        <pt x="511" y="386" on="1"/>
        <pt x="567" y="382" on="0"/>
        <pt x="587" y="382" on="1"/>
        <pt x="635" y="382" on="1"/>
        <pt x="695" y="391" on="1"/>
        <pt x="704" y="457" on="1"/>
        <pt x="750" y="452" on="1"/>
        <pt x="749" y="392" on="0"/>
        <pt x="749" y="372" on="1"/>
        <pt x="752" y="263" on="1"/>
        <pt x="704" y="257" on="1"/>
        <pt x="695" y="324" on="1"/>
        <pt x="635" y="330" on="0"/>
        <pt x="615" y="330" on="1"/>
        <pt x="587" y="330" on="1"/>
        <pt x="572" y="330" on="0"/>
        <pt x="520" y="326" on="1"/>
        <pt x="544" y="174" on="1"/>
        <pt x="569" y="57" on="1"/>
        <pt x="691" y="57" on="1"/>
        <pt x="728" y="57" on="0"/>
        <pt x="778" y="66" on="1"/>
        <pt x="795" y="90" on="0"/>
        <pt x="799" y="103" on="1"/>
        <pt x="811" y="150" on="0"/>
        <pt x="814" y="170" on="1"/>
        <pt x="869" y="165" on="1"/>
        <pt x="854" y="14" on="1"/>
        <pt x="835" y="-4" on="1"/>
        <pt x="741" y="0" on="0"/>
        <pt x="721" y="0" on="1"/>
        <pt x="503" y="0" on="1"/>
        <pt x="385" y="-5" on="1"/>
        <pt x="380" y="45" on="1"/>
        <pt x="462" y="61" on="1"/>
        <pt x="462" y="97" on="0"/>
        <pt x="457" y="130" on="1"/>
        <pt x="439" y="248" on="1"/>
        <pt x="225" y="248" on="1"/>
        <pt x="156" y="102" on="1"/>
        <pt x="154" y="97" on="0"/>
        <pt x="146" y="67" on="0"/>
        <pt x="144" y="61" on="1"/>
        <pt x="226" y="54" on="1"/>
        <pt x="219" y="-5" on="1"/>
        <pt x="168" y="0" on="0"/>
        <pt x="88" y="0" on="1"/>
        <pt x="-5" y="-5" on="1"/>
        <pt x="-10" y="45" on="1"/>
        <pt x="50" y="61" on="1"/>
        <pt x="102" y="133" on="0"/>
        <pt x="111" y="153" on="1"/>
        <pt x="345" y="644" on="1"/>
        <pt x="267" y="656" on="1"/>
        <pt x="272" y="710" on="1"/>
        <pt x="368" y="705" on="0"/>
        <pt x="388" y="705" on="1"/>
        <pt x="687" y="705" on="1"/>
        <pt x="801" y="715" on="1"/>
        <pt x="820" y="697" on="1"/>
        <pt x="827" y="561" on="1"/>
        <pt x="769" y="556" on="1"/>
        <pt x="766" y="580" on="0"/>
        <pt x="757" y="619" on="0"/>
        <pt x="738" y="643" on="1"/>
        <pt x="683" y="648" on="0"/>
      </contour>
      <contour>
        <pt x="250" y="299" on="1"/>
        <pt x="431" y="302" on="1"/>
        <pt x="392" y="556" on="1"/>
        <pt x="385" y="584" on="1"/>
      </contour>
    </TTGlyph>
    <TTGlyph name="AEacute" xMin="-10" yMin="-5" xMax="869" yMax="898">
      <contour>
        <pt x="657" y="648" on="1"/>
        <pt x="476" y="648" on="1"/>
        <pt x="483" y="570" on="0"/>
        <pt x="487" y="541" on="1"/>
        <pt x="511" y="386" on="1"/>
        <pt x="567" y="382" on="0"/>
        <pt x="587" y="382" on="1"/>
        <pt x="635" y="382" on="1"/>
        <pt x="695" y="391" on="1"/>
        <pt x="704" y="457" on="1"/>
        <pt x="750" y="452" on="1"/>
        <pt x="749" y="392" on="0"/>
        <pt x="749" y="372" on="1"/>
        <pt x="752" y="263" on="1"/>
        <pt x="704" y="257" on="1"/>
        <pt x="695" y="324" on="1"/>
        <pt x="635" y="330" on="0"/>
        <pt x="615" y="330" on="1"/>
        <pt x="587" y="330" on="1"/>
        <pt x="572" y="330" on="0"/>
        <pt x="520" y="326" on="1"/>
        <pt x="544" y="174" on="1"/>
        <pt x="569" y="57" on="1"/>
        <pt x="691" y="57" on="1"/>
        <pt x="728" y="57" on="0"/>
        <pt x="778" y="66" on="1"/>
        <pt x="795" y="90" on="0"/>
        <pt x="799" y="103" on="1"/>
        <pt x="811" y="150" on="0"/>
        <pt x="814" y="170" on="1"/>
        <pt x="869" y="165" on="1"/>
        <pt x="854" y="14" on="1"/>
        <pt x="835" y="-4" on="1"/>
        <pt x="741" y="0" on="0"/>
        <pt x="721" y="0" on="1"/>
        <pt x="503" y="0" on="1"/>
        <pt x="385" y="-5" on="1"/>
        <pt x="380" y="45" on="1"/>
        <pt x="462" y="61" on="1"/>
        <pt x="462" y="97" on="0"/>
        <pt x="457" y="130" on="1"/>
        <pt x="439" y="248" on="1"/>
        <pt x="225" y="248" on="1"/>
        <pt x="156" y="102" on="1"/>
        <pt x="154" y="97" on="0"/>
        <pt x="146" y="67" on="0"/>
        <pt x="144" y="61" on="1"/>
        <pt x="226" y="54" on="1"/>
        <pt x="219" y="-5" on="1"/>
        <pt x="168" y="0" on="0"/>
        <pt x="88" y="0" on="1"/>
        <pt x="-5" y="-5" on="1"/>
        <pt x="-10" y="45" on="1"/>
        <pt x="50" y="61" on="1"/>
        <pt x="102" y="133" on="0"/>
        <pt x="111" y="153" on="1"/>
        <pt x="345" y="644" on="1"/>
        <pt x="267" y="656" on="1"/>
        <pt x="272" y="710" on="1"/>
        <pt x="368" y="705" on="0"/>
        <pt x="388" y="705" on="1"/>
        <pt x="687" y="705" on="1"/>
        <pt x="801" y="715" on="1"/>
        <pt x="820" y="697" on="1"/>
        <pt x="827" y="561" on="1"/>
        <pt x="769" y="556" on="1"/>
        <pt x="766" y="580" on="0"/>
        <pt x="757" y="619" on="0"/>
        <pt x="738" y="643" on="1"/>
        <pt x="683" y="648" on="0"/>
      </contour>
      <contour>
        <pt x="250" y="299" on="1"/>
        <pt x="431" y="302" on="1"/>
        <pt x="392" y="556" on="1"/>
        <pt x="385" y="584" on="1"/>
      </contour>
      <contour>
        <pt x="623" y="898" on="1"/>
        <pt x="653" y="825" on="1"/>
        <pt x="521" y="793" on="0"/>
        <pt x="502" y="787" on="1"/>
        <pt x="414" y="750" on="1"/>
        <pt x="394" y="798" on="1"/>
      </contour>
    </TTGlyph>
    <TTGlyph name="Aacute" xMin="10" yMin="-5" xMax="660" yMax="898">
      <contour>
        <pt x="660" y="54" on="1"/>
        <pt x="655" y="0" on="1"/>
        <pt x="554" y="0" on="1"/>
        <pt x="411" y="-5" on="1"/>
        <pt x="407" y="44" on="1"/>
        <pt x="480" y="64" on="1"/>
        <pt x="453" y="172" on="1"/>
        <pt x="432" y="232" on="1"/>
        <pt x="212" y="232" on="1"/>
        <pt x="180" y="127" on="1"/>
        <pt x="170" y="64" on="1"/>
        <pt x="240" y="54" on="1"/>
        <pt x="235" y="0" on="1"/>
        <pt x="149" y="0" on="1"/>
        <pt x="14" y="-5" on="1"/>
        <pt x="10" y="44" on="1"/>
        <pt x="73" y="61" on="1"/>
        <pt x="116" y="160" on="1"/>
        <pt x="295" y="705" on="1"/>
        <pt x="353" y="715" on="1"/>
        <pt x="559" y="149" on="1"/>
        <pt x="598" y="64" on="1"/>
      </contour>
      <contour>
        <pt x="318" y="557" on="1"/>
        <pt x="230" y="282" on="1"/>
        <pt x="412" y="286" on="1"/>
      </contour>
      <contour>
        <pt x="451" y="898" on="1"/>
        <pt x="481" y="825" on="1"/>
        <pt x="349" y="793" on="0"/>
        <pt x="330" y="787" on="1"/>
        <pt x="242" y="750" on="1"/>
        <pt x="222" y="798" on="1"/>
      </contour>
    </TTGlyph>
    <TTGlyph name="Abreve" xMin="10" yMin="-5" xMax="660" yMax="898">
      <contour>
        <pt x="660" y="54" on="1"/>
        <pt x="655" y="0" on="1"/>
        <pt x="554" y="0" on="1"/>
        <pt x="411" y="-5" on="1"/>
        <pt x="407" y="44" on="1"/>
        <pt x="480" y="64" on="1"/>
        <pt x="453" y="172" on="1"/>
        <pt x="432" y="232" on="1"/>
        <pt x="212" y="232" on="1"/>
        <pt x="180" y="127" on="1"/>
        <pt x="170" y="64" on="1"/>
        <pt x="240" y="54" on="1"/>
        <pt x="235" y="0" on="1"/>
        <pt x="149" y="0" on="1"/>
        <pt x="14" y="-5" on="1"/>
        <pt x="10" y="44" on="1"/>
        <pt x="73" y="61" on="1"/>
        <pt x="116" y="160" on="1"/>
        <pt x="295" y="705" on="1"/>
        <pt x="353" y="715" on="1"/>
        <pt x="559" y="149" on="1"/>
        <pt x="598" y="64" on="1"/>
      </contour>
      <contour>
        <pt x="318" y="557" on="1"/>
        <pt x="230" y="282" on="1"/>
        <pt x="412" y="286" on="1"/>
      </contour>
      <contour>
        <pt x="398" y="898" on="1"/>
        <pt x="454" y="898" on="1"/>
        <pt x="454" y="830" on="0"/>
        <pt x="382" y="758" on="0"/>
        <pt x="248" y="758" on="0"/>
        <pt x="176" y="830" on="0"/>
        <pt x="176" y="898" on="1"/>
        <pt x="232" y="898" on="1"/>
        <pt x="232" y="860" on="0"/>
        <pt x="278" y="814" on="0"/>
        <pt x="352" y="814" on="0"/>
        <pt x="398" y="860" on="0"/>
      </contour>
    </TTGlyph>
    <TTGlyph name="Acircumflex" xMin="10" yMin="-5" xMax="660" yMax="893">
      <contour>
        <pt x="660" y="54" on="1"/>
        <pt x="655" y="0" on="1"/>
        <pt x="554" y="0" on="1"/>
        <pt x="411" y="-5" on="1"/>
        <pt x="407" y="44" on="1"/>
        <pt x="480" y="64" on="1"/>
        <pt x="453" y="172" on="1"/>
        <pt x="432" y="232" on="1"/>
        <pt x="212" y="232" on="1"/>
        <pt x="180" y="127" on="1"/>
        <pt x="170" y="64" on="1"/>
        <pt x="240" y="54" on="1"/>
        <pt x="235" y="0" on="1"/>
        <pt x="149" y="0" on="1"/>
        <pt x="14" y="-5" on="1"/>
        <pt x="10" y="44" on="1"/>
        <pt x="73" y="61" on="1"/>
        <pt x="116" y="160" on="1"/>
        <pt x="295" y="705" on="1"/>
        <pt x="353" y="715" on="1"/>
        <pt x="559" y="149" on="1"/>
        <pt x="598" y="64" on="1"/>
      </contour>
      <contour>
        <pt x="318" y="557" on="1"/>
        <pt x="230" y="282" on="1"/>
        <pt x="412" y="286" on="1"/>
      </contour>
      <contour>
        <pt x="332" y="893" on="1"/>
        <pt x="506" y="786" on="1"/>
        <pt x="483" y="747" on="1"/>
        <pt x="395" y="788" on="1"/>
        <pt x="332" y="813" on="1"/>
        <pt x="269" y="788" on="1"/>
        <pt x="181" y="747" on="1"/>
        <pt x="158" y="786" on="1"/>
      </contour>
    </TTGlyph>
    <TTGlyph name="Adieresis" xMin="10" yMin="-5" xMax="660" yMax="884">
      <contour>
        <pt x="660" y="54" on="1"/>
        <pt x="655" y="0" on="1"/>
        <pt x="554" y="0" on="1"/>
        <pt x="411" y="-5" on="1"/>
        <pt x="407" y="44" on="1"/>
        <pt x="480" y="64" on="1"/>
        <pt x="453" y="172" on="1"/>
        <pt x="432" y="232" on="1"/>
        <pt x="212" y="232" on="1"/>
        <pt x="180" y="127" on="1"/>
        <pt x="170" y="64" on="1"/>
        <pt x="240" y="54" on="1"/>
        <pt x="235" y="0" on="1"/>
        <pt x="149" y="0" on="1"/>
        <pt x="14" y="-5" on="1"/>
        <pt x="10" y="44" on="1"/>
        <pt x="73" y="61" on="1"/>
        <pt x="116" y="160" on="1"/>
        <pt x="295" y="705" on="1"/>
        <pt x="353" y="715" on="1"/>
        <pt x="559" y="149" on="1"/>
        <pt x="598" y="64" on="1"/>
      </contour>
      <contour>
        <pt x="318" y="557" on="1"/>
        <pt x="230" y="282" on="1"/>
        <pt x="412" y="286" on="1"/>
      </contour>
      <contour>
        <pt x="450" y="884" on="1"/>
        <pt x="504" y="884" on="0"/>
        <pt x="504" y="765" on="0"/>
        <pt x="396" y="765" on="0"/>
        <pt x="396" y="824" on="1"/>
        <pt x="396" y="852" on="0"/>
        <pt x="424" y="884" on="0"/>
      </contour>
      <contour>
        <pt x="214" y="884" on="1"/>
        <pt x="268" y="884" on="0"/>
        <pt x="268" y="765" on="0"/>
        <pt x="160" y="765" on="0"/>
        <pt x="160" y="824" on="1"/>
        <pt x="160" y="852" on="0"/>
        <pt x="188" y="884" on="0"/>
      </contour>
    </TTGlyph>
    <TTGlyph name="Agrave" xMin="10" yMin="-5" xMax="660" yMax="898">
      <contour>
        <pt x="660" y="54" on="1"/>
        <pt x="655" y="0" on="1"/>
        <pt x="554" y="0" on="1"/>
        <pt x="411" y="-5" on="1"/>
        <pt x="407" y="44" on="1"/>
        <pt x="480" y="64" on="1"/>
        <pt x="453" y="172" on="1"/>
        <pt x="432" y="232" on="1"/>
        <pt x="212" y="232" on="1"/>
        <pt x="180" y="127" on="1"/>
        <pt x="170" y="64" on="1"/>
        <pt x="240" y="54" on="1"/>
        <pt x="235" y="0" on="1"/>
        <pt x="149" y="0" on="1"/>
        <pt x="14" y="-5" on="1"/>
        <pt x="10" y="44" on="1"/>
        <pt x="73" y="61" on="1"/>
        <pt x="116" y="160" on="1"/>
        <pt x="295" y="705" on="1"/>
        <pt x="353" y="715" on="1"/>
        <pt x="559" y="149" on="1"/>
        <pt x="598" y="64" on="1"/>
      </contour>
      <contour>
        <pt x="318" y="557" on="1"/>
        <pt x="230" y="282" on="1"/>
        <pt x="412" y="286" on="1"/>
      </contour>
      <contour>
        <pt x="182" y="825" on="1"/>
        <pt x="212" y="898" on="1"/>
        <pt x="441" y="798" on="1"/>
        <pt x="421" y="750" on="1"/>
        <pt x="333" y="787" on="1"/>
      </contour>
    </TTGlyph>
    <TTGlyph name="Amacron" xMin="10" yMin="-5" xMax="660" yMax="824">
      <contour>
        <pt x="660" y="54" on="1"/>
        <pt x="655" y="0" on="1"/>
        <pt x="554" y="0" on="1"/>
        <pt x="411" y="-5" on="1"/>
        <pt x="407" y="44" on="1"/>
        <pt x="480" y="64" on="1"/>
        <pt x="453" y="172" on="1"/>
        <pt x="432" y="232" on="1"/>
        <pt x="212" y="232" on="1"/>
        <pt x="180" y="127" on="1"/>
        <pt x="170" y="64" on="1"/>
        <pt x="240" y="54" on="1"/>
        <pt x="235" y="0" on="1"/>
        <pt x="149" y="0" on="1"/>
        <pt x="14" y="-5" on="1"/>
        <pt x="10" y="44" on="1"/>
        <pt x="73" y="61" on="1"/>
        <pt x="116" y="160" on="1"/>
        <pt x="295" y="705" on="1"/>
        <pt x="353" y="715" on="1"/>
        <pt x="559" y="149" on="1"/>
        <pt x="598" y="64" on="1"/>
      </contour>
      <contour>
        <pt x="318" y="557" on="1"/>
        <pt x="230" y="282" on="1"/>
        <pt x="412" y="286" on="1"/>
      </contour>
      <contour>
        <pt x="171" y="771" on="1"/>
        <pt x="171" y="824" on="1"/>
        <pt x="493" y="824" on="1"/>
        <pt x="488" y="771" on="1"/>
      </contour>
    </TTGlyph>
    <TTGlyph name="Aogonek" xMin="10" yMin="-197" xMax="660" yMax="715">
      <contour>
        <pt x="465" y="-6" on="0"/>
        <pt x="410" y="-68" on="0"/>
        <pt x="410" y="-96" on="1"/>
        <pt x="410" y="-155" on="0"/>
        <pt x="466" y="-155" on="1"/>
        <pt x="489" y="-155" on="0"/>
        <pt x="521" y="-142" on="1"/>
        <pt x="535" y="-175" on="1"/>
        <pt x="488" y="-197" on="0"/>
        <pt x="402" y="-197" on="0"/>
        <pt x="346" y="-152" on="0"/>
        <pt x="346" y="-77" on="0"/>
        <pt x="381" y="-28" on="0"/>
        <pt x="429" y="13" on="1"/>
        <pt x="466" y="46" on="0"/>
        <pt x="466" y="96" on="1"/>
        <pt x="466" y="123" on="0"/>
        <pt x="453" y="172" on="1"/>
        <pt x="432" y="232" on="1"/>
        <pt x="212" y="232" on="1"/>
        <pt x="180" y="127" on="1"/>
        <pt x="170" y="64" on="1"/>
        <pt x="240" y="54" on="1"/>
        <pt x="235" y="0" on="1"/>
        <pt x="149" y="0" on="1"/>
        <pt x="14" y="-5" on="1"/>
        <pt x="10" y="44" on="1"/>
        <pt x="73" y="61" on="1"/>
        <pt x="116" y="160" on="1"/>
        <pt x="295" y="705" on="1"/>
        <pt x="353" y="715" on="1"/>
        <pt x="559" y="149" on="1"/>
        <pt x="598" y="64" on="1"/>
        <pt x="660" y="54" on="1"/>
        <pt x="655" y="0" on="1"/>
        <pt x="510" y="0" on="1"/>
      </contour>
      <contour>
        <pt x="318" y="557" on="1"/>
        <pt x="230" y="282" on="1"/>
        <pt x="412" y="286" on="1"/>
      </contour>
    </TTGlyph>
    <TTGlyph name="Aring" xMin="10" yMin="-5" xMax="660" yMax="916">
      <contour>
        <pt x="660" y="54" on="1"/>
        <pt x="655" y="0" on="1"/>
        <pt x="554" y="0" on="1"/>
        <pt x="411" y="-5" on="1"/>
        <pt x="407" y="44" on="1"/>
        <pt x="480" y="64" on="1"/>
        <pt x="453" y="172" on="1"/>
        <pt x="432" y="232" on="1"/>
        <pt x="212" y="232" on="1"/>
        <pt x="180" y="127" on="1"/>
        <pt x="170" y="64" on="1"/>
        <pt x="240" y="54" on="1"/>
        <pt x="235" y="0" on="1"/>
        <pt x="149" y="0" on="1"/>
        <pt x="14" y="-5" on="1"/>
        <pt x="10" y="44" on="1"/>
        <pt x="73" y="61" on="1"/>
        <pt x="116" y="160" on="1"/>
        <pt x="295" y="705" on="1"/>
        <pt x="353" y="715" on="1"/>
        <pt x="559" y="149" on="1"/>
        <pt x="598" y="64" on="1"/>
      </contour>
      <contour>
        <pt x="288" y="916" on="0"/>
        <pt x="376" y="916" on="0"/>
        <pt x="421" y="870" on="0"/>
        <pt x="421" y="791" on="0"/>
        <pt x="376" y="745" on="0"/>
        <pt x="288" y="745" on="0"/>
        <pt x="242" y="791" on="0"/>
        <pt x="242" y="870" on="0"/>
      </contour>
      <contour>
        <pt x="318" y="557" on="1"/>
        <pt x="230" y="282" on="1"/>
        <pt x="412" y="286" on="1"/>
      </contour>
      <contour>
        <pt x="374" y="878" on="0"/>
        <pt x="291" y="878" on="0"/>
        <pt x="291" y="783" on="0"/>
        <pt x="374" y="783" on="0"/>
      </contour>
    </TTGlyph>
    <TTGlyph name="Aringacute" xMin="10" yMin="-5" xMax="660" yMax="997">
      <contour>
        <pt x="660" y="54" on="1"/>
        <pt x="655" y="0" on="1"/>
        <pt x="554" y="0" on="1"/>
        <pt x="411" y="-5" on="1"/>
        <pt x="407" y="44" on="1"/>
        <pt x="480" y="64" on="1"/>
        <pt x="453" y="172" on="1"/>
        <pt x="432" y="232" on="1"/>
        <pt x="212" y="232" on="1"/>
        <pt x="180" y="127" on="1"/>
        <pt x="170" y="64" on="1"/>
        <pt x="240" y="54" on="1"/>
        <pt x="235" y="0" on="1"/>
        <pt x="149" y="0" on="1"/>
        <pt x="14" y="-5" on="1"/>
        <pt x="10" y="44" on="1"/>
        <pt x="73" y="61" on="1"/>
        <pt x="116" y="160" on="1"/>
        <pt x="295" y="705" on="1"/>
        <pt x="353" y="715" on="1"/>
        <pt x="559" y="149" on="1"/>
        <pt x="598" y="64" on="1"/>
      </contour>
      <contour>
        <pt x="318" y="557" on="1"/>
        <pt x="230" y="282" on="1"/>
        <pt x="412" y="286" on="1"/>
      </contour>
      <contour>
        <pt x="290" y="874" on="0"/>
        <pt x="364" y="874" on="0"/>
        <pt x="403" y="835" on="0"/>
        <pt x="403" y="768" on="0"/>
        <pt x="364" y="729" on="0"/>
        <pt x="290" y="729" on="0"/>
        <pt x="250" y="768" on="0"/>
        <pt x="250" y="835" on="0"/>
      </contour>
      <contour>
        <pt x="363" y="842" on="0"/>
        <pt x="292" y="842" on="0"/>
        <pt x="292" y="761" on="0"/>
        <pt x="363" y="761" on="0"/>
      </contour>
      <contour>
        <pt x="413" y="997" on="1"/>
        <pt x="440" y="932" on="1"/>
        <pt x="321" y="903" on="0"/>
        <pt x="304" y="897" on="1"/>
        <pt x="225" y="864" on="1"/>
        <pt x="207" y="907" on="1"/>
      </contour>
    </TTGlyph>
    <TTGlyph name="Atilde" xMin="10" yMin="-5" xMax="660" yMax="882">
      <contour>
        <pt x="660" y="54" on="1"/>
        <pt x="655" y="0" on="1"/>
        <pt x="554" y="0" on="1"/>
        <pt x="411" y="-5" on="1"/>
        <pt x="407" y="44" on="1"/>
        <pt x="480" y="64" on="1"/>
        <pt x="453" y="172" on="1"/>
        <pt x="432" y="232" on="1"/>
        <pt x="212" y="232" on="1"/>
        <pt x="180" y="127" on="1"/>
        <pt x="170" y="64" on="1"/>
        <pt x="240" y="54" on="1"/>
        <pt x="235" y="0" on="1"/>
        <pt x="149" y="0" on="1"/>
        <pt x="14" y="-5" on="1"/>
        <pt x="10" y="44" on="1"/>
        <pt x="73" y="61" on="1"/>
        <pt x="116" y="160" on="1"/>
        <pt x="295" y="705" on="1"/>
        <pt x="353" y="715" on="1"/>
        <pt x="559" y="149" on="1"/>
        <pt x="598" y="64" on="1"/>
      </contour>
      <contour>
        <pt x="318" y="557" on="1"/>
        <pt x="230" y="282" on="1"/>
        <pt x="412" y="286" on="1"/>
      </contour>
      <contour>
        <pt x="479" y="817" on="0"/>
        <pt x="435" y="763" on="0"/>
        <pt x="397" y="763" on="0"/>
        <pt x="273" y="804" on="0"/>
        <pt x="241" y="804" on="0"/>
        <pt x="214" y="777" on="0"/>
        <pt x="207" y="764" on="1"/>
        <pt x="200" y="750" on="1"/>
        <pt x="164" y="771" on="1"/>
        <pt x="169" y="782" on="0"/>
        <pt x="185" y="816" on="0"/>
        <pt x="228" y="872" on="0"/>
        <pt x="266" y="872" on="0"/>
        <pt x="391" y="831" on="0"/>
        <pt x="423" y="831" on="0"/>
        <pt x="450" y="856" on="0"/>
        <pt x="457" y="869" on="1"/>
        <pt x="464" y="882" on="1"/>
        <pt x="500" y="861" on="1"/>
        <pt x="495" y="850" on="0"/>
      </contour>
    </TTGlyph>
    <TTGlyph name="B" xMin="48" yMin="-5" xMax="553" yMax="715">
      <contour>
        <pt x="157" y="705" on="1"/>
        <pt x="332" y="715" on="1"/>
        <pt x="413" y="715" on="0"/>
        <pt x="522" y="623" on="0"/>
        <pt x="522" y="478" on="0"/>
        <pt x="445" y="385" on="0"/>
        <pt x="383" y="370" on="1"/>
        <pt x="383" y="363" on="1"/>
        <pt x="460" y="351" on="0"/>
        <pt x="553" y="258" on="0"/>
        <pt x="553" y="98" on="0"/>
        <pt x="436" y="-5" on="0"/>
        <pt x="349" y="-5" on="1"/>
        <pt x="157" y="0" on="1"/>
        <pt x="53" y="-5" on="1"/>
        <pt x="48" y="45" on="1"/>
        <pt x="121" y="61" on="1"/>
        <pt x="130" y="120" on="0"/>
        <pt x="130" y="137" on="1"/>
        <pt x="130" y="568" on="1"/>
        <pt x="130" y="586" on="0"/>
        <pt x="121" y="644" on="1"/>
        <pt x="50" y="656" on="1"/>
        <pt x="55" y="710" on="1"/>
        <pt x="129" y="706" on="0"/>
      </contour>
      <contour>
        <pt x="221" y="538" on="1"/>
        <pt x="221" y="167" on="1"/>
        <pt x="221" y="95" on="0"/>
        <pt x="227" y="59" on="1"/>
        <pt x="277" y="53" on="0"/>
        <pt x="318" y="53" on="1"/>
        <pt x="379" y="53" on="0"/>
        <pt x="452" y="125" on="0"/>
        <pt x="452" y="263" on="0"/>
        <pt x="356" y="337" on="0"/>
        <pt x="284" y="337" on="1"/>
        <pt x="273" y="337" on="1"/>
        <pt x="280" y="394" on="1"/>
        <pt x="287" y="394" on="1"/>
        <pt x="349" y="394" on="0"/>
        <pt x="429" y="466" on="0"/>
        <pt x="429" y="590" on="0"/>
        <pt x="364" y="661" on="0"/>
        <pt x="311" y="661" on="1"/>
        <pt x="278" y="661" on="0"/>
        <pt x="228" y="655" on="1"/>
        <pt x="221" y="610" on="0"/>
      </contour>
    </TTGlyph>
    <TTGlyph name="C" xMin="42" yMin="-15" xMax="575" yMax="720">
      <contour>
        <pt x="359" y="-15" on="1"/>
        <pt x="205" y="-15" on="0"/>
        <pt x="42" y="184" on="0"/>
        <pt x="42" y="520" on="0"/>
        <pt x="205" y="720" on="0"/>
        <pt x="359" y="720" on="1"/>
        <pt x="432" y="720" on="0"/>
        <pt x="566" y="686" on="1"/>
        <pt x="556" y="538" on="1"/>
        <pt x="497" y="542" on="1"/>
        <pt x="497" y="589" on="1"/>
        <pt x="497" y="599" on="0"/>
        <pt x="485" y="639" on="1"/>
        <pt x="416" y="662" on="0"/>
        <pt x="359" y="662" on="1"/>
        <pt x="255" y="662" on="0"/>
        <pt x="145" y="489" on="0"/>
        <pt x="145" y="217" on="0"/>
        <pt x="255" y="43" on="0"/>
        <pt x="358" y="43" on="1"/>
        <pt x="423" y="43" on="0"/>
        <pt x="494" y="65" on="1"/>
        <pt x="508" y="111" on="0"/>
        <pt x="508" y="121" on="1"/>
        <pt x="510" y="168" on="1"/>
        <pt x="569" y="170" on="1"/>
        <pt x="575" y="19" on="1"/>
        <pt x="441" y="-15" on="0"/>
      </contour>
    </TTGlyph>
    <TTGlyph name="Cacute" xMin="42" yMin="-15" xMax="575" yMax="898">
      <contour>
        <pt x="359" y="-15" on="1"/>
        <pt x="205" y="-15" on="0"/>
        <pt x="42" y="184" on="0"/>
        <pt x="42" y="520" on="0"/>
        <pt x="205" y="720" on="0"/>
        <pt x="359" y="720" on="1"/>
        <pt x="432" y="720" on="0"/>
        <pt x="566" y="686" on="1"/>
        <pt x="556" y="538" on="1"/>
        <pt x="497" y="542" on="1"/>
        <pt x="497" y="589" on="1"/>
        <pt x="497" y="599" on="0"/>
        <pt x="485" y="639" on="1"/>
        <pt x="416" y="662" on="0"/>
        <pt x="359" y="662" on="1"/>
        <pt x="255" y="662" on="0"/>
        <pt x="145" y="489" on="0"/>
        <pt x="145" y="217" on="0"/>
        <pt x="255" y="43" on="0"/>
        <pt x="358" y="43" on="1"/>
        <pt x="423" y="43" on="0"/>
        <pt x="494" y="65" on="1"/>
        <pt x="508" y="111" on="0"/>
        <pt x="508" y="121" on="1"/>
        <pt x="510" y="168" on="1"/>
        <pt x="569" y="170" on="1"/>
        <pt x="575" y="19" on="1"/>
        <pt x="441" y="-15" on="0"/>
      </contour>
      <contour>
        <pt x="475" y="898" on="1"/>
        <pt x="505" y="825" on="1"/>
        <pt x="373" y="793" on="0"/>
        <pt x="354" y="787" on="1"/>
        <pt x="266" y="750" on="1"/>
        <pt x="246" y="798" on="1"/>
      </contour>
    </TTGlyph>
    <TTGlyph name="Ccaron" xMin="42" yMin="-15" xMax="575" yMax="893">
      <contour>
        <pt x="359" y="-15" on="1"/>
        <pt x="205" y="-15" on="0"/>
        <pt x="42" y="184" on="0"/>
        <pt x="42" y="520" on="0"/>
        <pt x="205" y="720" on="0"/>
        <pt x="359" y="720" on="1"/>
        <pt x="432" y="720" on="0"/>
        <pt x="566" y="686" on="1"/>
        <pt x="556" y="538" on="1"/>
        <pt x="497" y="542" on="1"/>
        <pt x="497" y="589" on="1"/>
        <pt x="497" y="599" on="0"/>
        <pt x="485" y="639" on="1"/>
        <pt x="416" y="662" on="0"/>
        <pt x="359" y="662" on="1"/>
        <pt x="255" y="662" on="0"/>
        <pt x="145" y="489" on="0"/>
        <pt x="145" y="217" on="0"/>
        <pt x="255" y="43" on="0"/>
        <pt x="358" y="43" on="1"/>
        <pt x="423" y="43" on="0"/>
        <pt x="494" y="65" on="1"/>
        <pt x="508" y="111" on="0"/>
        <pt x="508" y="121" on="1"/>
        <pt x="510" y="168" on="1"/>
        <pt x="569" y="170" on="1"/>
        <pt x="575" y="19" on="1"/>
        <pt x="441" y="-15" on="0"/>
      </contour>
      <contour>
        <pt x="507" y="893" on="1"/>
        <pt x="530" y="854" on="1"/>
        <pt x="356" y="747" on="1"/>
        <pt x="182" y="854" on="1"/>
        <pt x="205" y="893" on="1"/>
        <pt x="293" y="852" on="1"/>
        <pt x="356" y="827" on="1"/>
        <pt x="419" y="852" on="1"/>
      </contour>
    </TTGlyph>
    <TTGlyph name="Ccedilla" xMin="42" yMin="-235" xMax="575" yMax="720">
      <contour>
        <pt x="484" y="-106" on="0"/>
        <pt x="484" y="-186" on="0"/>
        <pt x="422" y="-235" on="0"/>
        <pt x="332" y="-235" on="0"/>
        <pt x="294" y="-217" on="1"/>
        <pt x="307" y="-182" on="1"/>
        <pt x="342" y="-193" on="0"/>
        <pt x="389" y="-193" on="0"/>
        <pt x="419" y="-168" on="0"/>
        <pt x="419" y="-146" on="1"/>
        <pt x="419" y="-103" on="0"/>
        <pt x="372" y="-103" on="1"/>
        <pt x="351" y="-104" on="1"/>
        <pt x="340" y="-94" on="1"/>
        <pt x="347" y="-14" on="1"/>
        <pt x="199" y="-10" on="0"/>
        <pt x="42" y="187" on="0"/>
        <pt x="42" y="520" on="0"/>
        <pt x="205" y="720" on="0"/>
        <pt x="359" y="720" on="1"/>
        <pt x="432" y="720" on="0"/>
        <pt x="566" y="686" on="1"/>
        <pt x="556" y="538" on="1"/>
        <pt x="497" y="542" on="1"/>
        <pt x="497" y="589" on="1"/>
        <pt x="497" y="599" on="0"/>
        <pt x="485" y="639" on="1"/>
        <pt x="416" y="662" on="0"/>
        <pt x="359" y="662" on="1"/>
        <pt x="255" y="662" on="0"/>
        <pt x="145" y="489" on="0"/>
        <pt x="145" y="217" on="0"/>
        <pt x="255" y="43" on="0"/>
        <pt x="358" y="43" on="1"/>
        <pt x="423" y="43" on="0"/>
        <pt x="494" y="65" on="1"/>
        <pt x="508" y="111" on="0"/>
        <pt x="508" y="121" on="1"/>
        <pt x="510" y="168" on="1"/>
        <pt x="569" y="170" on="1"/>
        <pt x="575" y="19" on="1"/>
        <pt x="462" y="-10" on="0"/>
        <pt x="392" y="-14" on="1"/>
        <pt x="383" y="-59" on="1"/>
        <pt x="428" y="-60" on="0"/>
      </contour>
    </TTGlyph>
    <TTGlyph name="Ccircumflex" xMin="42" yMin="-15" xMax="575" yMax="893">
      <contour>
        <pt x="359" y="-15" on="1"/>
        <pt x="205" y="-15" on="0"/>
        <pt x="42" y="184" on="0"/>
        <pt x="42" y="520" on="0"/>
        <pt x="205" y="720" on="0"/>
        <pt x="359" y="720" on="1"/>
        <pt x="432" y="720" on="0"/>
        <pt x="566" y="686" on="1"/>
        <pt x="556" y="538" on="1"/>
        <pt x="497" y="542" on="1"/>
        <pt x="497" y="589" on="1"/>
        <pt x="497" y="599" on="0"/>
        <pt x="485" y="639" on="1"/>
        <pt x="416" y="662" on="0"/>
        <pt x="359" y="662" on="1"/>
        <pt x="255" y="662" on="0"/>
        <pt x="145" y="489" on="0"/>
        <pt x="145" y="217" on="0"/>
        <pt x="255" y="43" on="0"/>
        <pt x="358" y="43" on="1"/>
        <pt x="423" y="43" on="0"/>
        <pt x="494" y="65" on="1"/>
        <pt x="508" y="111" on="0"/>
        <pt x="508" y="121" on="1"/>
        <pt x="510" y="168" on="1"/>
        <pt x="569" y="170" on="1"/>
        <pt x="575" y="19" on="1"/>
        <pt x="441" y="-15" on="0"/>
      </contour>
      <contour>
        <pt x="356" y="893" on="1"/>
        <pt x="530" y="786" on="1"/>
        <pt x="507" y="747" on="1"/>
        <pt x="419" y="788" on="1"/>
        <pt x="356" y="813" on="1"/>
        <pt x="293" y="788" on="1"/>
        <pt x="205" y="747" on="1"/>
        <pt x="182" y="786" on="1"/>
      </contour>
    </TTGlyph>
    <TTGlyph name="Cdotaccent" xMin="42" yMin="-15" xMax="575" yMax="890">
      <contour>
        <pt x="359" y="-15" on="1"/>
        <pt x="205" y="-15" on="0"/>
        <pt x="42" y="184" on="0"/>
        <pt x="42" y="520" on="0"/>
        <pt x="205" y="720" on="0"/>
        <pt x="359" y="720" on="1"/>
        <pt x="432" y="720" on="0"/>
        <pt x="566" y="686" on="1"/>
        <pt x="556" y="538" on="1"/>
        <pt x="497" y="542" on="1"/>
        <pt x="497" y="589" on="1"/>
        <pt x="497" y="599" on="0"/>
        <pt x="485" y="639" on="1"/>
        <pt x="416" y="662" on="0"/>
        <pt x="359" y="662" on="1"/>
        <pt x="255" y="662" on="0"/>
        <pt x="145" y="489" on="0"/>
        <pt x="145" y="217" on="0"/>
        <pt x="255" y="43" on="0"/>
        <pt x="358" y="43" on="1"/>
        <pt x="423" y="43" on="0"/>
        <pt x="494" y="65" on="1"/>
        <pt x="508" y="111" on="0"/>
        <pt x="508" y="121" on="1"/>
        <pt x="510" y="168" on="1"/>
        <pt x="569" y="170" on="1"/>
        <pt x="575" y="19" on="1"/>
        <pt x="441" y="-15" on="0"/>
      </contour>
      <contour>
        <pt x="328" y="890" on="0"/>
        <pt x="384" y="890" on="0"/>
        <pt x="415" y="856" on="0"/>
        <pt x="415" y="796" on="0"/>
        <pt x="384" y="761" on="0"/>
        <pt x="328" y="761" on="0"/>
        <pt x="297" y="796" on="0"/>
        <pt x="297" y="854" on="0"/>
      </contour>
    </TTGlyph>
    <TTGlyph name="D" xMin="42" yMin="-6" xMax="679" yMax="715">
      <contour>
        <pt x="334" y="-6" on="1"/>
        <pt x="165" y="0" on="1"/>
        <pt x="47" y="-5" on="1"/>
        <pt x="42" y="45" on="1"/>
        <pt x="121" y="61" on="1"/>
        <pt x="130" y="120" on="0"/>
        <pt x="130" y="137" on="1"/>
        <pt x="130" y="568" on="1"/>
        <pt x="130" y="586" on="0"/>
        <pt x="121" y="644" on="1"/>
        <pt x="44" y="656" on="1"/>
        <pt x="49" y="710" on="1"/>
        <pt x="113" y="707" on="0"/>
        <pt x="147" y="705" on="1"/>
        <pt x="173" y="706" on="0"/>
        <pt x="297" y="715" on="0"/>
        <pt x="334" y="715" on="1"/>
        <pt x="499" y="715" on="0"/>
        <pt x="679" y="521" on="0"/>
        <pt x="679" y="190" on="0"/>
        <pt x="494" y="-6" on="0"/>
      </contour>
      <contour>
        <pt x="335" y="655" on="1"/>
        <pt x="270" y="655" on="0"/>
        <pt x="228" y="650" on="1"/>
        <pt x="221" y="584" on="0"/>
        <pt x="221" y="538" on="1"/>
        <pt x="221" y="167" on="1"/>
        <pt x="221" y="85" on="0"/>
        <pt x="228" y="57" on="1"/>
        <pt x="280" y="53" on="0"/>
        <pt x="335" y="53" on="1"/>
        <pt x="455" y="53" on="0"/>
        <pt x="580" y="221" on="0"/>
        <pt x="580" y="485" on="0"/>
        <pt x="455" y="655" on="0"/>
      </contour>
    </TTGlyph>
    <TTGlyph name="Dcaron" xMin="42" yMin="-6" xMax="679" yMax="893">
      <contour>
        <pt x="334" y="-6" on="1"/>
        <pt x="165" y="0" on="1"/>
        <pt x="47" y="-5" on="1"/>
        <pt x="42" y="45" on="1"/>
        <pt x="121" y="61" on="1"/>
        <pt x="130" y="120" on="0"/>
        <pt x="130" y="137" on="1"/>
        <pt x="130" y="568" on="1"/>
        <pt x="130" y="586" on="0"/>
        <pt x="121" y="644" on="1"/>
        <pt x="44" y="656" on="1"/>
        <pt x="49" y="710" on="1"/>
        <pt x="113" y="707" on="0"/>
        <pt x="147" y="705" on="1"/>
        <pt x="173" y="706" on="0"/>
        <pt x="297" y="715" on="0"/>
        <pt x="334" y="715" on="1"/>
        <pt x="499" y="715" on="0"/>
        <pt x="679" y="521" on="0"/>
        <pt x="679" y="190" on="0"/>
        <pt x="494" y="-6" on="0"/>
      </contour>
      <contour>
        <pt x="335" y="655" on="1"/>
        <pt x="270" y="655" on="0"/>
        <pt x="228" y="650" on="1"/>
        <pt x="221" y="584" on="0"/>
        <pt x="221" y="538" on="1"/>
        <pt x="221" y="167" on="1"/>
        <pt x="221" y="85" on="0"/>
        <pt x="228" y="57" on="1"/>
        <pt x="280" y="53" on="0"/>
        <pt x="335" y="53" on="1"/>
        <pt x="455" y="53" on="0"/>
        <pt x="580" y="221" on="0"/>
        <pt x="580" y="485" on="0"/>
        <pt x="455" y="655" on="0"/>
      </contour>
      <contour>
        <pt x="482" y="893" on="1"/>
        <pt x="505" y="854" on="1"/>
        <pt x="331" y="747" on="1"/>
        <pt x="157" y="854" on="1"/>
        <pt x="180" y="893" on="1"/>
        <pt x="268" y="852" on="1"/>
        <pt x="331" y="827" on="1"/>
        <pt x="394" y="852" on="1"/>
      </contour>
    </TTGlyph>
    <TTGlyph name="Dcroat" xMin="42" yMin="-6" xMax="679" yMax="715">
      <contour>
        <pt x="334" y="-6" on="1"/>
        <pt x="165" y="0" on="1"/>
        <pt x="47" y="-5" on="1"/>
        <pt x="42" y="45" on="1"/>
        <pt x="121" y="61" on="1"/>
        <pt x="130" y="120" on="0"/>
        <pt x="130" y="137" on="1"/>
        <pt x="130" y="337" on="1"/>
        <pt x="42" y="337" on="1"/>
        <pt x="42" y="380" on="1"/>
        <pt x="130" y="380" on="1"/>
        <pt x="130" y="568" on="1"/>
        <pt x="130" y="586" on="0"/>
        <pt x="121" y="644" on="1"/>
        <pt x="44" y="656" on="1"/>
        <pt x="49" y="710" on="1"/>
        <pt x="113" y="707" on="0"/>
        <pt x="147" y="705" on="1"/>
        <pt x="173" y="706" on="0"/>
        <pt x="297" y="715" on="0"/>
        <pt x="334" y="715" on="1"/>
        <pt x="499" y="715" on="0"/>
        <pt x="679" y="521" on="0"/>
        <pt x="679" y="190" on="0"/>
        <pt x="494" y="-6" on="0"/>
      </contour>
      <contour>
        <pt x="221" y="337" on="1"/>
        <pt x="221" y="167" on="1"/>
        <pt x="221" y="85" on="0"/>
        <pt x="228" y="57" on="1"/>
        <pt x="280" y="53" on="0"/>
        <pt x="335" y="53" on="1"/>
        <pt x="455" y="53" on="0"/>
        <pt x="580" y="221" on="0"/>
        <pt x="580" y="485" on="0"/>
        <pt x="455" y="655" on="0"/>
        <pt x="335" y="655" on="1"/>
        <pt x="270" y="655" on="0"/>
        <pt x="228" y="650" on="1"/>
        <pt x="221" y="584" on="0"/>
        <pt x="221" y="538" on="1"/>
        <pt x="221" y="380" on="1"/>
        <pt x="364" y="380" on="1"/>
        <pt x="359" y="337" on="1"/>
      </contour>
    </TTGlyph>
    <TTGlyph name="Delta" xMin="25" yMin="-15" xMax="655" yMax="716">
      <contour>
        <pt x="631" y="-15" on="1"/>
        <pt x="53" y="-15" on="1"/>
        <pt x="25" y="50" on="1"/>
        <pt x="82" y="138" on="0"/>
        <pt x="91" y="166" on="1"/>
        <pt x="307" y="703" on="1"/>
        <pt x="361" y="716" on="1"/>
        <pt x="601" y="158" on="0"/>
        <pt x="610" y="136" on="1"/>
        <pt x="655" y="53" on="1"/>
      </contour>
      <contour>
        <pt x="118" y="46" on="1"/>
        <pt x="200" y="44" on="0"/>
        <pt x="305" y="44" on="0"/>
        <pt x="537" y="50" on="1"/>
        <pt x="522" y="110" on="0"/>
        <pt x="513" y="134" on="1"/>
        <pt x="321" y="585" on="1"/>
        <pt x="137" y="118" on="1"/>
        <pt x="125" y="70" on="0"/>
      </contour>
    </TTGlyph>
    <TTGlyph name="E" xMin="42" yMin="-5" xMax="550" yMax="715">
      <contour>
        <pt x="165" y="705" on="1"/>
        <pt x="389" y="705" on="1"/>
        <pt x="503" y="715" on="1"/>
        <pt x="522" y="697" on="1"/>
        <pt x="529" y="561" on="1"/>
        <pt x="471" y="556" on="1"/>
        <pt x="468" y="580" on="0"/>
        <pt x="459" y="620" on="0"/>
        <pt x="440" y="644" on="1"/>
        <pt x="385" y="649" on="0"/>
        <pt x="359" y="649" on="1"/>
        <pt x="228" y="649" on="1"/>
        <pt x="221" y="575" on="0"/>
        <pt x="221" y="538" on="1"/>
        <pt x="221" y="396" on="1"/>
        <pt x="255" y="394" on="0"/>
        <pt x="264" y="394" on="1"/>
        <pt x="337" y="394" on="1"/>
        <pt x="397" y="403" on="1"/>
        <pt x="406" y="469" on="1"/>
        <pt x="452" y="464" on="1"/>
        <pt x="451" y="400" on="0"/>
        <pt x="451" y="380" on="1"/>
        <pt x="454" y="271" on="1"/>
        <pt x="406" y="265" on="1"/>
        <pt x="397" y="332" on="1"/>
        <pt x="337" y="338" on="0"/>
        <pt x="317" y="338" on="1"/>
        <pt x="264" y="338" on="1"/>
        <pt x="246" y="338" on="0"/>
        <pt x="221" y="335" on="1"/>
        <pt x="221" y="167" on="1"/>
        <pt x="221" y="124" on="0"/>
        <pt x="228" y="57" on="1"/>
        <pt x="372" y="57" on="1"/>
        <pt x="410" y="57" on="0"/>
        <pt x="459" y="66" on="1"/>
        <pt x="478" y="92" on="0"/>
        <pt x="481" y="107" on="0"/>
        <pt x="494" y="161" on="0"/>
        <pt x="495" y="170" on="1"/>
        <pt x="550" y="165" on="1"/>
        <pt x="535" y="14" on="1"/>
        <pt x="516" y="-4" on="1"/>
        <pt x="422" y="0" on="0"/>
        <pt x="402" y="0" on="1"/>
        <pt x="165" y="0" on="1"/>
        <pt x="47" y="-5" on="1"/>
        <pt x="42" y="45" on="1"/>
        <pt x="121" y="61" on="1"/>
        <pt x="130" y="120" on="0"/>
        <pt x="130" y="137" on="1"/>
        <pt x="130" y="568" on="1"/>
        <pt x="130" y="586" on="0"/>
        <pt x="121" y="644" on="1"/>
        <pt x="44" y="656" on="1"/>
        <pt x="49" y="710" on="1"/>
        <pt x="145" y="705" on="0"/>
      </contour>
    </TTGlyph>
    <TTGlyph name="Eacute" xMin="42" yMin="-5" xMax="550" yMax="898">
      <contour>
        <pt x="165" y="705" on="1"/>
        <pt x="389" y="705" on="1"/>
        <pt x="503" y="715" on="1"/>
        <pt x="522" y="697" on="1"/>
        <pt x="529" y="561" on="1"/>
        <pt x="471" y="556" on="1"/>
        <pt x="468" y="580" on="0"/>
        <pt x="459" y="620" on="0"/>
        <pt x="440" y="644" on="1"/>
        <pt x="385" y="649" on="0"/>
        <pt x="359" y="649" on="1"/>
        <pt x="228" y="649" on="1"/>
        <pt x="221" y="575" on="0"/>
        <pt x="221" y="538" on="1"/>
        <pt x="221" y="396" on="1"/>
        <pt x="255" y="394" on="0"/>
        <pt x="264" y="394" on="1"/>
        <pt x="337" y="394" on="1"/>
        <pt x="397" y="403" on="1"/>
        <pt x="406" y="469" on="1"/>
        <pt x="452" y="464" on="1"/>
        <pt x="451" y="400" on="0"/>
        <pt x="451" y="380" on="1"/>
        <pt x="454" y="271" on="1"/>
        <pt x="406" y="265" on="1"/>
        <pt x="397" y="332" on="1"/>
        <pt x="337" y="338" on="0"/>
        <pt x="317" y="338" on="1"/>
        <pt x="264" y="338" on="1"/>
        <pt x="246" y="338" on="0"/>
        <pt x="221" y="335" on="1"/>
        <pt x="221" y="167" on="1"/>
        <pt x="221" y="124" on="0"/>
        <pt x="228" y="57" on="1"/>
        <pt x="372" y="57" on="1"/>
        <pt x="410" y="57" on="0"/>
        <pt x="459" y="66" on="1"/>
        <pt x="478" y="92" on="0"/>
        <pt x="481" y="107" on="0"/>
        <pt x="494" y="161" on="0"/>
        <pt x="495" y="170" on="1"/>
        <pt x="550" y="165" on="1"/>
        <pt x="535" y="14" on="1"/>
        <pt x="516" y="-4" on="1"/>
        <pt x="422" y="0" on="0"/>
        <pt x="402" y="0" on="1"/>
        <pt x="165" y="0" on="1"/>
        <pt x="47" y="-5" on="1"/>
        <pt x="42" y="45" on="1"/>
        <pt x="121" y="61" on="1"/>
        <pt x="130" y="120" on="0"/>
        <pt x="130" y="137" on="1"/>
        <pt x="130" y="568" on="1"/>
        <pt x="130" y="586" on="0"/>
        <pt x="121" y="644" on="1"/>
        <pt x="44" y="656" on="1"/>
        <pt x="49" y="710" on="1"/>
        <pt x="145" y="705" on="0"/>
      </contour>
      <contour>
        <pt x="413" y="898" on="1"/>
        <pt x="443" y="825" on="1"/>
        <pt x="311" y="793" on="0"/>
        <pt x="292" y="787" on="1"/>
        <pt x="204" y="750" on="1"/>
        <pt x="184" y="798" on="1"/>
      </contour>
    </TTGlyph>
    <TTGlyph name="Ebreve" xMin="42" yMin="-5" xMax="550" yMax="898">
      <contour>
        <pt x="165" y="705" on="1"/>
        <pt x="389" y="705" on="1"/>
        <pt x="503" y="715" on="1"/>
        <pt x="522" y="697" on="1"/>
        <pt x="529" y="561" on="1"/>
        <pt x="471" y="556" on="1"/>
        <pt x="468" y="580" on="0"/>
        <pt x="459" y="620" on="0"/>
        <pt x="440" y="644" on="1"/>
        <pt x="385" y="649" on="0"/>
        <pt x="359" y="649" on="1"/>
        <pt x="228" y="649" on="1"/>
        <pt x="221" y="575" on="0"/>
        <pt x="221" y="538" on="1"/>
        <pt x="221" y="396" on="1"/>
        <pt x="255" y="394" on="0"/>
        <pt x="264" y="394" on="1"/>
        <pt x="337" y="394" on="1"/>
        <pt x="397" y="403" on="1"/>
        <pt x="406" y="469" on="1"/>
        <pt x="452" y="464" on="1"/>
        <pt x="451" y="400" on="0"/>
        <pt x="451" y="380" on="1"/>
        <pt x="454" y="271" on="1"/>
        <pt x="406" y="265" on="1"/>
        <pt x="397" y="332" on="1"/>
        <pt x="337" y="338" on="0"/>
        <pt x="317" y="338" on="1"/>
        <pt x="264" y="338" on="1"/>
        <pt x="246" y="338" on="0"/>
        <pt x="221" y="335" on="1"/>
        <pt x="221" y="167" on="1"/>
        <pt x="221" y="124" on="0"/>
        <pt x="228" y="57" on="1"/>
        <pt x="372" y="57" on="1"/>
        <pt x="410" y="57" on="0"/>
        <pt x="459" y="66" on="1"/>
        <pt x="478" y="92" on="0"/>
        <pt x="481" y="107" on="0"/>
        <pt x="494" y="161" on="0"/>
        <pt x="495" y="170" on="1"/>
        <pt x="550" y="165" on="1"/>
        <pt x="535" y="14" on="1"/>
        <pt x="516" y="-4" on="1"/>
        <pt x="422" y="0" on="0"/>
        <pt x="402" y="0" on="1"/>
        <pt x="165" y="0" on="1"/>
        <pt x="47" y="-5" on="1"/>
        <pt x="42" y="45" on="1"/>
        <pt x="121" y="61" on="1"/>
        <pt x="130" y="120" on="0"/>
        <pt x="130" y="137" on="1"/>
        <pt x="130" y="568" on="1"/>
        <pt x="130" y="586" on="0"/>
        <pt x="121" y="644" on="1"/>
        <pt x="44" y="656" on="1"/>
        <pt x="49" y="710" on="1"/>
        <pt x="145" y="705" on="0"/>
      </contour>
      <contour>
        <pt x="377" y="898" on="1"/>
        <pt x="433" y="898" on="1"/>
        <pt x="433" y="830" on="0"/>
        <pt x="361" y="758" on="0"/>
        <pt x="227" y="758" on="0"/>
        <pt x="155" y="830" on="0"/>
        <pt x="155" y="898" on="1"/>
        <pt x="211" y="898" on="1"/>
        <pt x="211" y="860" on="0"/>
        <pt x="257" y="814" on="0"/>
        <pt x="331" y="814" on="0"/>
        <pt x="377" y="860" on="0"/>
      </contour>
    </TTGlyph>
    <TTGlyph name="Ecaron" xMin="42" yMin="-5" xMax="550" yMax="893">
      <contour>
        <pt x="165" y="705" on="1"/>
        <pt x="389" y="705" on="1"/>
        <pt x="503" y="715" on="1"/>
        <pt x="522" y="697" on="1"/>
        <pt x="529" y="561" on="1"/>
        <pt x="471" y="556" on="1"/>
        <pt x="468" y="580" on="0"/>
        <pt x="459" y="620" on="0"/>
        <pt x="440" y="644" on="1"/>
        <pt x="385" y="649" on="0"/>
        <pt x="359" y="649" on="1"/>
        <pt x="228" y="649" on="1"/>
        <pt x="221" y="575" on="0"/>
        <pt x="221" y="538" on="1"/>
        <pt x="221" y="396" on="1"/>
        <pt x="255" y="394" on="0"/>
        <pt x="264" y="394" on="1"/>
        <pt x="337" y="394" on="1"/>
        <pt x="397" y="403" on="1"/>
        <pt x="406" y="469" on="1"/>
        <pt x="452" y="464" on="1"/>
        <pt x="451" y="400" on="0"/>
        <pt x="451" y="380" on="1"/>
        <pt x="454" y="271" on="1"/>
        <pt x="406" y="265" on="1"/>
        <pt x="397" y="332" on="1"/>
        <pt x="337" y="338" on="0"/>
        <pt x="317" y="338" on="1"/>
        <pt x="264" y="338" on="1"/>
        <pt x="246" y="338" on="0"/>
        <pt x="221" y="335" on="1"/>
        <pt x="221" y="167" on="1"/>
        <pt x="221" y="124" on="0"/>
        <pt x="228" y="57" on="1"/>
        <pt x="372" y="57" on="1"/>
        <pt x="410" y="57" on="0"/>
        <pt x="459" y="66" on="1"/>
        <pt x="478" y="92" on="0"/>
        <pt x="481" y="107" on="0"/>
        <pt x="494" y="161" on="0"/>
        <pt x="495" y="170" on="1"/>
        <pt x="550" y="165" on="1"/>
        <pt x="535" y="14" on="1"/>
        <pt x="516" y="-4" on="1"/>
        <pt x="422" y="0" on="0"/>
        <pt x="402" y="0" on="1"/>
        <pt x="165" y="0" on="1"/>
        <pt x="47" y="-5" on="1"/>
        <pt x="42" y="45" on="1"/>
        <pt x="121" y="61" on="1"/>
        <pt x="130" y="120" on="0"/>
        <pt x="130" y="137" on="1"/>
        <pt x="130" y="568" on="1"/>
        <pt x="130" y="586" on="0"/>
        <pt x="121" y="644" on="1"/>
        <pt x="44" y="656" on="1"/>
        <pt x="49" y="710" on="1"/>
        <pt x="145" y="705" on="0"/>
      </contour>
      <contour>
        <pt x="445" y="893" on="1"/>
        <pt x="468" y="854" on="1"/>
        <pt x="294" y="747" on="1"/>
        <pt x="120" y="854" on="1"/>
        <pt x="143" y="893" on="1"/>
        <pt x="231" y="852" on="1"/>
        <pt x="294" y="827" on="1"/>
        <pt x="357" y="852" on="1"/>
      </contour>
    </TTGlyph>
    <TTGlyph name="Ecircumflex" xMin="42" yMin="-5" xMax="550" yMax="893">
      <contour>
        <pt x="165" y="705" on="1"/>
        <pt x="389" y="705" on="1"/>
        <pt x="503" y="715" on="1"/>
        <pt x="522" y="697" on="1"/>
        <pt x="529" y="561" on="1"/>
        <pt x="471" y="556" on="1"/>
        <pt x="468" y="580" on="0"/>
        <pt x="459" y="620" on="0"/>
        <pt x="440" y="644" on="1"/>
        <pt x="385" y="649" on="0"/>
        <pt x="359" y="649" on="1"/>
        <pt x="228" y="649" on="1"/>
        <pt x="221" y="575" on="0"/>
        <pt x="221" y="538" on="1"/>
        <pt x="221" y="396" on="1"/>
        <pt x="255" y="394" on="0"/>
        <pt x="264" y="394" on="1"/>
        <pt x="337" y="394" on="1"/>
        <pt x="397" y="403" on="1"/>
        <pt x="406" y="469" on="1"/>
        <pt x="452" y="464" on="1"/>
        <pt x="451" y="400" on="0"/>
        <pt x="451" y="380" on="1"/>
        <pt x="454" y="271" on="1"/>
        <pt x="406" y="265" on="1"/>
        <pt x="397" y="332" on="1"/>
        <pt x="337" y="338" on="0"/>
        <pt x="317" y="338" on="1"/>
        <pt x="264" y="338" on="1"/>
        <pt x="246" y="338" on="0"/>
        <pt x="221" y="335" on="1"/>
        <pt x="221" y="167" on="1"/>
        <pt x="221" y="124" on="0"/>
        <pt x="228" y="57" on="1"/>
        <pt x="372" y="57" on="1"/>
        <pt x="410" y="57" on="0"/>
        <pt x="459" y="66" on="1"/>
        <pt x="478" y="92" on="0"/>
        <pt x="481" y="107" on="0"/>
        <pt x="494" y="161" on="0"/>
        <pt x="495" y="170" on="1"/>
        <pt x="550" y="165" on="1"/>
        <pt x="535" y="14" on="1"/>
        <pt x="516" y="-4" on="1"/>
        <pt x="422" y="0" on="0"/>
        <pt x="402" y="0" on="1"/>
        <pt x="165" y="0" on="1"/>
        <pt x="47" y="-5" on="1"/>
        <pt x="42" y="45" on="1"/>
        <pt x="121" y="61" on="1"/>
        <pt x="130" y="120" on="0"/>
        <pt x="130" y="137" on="1"/>
        <pt x="130" y="568" on="1"/>
        <pt x="130" y="586" on="0"/>
        <pt x="121" y="644" on="1"/>
        <pt x="44" y="656" on="1"/>
        <pt x="49" y="710" on="1"/>
        <pt x="145" y="705" on="0"/>
      </contour>
      <contour>
        <pt x="294" y="893" on="1"/>
        <pt x="468" y="786" on="1"/>
        <pt x="445" y="747" on="1"/>
        <pt x="357" y="788" on="1"/>
        <pt x="294" y="813" on="1"/>
        <pt x="231" y="788" on="1"/>
        <pt x="143" y="747" on="1"/>
        <pt x="120" y="786" on="1"/>
      </contour>
    </TTGlyph>
    <TTGlyph name="Edieresis" xMin="42" yMin="-5" xMax="550" yMax="884">
      <contour>
        <pt x="165" y="705" on="1"/>
        <pt x="389" y="705" on="1"/>
        <pt x="503" y="715" on="1"/>
        <pt x="522" y="697" on="1"/>
        <pt x="529" y="561" on="1"/>
        <pt x="471" y="556" on="1"/>
        <pt x="468" y="580" on="0"/>
        <pt x="459" y="620" on="0"/>
        <pt x="440" y="644" on="1"/>
        <pt x="385" y="649" on="0"/>
        <pt x="359" y="649" on="1"/>
        <pt x="228" y="649" on="1"/>
        <pt x="221" y="575" on="0"/>
        <pt x="221" y="538" on="1"/>
        <pt x="221" y="396" on="1"/>
        <pt x="255" y="394" on="0"/>
        <pt x="264" y="394" on="1"/>
        <pt x="337" y="394" on="1"/>
        <pt x="397" y="403" on="1"/>
        <pt x="406" y="469" on="1"/>
        <pt x="452" y="464" on="1"/>
        <pt x="451" y="400" on="0"/>
        <pt x="451" y="380" on="1"/>
        <pt x="454" y="271" on="1"/>
        <pt x="406" y="265" on="1"/>
        <pt x="397" y="332" on="1"/>
        <pt x="337" y="338" on="0"/>
        <pt x="317" y="338" on="1"/>
        <pt x="264" y="338" on="1"/>
        <pt x="246" y="338" on="0"/>
        <pt x="221" y="335" on="1"/>
        <pt x="221" y="167" on="1"/>
        <pt x="221" y="124" on="0"/>
        <pt x="228" y="57" on="1"/>
        <pt x="372" y="57" on="1"/>
        <pt x="410" y="57" on="0"/>
        <pt x="459" y="66" on="1"/>
        <pt x="478" y="92" on="0"/>
        <pt x="481" y="107" on="0"/>
        <pt x="494" y="161" on="0"/>
        <pt x="495" y="170" on="1"/>
        <pt x="550" y="165" on="1"/>
        <pt x="535" y="14" on="1"/>
        <pt x="516" y="-4" on="1"/>
        <pt x="422" y="0" on="0"/>
        <pt x="402" y="0" on="1"/>
        <pt x="165" y="0" on="1"/>
        <pt x="47" y="-5" on="1"/>
        <pt x="42" y="45" on="1"/>
        <pt x="121" y="61" on="1"/>
        <pt x="130" y="120" on="0"/>
        <pt x="130" y="137" on="1"/>
        <pt x="130" y="568" on="1"/>
        <pt x="130" y="586" on="0"/>
        <pt x="121" y="644" on="1"/>
        <pt x="44" y="656" on="1"/>
        <pt x="49" y="710" on="1"/>
        <pt x="145" y="705" on="0"/>
      </contour>
      <contour>
        <pt x="412" y="884" on="1"/>
        <pt x="466" y="884" on="0"/>
        <pt x="466" y="765" on="0"/>
        <pt x="358" y="765" on="0"/>
        <pt x="358" y="824" on="1"/>
        <pt x="358" y="852" on="0"/>
        <pt x="386" y="884" on="0"/>
      </contour>
      <contour>
        <pt x="176" y="884" on="1"/>
        <pt x="230" y="884" on="0"/>
        <pt x="230" y="765" on="0"/>
        <pt x="122" y="765" on="0"/>
        <pt x="122" y="824" on="1"/>
        <pt x="122" y="852" on="0"/>
        <pt x="150" y="884" on="0"/>
      </contour>
    </TTGlyph>
    <TTGlyph name="Edotaccent" xMin="42" yMin="-5" xMax="550" yMax="890">
      <contour>
        <pt x="165" y="705" on="1"/>
        <pt x="389" y="705" on="1"/>
        <pt x="503" y="715" on="1"/>
        <pt x="522" y="697" on="1"/>
        <pt x="529" y="561" on="1"/>
        <pt x="471" y="556" on="1"/>
        <pt x="468" y="580" on="0"/>
        <pt x="459" y="620" on="0"/>
        <pt x="440" y="644" on="1"/>
        <pt x="385" y="649" on="0"/>
        <pt x="359" y="649" on="1"/>
        <pt x="228" y="649" on="1"/>
        <pt x="221" y="575" on="0"/>
        <pt x="221" y="538" on="1"/>
        <pt x="221" y="396" on="1"/>
        <pt x="255" y="394" on="0"/>
        <pt x="264" y="394" on="1"/>
        <pt x="337" y="394" on="1"/>
        <pt x="397" y="403" on="1"/>
        <pt x="406" y="469" on="1"/>
        <pt x="452" y="464" on="1"/>
        <pt x="451" y="400" on="0"/>
        <pt x="451" y="380" on="1"/>
        <pt x="454" y="271" on="1"/>
        <pt x="406" y="265" on="1"/>
        <pt x="397" y="332" on="1"/>
        <pt x="337" y="338" on="0"/>
        <pt x="317" y="338" on="1"/>
        <pt x="264" y="338" on="1"/>
        <pt x="246" y="338" on="0"/>
        <pt x="221" y="335" on="1"/>
        <pt x="221" y="167" on="1"/>
        <pt x="221" y="124" on="0"/>
        <pt x="228" y="57" on="1"/>
        <pt x="372" y="57" on="1"/>
        <pt x="410" y="57" on="0"/>
        <pt x="459" y="66" on="1"/>
        <pt x="478" y="92" on="0"/>
        <pt x="481" y="107" on="0"/>
        <pt x="494" y="161" on="0"/>
        <pt x="495" y="170" on="1"/>
        <pt x="550" y="165" on="1"/>
        <pt x="535" y="14" on="1"/>
        <pt x="516" y="-4" on="1"/>
        <pt x="422" y="0" on="0"/>
        <pt x="402" y="0" on="1"/>
        <pt x="165" y="0" on="1"/>
        <pt x="47" y="-5" on="1"/>
        <pt x="42" y="45" on="1"/>
        <pt x="121" y="61" on="1"/>
        <pt x="130" y="120" on="0"/>
        <pt x="130" y="137" on="1"/>
        <pt x="130" y="568" on="1"/>
        <pt x="130" y="586" on="0"/>
        <pt x="121" y="644" on="1"/>
        <pt x="44" y="656" on="1"/>
        <pt x="49" y="710" on="1"/>
        <pt x="145" y="705" on="0"/>
      </contour>
      <contour>
        <pt x="266" y="890" on="0"/>
        <pt x="322" y="890" on="0"/>
        <pt x="353" y="856" on="0"/>
        <pt x="353" y="796" on="0"/>
        <pt x="322" y="761" on="0"/>
        <pt x="266" y="761" on="0"/>
        <pt x="235" y="796" on="0"/>
        <pt x="235" y="854" on="0"/>
      </contour>
    </TTGlyph>
    <TTGlyph name="Egrave" xMin="42" yMin="-5" xMax="550" yMax="898">
      <contour>
        <pt x="165" y="705" on="1"/>
        <pt x="389" y="705" on="1"/>
        <pt x="503" y="715" on="1"/>
        <pt x="522" y="697" on="1"/>
        <pt x="529" y="561" on="1"/>
        <pt x="471" y="556" on="1"/>
        <pt x="468" y="580" on="0"/>
        <pt x="459" y="620" on="0"/>
        <pt x="440" y="644" on="1"/>
        <pt x="385" y="649" on="0"/>
        <pt x="359" y="649" on="1"/>
        <pt x="228" y="649" on="1"/>
        <pt x="221" y="575" on="0"/>
        <pt x="221" y="538" on="1"/>
        <pt x="221" y="396" on="1"/>
        <pt x="255" y="394" on="0"/>
        <pt x="264" y="394" on="1"/>
        <pt x="337" y="394" on="1"/>
        <pt x="397" y="403" on="1"/>
        <pt x="406" y="469" on="1"/>
        <pt x="452" y="464" on="1"/>
        <pt x="451" y="400" on="0"/>
        <pt x="451" y="380" on="1"/>
        <pt x="454" y="271" on="1"/>
        <pt x="406" y="265" on="1"/>
        <pt x="397" y="332" on="1"/>
        <pt x="337" y="338" on="0"/>
        <pt x="317" y="338" on="1"/>
        <pt x="264" y="338" on="1"/>
        <pt x="246" y="338" on="0"/>
        <pt x="221" y="335" on="1"/>
        <pt x="221" y="167" on="1"/>
        <pt x="221" y="124" on="0"/>
        <pt x="228" y="57" on="1"/>
        <pt x="372" y="57" on="1"/>
        <pt x="410" y="57" on="0"/>
        <pt x="459" y="66" on="1"/>
        <pt x="478" y="92" on="0"/>
        <pt x="481" y="107" on="0"/>
        <pt x="494" y="161" on="0"/>
        <pt x="495" y="170" on="1"/>
        <pt x="550" y="165" on="1"/>
        <pt x="535" y="14" on="1"/>
        <pt x="516" y="-4" on="1"/>
        <pt x="422" y="0" on="0"/>
        <pt x="402" y="0" on="1"/>
        <pt x="165" y="0" on="1"/>
        <pt x="47" y="-5" on="1"/>
        <pt x="42" y="45" on="1"/>
        <pt x="121" y="61" on="1"/>
        <pt x="130" y="120" on="0"/>
        <pt x="130" y="137" on="1"/>
        <pt x="130" y="568" on="1"/>
        <pt x="130" y="586" on="0"/>
        <pt x="121" y="644" on="1"/>
        <pt x="44" y="656" on="1"/>
        <pt x="49" y="710" on="1"/>
        <pt x="145" y="705" on="0"/>
      </contour>
      <contour>
        <pt x="144" y="825" on="1"/>
        <pt x="174" y="898" on="1"/>
        <pt x="403" y="798" on="1"/>
        <pt x="383" y="750" on="1"/>
        <pt x="295" y="787" on="1"/>
      </contour>
    </TTGlyph>
    <TTGlyph name="Emacron" xMin="42" yMin="-5" xMax="550" yMax="824">
      <contour>
        <pt x="165" y="705" on="1"/>
        <pt x="389" y="705" on="1"/>
        <pt x="503" y="715" on="1"/>
        <pt x="522" y="697" on="1"/>
        <pt x="529" y="561" on="1"/>
        <pt x="471" y="556" on="1"/>
        <pt x="468" y="580" on="0"/>
        <pt x="459" y="620" on="0"/>
        <pt x="440" y="644" on="1"/>
        <pt x="385" y="649" on="0"/>
        <pt x="359" y="649" on="1"/>
        <pt x="228" y="649" on="1"/>
        <pt x="221" y="575" on="0"/>
        <pt x="221" y="538" on="1"/>
        <pt x="221" y="396" on="1"/>
        <pt x="255" y="394" on="0"/>
        <pt x="264" y="394" on="1"/>
        <pt x="337" y="394" on="1"/>
        <pt x="397" y="403" on="1"/>
        <pt x="406" y="469" on="1"/>
        <pt x="452" y="464" on="1"/>
        <pt x="451" y="400" on="0"/>
        <pt x="451" y="380" on="1"/>
        <pt x="454" y="271" on="1"/>
        <pt x="406" y="265" on="1"/>
        <pt x="397" y="332" on="1"/>
        <pt x="337" y="338" on="0"/>
        <pt x="317" y="338" on="1"/>
        <pt x="264" y="338" on="1"/>
        <pt x="246" y="338" on="0"/>
        <pt x="221" y="335" on="1"/>
        <pt x="221" y="167" on="1"/>
        <pt x="221" y="124" on="0"/>
        <pt x="228" y="57" on="1"/>
        <pt x="372" y="57" on="1"/>
        <pt x="410" y="57" on="0"/>
        <pt x="459" y="66" on="1"/>
        <pt x="478" y="92" on="0"/>
        <pt x="481" y="107" on="0"/>
        <pt x="494" y="161" on="0"/>
        <pt x="495" y="170" on="1"/>
        <pt x="550" y="165" on="1"/>
        <pt x="535" y="14" on="1"/>
        <pt x="516" y="-4" on="1"/>
        <pt x="422" y="0" on="0"/>
        <pt x="402" y="0" on="1"/>
        <pt x="165" y="0" on="1"/>
        <pt x="47" y="-5" on="1"/>
        <pt x="42" y="45" on="1"/>
        <pt x="121" y="61" on="1"/>
        <pt x="130" y="120" on="0"/>
        <pt x="130" y="137" on="1"/>
        <pt x="130" y="568" on="1"/>
        <pt x="130" y="586" on="0"/>
        <pt x="121" y="644" on="1"/>
        <pt x="44" y="656" on="1"/>
        <pt x="49" y="710" on="1"/>
        <pt x="145" y="705" on="0"/>
      </contour>
      <contour>
        <pt x="133" y="771" on="1"/>
        <pt x="133" y="824" on="1"/>
        <pt x="455" y="824" on="1"/>
        <pt x="450" y="771" on="1"/>
      </contour>
    </TTGlyph>
    <TTGlyph name="Eng" xMin="41" yMin="-200" xMax="746" yMax="710">
      <contour>
        <pt x="652" y="528" on="1"/>
        <pt x="652" y="297" on="1"/>
        <pt x="651" y="-7" on="1"/>
        <pt x="652" y="-39" on="0"/>
        <pt x="539" y="-200" on="1"/>
        <pt x="505" y="-178" on="1"/>
        <pt x="572" y="-34" on="0"/>
        <pt x="583" y="4" on="1"/>
        <pt x="197" y="556" on="1"/>
        <pt x="197" y="167" on="1"/>
        <pt x="197" y="110" on="0"/>
        <pt x="204" y="61" on="1"/>
        <pt x="285" y="54" on="1"/>
        <pt x="278" y="-5" on="1"/>
        <pt x="235" y="0" on="0"/>
        <pt x="155" y="0" on="1"/>
        <pt x="47" y="-5" on="1"/>
        <pt x="42" y="45" on="1"/>
        <pt x="121" y="61" on="1"/>
        <pt x="130" y="120" on="0"/>
        <pt x="130" y="137" on="1"/>
        <pt x="130" y="568" on="1"/>
        <pt x="130" y="576" on="0"/>
        <pt x="121" y="644" on="1"/>
        <pt x="41" y="656" on="1"/>
        <pt x="46" y="710" on="1"/>
        <pt x="162" y="706" on="1"/>
        <pt x="206" y="706" on="1"/>
        <pt x="226" y="685" on="1"/>
        <pt x="308" y="552" on="0"/>
        <pt x="323" y="530" on="1"/>
        <pt x="585" y="163" on="1"/>
        <pt x="585" y="558" on="1"/>
        <pt x="585" y="587" on="0"/>
        <pt x="576" y="641" on="1"/>
        <pt x="497" y="647" on="1"/>
        <pt x="503" y="707" on="1"/>
        <pt x="585" y="705" on="1"/>
        <pt x="741" y="710" on="1"/>
        <pt x="746" y="657" on="1"/>
        <pt x="667" y="641" on="1"/>
        <pt x="652" y="570" on="0"/>
      </contour>
    </TTGlyph>
    <TTGlyph name="Eogonek" xMin="42" yMin="-197" xMax="550" yMax="715">
      <contour>
        <pt x="165" y="705" on="1"/>
        <pt x="389" y="705" on="1"/>
        <pt x="503" y="715" on="1"/>
        <pt x="522" y="697" on="1"/>
        <pt x="529" y="561" on="1"/>
        <pt x="471" y="556" on="1"/>
        <pt x="468" y="580" on="0"/>
        <pt x="459" y="620" on="0"/>
        <pt x="440" y="644" on="1"/>
        <pt x="385" y="649" on="0"/>
        <pt x="359" y="649" on="1"/>
        <pt x="228" y="649" on="1"/>
        <pt x="221" y="575" on="0"/>
        <pt x="221" y="538" on="1"/>
        <pt x="221" y="396" on="1"/>
        <pt x="255" y="394" on="0"/>
        <pt x="264" y="394" on="1"/>
        <pt x="337" y="394" on="1"/>
        <pt x="397" y="403" on="1"/>
        <pt x="406" y="469" on="1"/>
        <pt x="452" y="464" on="1"/>
        <pt x="451" y="400" on="0"/>
        <pt x="451" y="380" on="1"/>
        <pt x="454" y="271" on="1"/>
        <pt x="406" y="265" on="1"/>
        <pt x="397" y="332" on="1"/>
        <pt x="337" y="338" on="0"/>
        <pt x="317" y="338" on="1"/>
        <pt x="264" y="338" on="1"/>
        <pt x="246" y="338" on="0"/>
        <pt x="221" y="335" on="1"/>
        <pt x="221" y="167" on="1"/>
        <pt x="221" y="124" on="0"/>
        <pt x="228" y="57" on="1"/>
        <pt x="372" y="57" on="1"/>
        <pt x="410" y="57" on="0"/>
        <pt x="459" y="66" on="1"/>
        <pt x="478" y="92" on="0"/>
        <pt x="481" y="107" on="0"/>
        <pt x="494" y="161" on="0"/>
        <pt x="495" y="170" on="1"/>
        <pt x="550" y="165" on="1"/>
        <pt x="535" y="14" on="1"/>
        <pt x="516" y="-4" on="1"/>
        <pt x="500" y="-4" on="1"/>
        <pt x="438" y="-4" on="0"/>
        <pt x="374" y="-66" on="0"/>
        <pt x="374" y="-96" on="1"/>
        <pt x="374" y="-155" on="0"/>
        <pt x="430" y="-155" on="1"/>
        <pt x="453" y="-155" on="0"/>
        <pt x="485" y="-142" on="1"/>
        <pt x="499" y="-175" on="1"/>
        <pt x="452" y="-197" on="0"/>
        <pt x="366" y="-197" on="0"/>
        <pt x="310" y="-152" on="0"/>
        <pt x="310" y="-79" on="0"/>
        <pt x="340" y="-33" on="0"/>
        <pt x="378" y="0" on="1"/>
        <pt x="165" y="0" on="1"/>
        <pt x="47" y="-5" on="1"/>
        <pt x="42" y="45" on="1"/>
        <pt x="121" y="61" on="1"/>
        <pt x="130" y="120" on="0"/>
        <pt x="130" y="137" on="1"/>
        <pt x="130" y="568" on="1"/>
        <pt x="130" y="586" on="0"/>
        <pt x="121" y="644" on="1"/>
        <pt x="44" y="656" on="1"/>
        <pt x="49" y="710" on="1"/>
        <pt x="145" y="705" on="0"/>
      </contour>
    </TTGlyph>
    <TTGlyph name="Eth" xMin="42" yMin="-6" xMax="679" yMax="715">
      <contour>
        <pt x="334" y="-6" on="1"/>
        <pt x="165" y="0" on="1"/>
        <pt x="47" y="-5" on="1"/>
        <pt x="42" y="45" on="1"/>
        <pt x="121" y="61" on="1"/>
        <pt x="130" y="120" on="0"/>
        <pt x="130" y="137" on="1"/>
        <pt x="130" y="337" on="1"/>
        <pt x="42" y="337" on="1"/>
        <pt x="42" y="380" on="1"/>
        <pt x="130" y="380" on="1"/>
        <pt x="130" y="568" on="1"/>
        <pt x="130" y="586" on="0"/>
        <pt x="121" y="644" on="1"/>
        <pt x="44" y="656" on="1"/>
        <pt x="49" y="710" on="1"/>
        <pt x="113" y="707" on="0"/>
        <pt x="147" y="705" on="1"/>
        <pt x="173" y="706" on="0"/>
        <pt x="297" y="715" on="0"/>
        <pt x="334" y="715" on="1"/>
        <pt x="499" y="715" on="0"/>
        <pt x="679" y="521" on="0"/>
        <pt x="679" y="190" on="0"/>
        <pt x="494" y="-6" on="0"/>
      </contour>
      <contour>
        <pt x="221" y="337" on="1"/>
        <pt x="221" y="167" on="1"/>
        <pt x="221" y="85" on="0"/>
        <pt x="228" y="57" on="1"/>
        <pt x="280" y="53" on="0"/>
        <pt x="335" y="53" on="1"/>
        <pt x="455" y="53" on="0"/>
        <pt x="580" y="221" on="0"/>
        <pt x="580" y="485" on="0"/>
        <pt x="455" y="655" on="0"/>
        <pt x="335" y="655" on="1"/>
        <pt x="270" y="655" on="0"/>
        <pt x="228" y="650" on="1"/>
        <pt x="221" y="584" on="0"/>
        <pt x="221" y="538" on="1"/>
        <pt x="221" y="380" on="1"/>
        <pt x="364" y="380" on="1"/>
        <pt x="359" y="337" on="1"/>
      </contour>
    </TTGlyph>
    <TTGlyph name="Etilde" xMin="42" yMin="-5" xMax="550" yMax="898">
      <contour>
        <pt x="165" y="705" on="1"/>
        <pt x="389" y="705" on="1"/>
        <pt x="503" y="715" on="1"/>
        <pt x="522" y="697" on="1"/>
        <pt x="529" y="561" on="1"/>
        <pt x="471" y="556" on="1"/>
        <pt x="468" y="580" on="0"/>
        <pt x="459" y="620" on="0"/>
        <pt x="440" y="644" on="1"/>
        <pt x="385" y="649" on="0"/>
        <pt x="359" y="649" on="1"/>
        <pt x="228" y="649" on="1"/>
        <pt x="221" y="575" on="0"/>
        <pt x="221" y="538" on="1"/>
        <pt x="221" y="396" on="1"/>
        <pt x="255" y="394" on="0"/>
        <pt x="264" y="394" on="1"/>
        <pt x="337" y="394" on="1"/>
        <pt x="397" y="403" on="1"/>
        <pt x="406" y="469" on="1"/>
        <pt x="452" y="464" on="1"/>
        <pt x="451" y="400" on="0"/>
        <pt x="451" y="380" on="1"/>
        <pt x="454" y="271" on="1"/>
        <pt x="406" y="265" on="1"/>
        <pt x="397" y="332" on="1"/>
        <pt x="337" y="338" on="0"/>
        <pt x="317" y="338" on="1"/>
        <pt x="264" y="338" on="1"/>
        <pt x="246" y="338" on="0"/>
        <pt x="221" y="335" on="1"/>
        <pt x="221" y="167" on="1"/>
        <pt x="221" y="124" on="0"/>
        <pt x="228" y="57" on="1"/>
        <pt x="372" y="57" on="1"/>
        <pt x="410" y="57" on="0"/>
        <pt x="459" y="66" on="1"/>
        <pt x="478" y="92" on="0"/>
        <pt x="481" y="107" on="0"/>
        <pt x="494" y="161" on="0"/>
        <pt x="495" y="170" on="1"/>
        <pt x="550" y="165" on="1"/>
        <pt x="535" y="14" on="1"/>
        <pt x="516" y="-4" on="1"/>
        <pt x="422" y="0" on="0"/>
        <pt x="402" y="0" on="1"/>
        <pt x="165" y="0" on="1"/>
        <pt x="47" y="-5" on="1"/>
        <pt x="42" y="45" on="1"/>
        <pt x="121" y="61" on="1"/>
        <pt x="130" y="120" on="0"/>
        <pt x="130" y="137" on="1"/>
        <pt x="130" y="568" on="1"/>
        <pt x="130" y="586" on="0"/>
        <pt x="121" y="644" on="1"/>
        <pt x="44" y="656" on="1"/>
        <pt x="49" y="710" on="1"/>
        <pt x="145" y="705" on="0"/>
      </contour>
      <contour>
        <pt x="446" y="833" on="0"/>
        <pt x="402" y="779" on="0"/>
        <pt x="364" y="779" on="0"/>
        <pt x="250" y="820" on="0"/>
        <pt x="234" y="820" on="1"/>
        <pt x="207" y="820" on="0"/>
        <pt x="184" y="780" on="1"/>
        <pt x="177" y="766" on="1"/>
        <pt x="141" y="787" on="1"/>
        <pt x="146" y="798" on="0"/>
        <pt x="162" y="832" on="0"/>
        <pt x="205" y="888" on="0"/>
        <pt x="243" y="888" on="0"/>
        <pt x="358" y="847" on="0"/>
        <pt x="374" y="847" on="1"/>
        <pt x="402" y="847" on="0"/>
        <pt x="424" y="885" on="1"/>
        <pt x="431" y="898" on="1"/>
        <pt x="467" y="877" on="1"/>
        <pt x="462" y="866" on="0"/>
      </contour>
    </TTGlyph>
    <TTGlyph name="Euro" xMin="45" yMin="-15" xMax="654" yMax="662">
      <contour>
        <pt x="141" y="323" on="1"/>
        <pt x="141" y="347" on="1"/>
        <pt x="47" y="343" on="1"/>
        <pt x="45" y="378" on="1"/>
        <pt x="144" y="382" on="1"/>
        <pt x="159" y="512" on="0"/>
        <pt x="313" y="662" on="0"/>
        <pt x="445" y="662" on="1"/>
        <pt x="515" y="662" on="0"/>
        <pt x="645" y="628" on="1"/>
        <pt x="634" y="480" on="1"/>
        <pt x="573" y="486" on="1"/>
        <pt x="573" y="531" on="1"/>
        <pt x="573" y="541" on="0"/>
        <pt x="563" y="581" on="1"/>
        <pt x="498" y="604" on="0"/>
        <pt x="446" y="604" on="1"/>
        <pt x="363" y="604" on="0"/>
        <pt x="264" y="485" on="0"/>
        <pt x="252" y="387" on="1"/>
        <pt x="455" y="396" on="1"/>
        <pt x="457" y="362" on="1"/>
        <pt x="248" y="352" on="1"/>
        <pt x="248" y="324" on="1"/>
        <pt x="248" y="308" on="0"/>
        <pt x="250" y="280" on="1"/>
        <pt x="460" y="290" on="1"/>
        <pt x="462" y="256" on="1"/>
        <pt x="254" y="246" on="1"/>
        <pt x="268" y="153" on="0"/>
        <pt x="367" y="43" on="0"/>
        <pt x="447" y="43" on="1"/>
        <pt x="506" y="43" on="0"/>
        <pt x="572" y="65" on="1"/>
        <pt x="585" y="108" on="0"/>
        <pt x="585" y="121" on="1"/>
        <pt x="587" y="168" on="1"/>
        <pt x="648" y="170" on="1"/>
        <pt x="654" y="19" on="1"/>
        <pt x="522" y="-15" on="0"/>
        <pt x="445" y="-15" on="1"/>
        <pt x="318" y="-15" on="0"/>
        <pt x="166" y="121" on="0"/>
        <pt x="147" y="241" on="1"/>
        <pt x="52" y="237" on="1"/>
        <pt x="50" y="272" on="1"/>
        <pt x="143" y="276" on="1"/>
        <pt x="141" y="291" on="0"/>
      </contour>
    </TTGlyph>
    <TTGlyph name="F" xMin="42" yMin="-5" xMax="529" yMax="715">
      <contour>
        <pt x="359" y="649" on="1"/>
        <pt x="228" y="649" on="1"/>
        <pt x="221" y="575" on="0"/>
        <pt x="221" y="538" on="1"/>
        <pt x="221" y="388" on="1"/>
        <pt x="255" y="386" on="0"/>
        <pt x="264" y="386" on="1"/>
        <pt x="337" y="386" on="1"/>
        <pt x="397" y="395" on="1"/>
        <pt x="406" y="461" on="1"/>
        <pt x="452" y="456" on="1"/>
        <pt x="451" y="392" on="0"/>
        <pt x="451" y="372" on="1"/>
        <pt x="454" y="263" on="1"/>
        <pt x="406" y="257" on="1"/>
        <pt x="397" y="324" on="1"/>
        <pt x="337" y="330" on="0"/>
        <pt x="317" y="330" on="1"/>
        <pt x="264" y="330" on="1"/>
        <pt x="246" y="330" on="0"/>
        <pt x="221" y="327" on="1"/>
        <pt x="221" y="167" on="1"/>
        <pt x="221" y="110" on="0"/>
        <pt x="228" y="61" on="1"/>
        <pt x="328" y="54" on="1"/>
        <pt x="321" y="-5" on="1"/>
        <pt x="245" y="0" on="0"/>
        <pt x="165" y="0" on="1"/>
        <pt x="47" y="-5" on="1"/>
        <pt x="42" y="45" on="1"/>
        <pt x="121" y="61" on="1"/>
        <pt x="130" y="120" on="0"/>
        <pt x="130" y="137" on="1"/>
        <pt x="130" y="568" on="1"/>
        <pt x="130" y="586" on="0"/>
        <pt x="121" y="644" on="1"/>
        <pt x="44" y="656" on="1"/>
        <pt x="49" y="710" on="1"/>
        <pt x="145" y="705" on="0"/>
        <pt x="165" y="705" on="1"/>
        <pt x="389" y="705" on="1"/>
        <pt x="503" y="715" on="1"/>
        <pt x="522" y="697" on="1"/>
        <pt x="529" y="561" on="1"/>
        <pt x="471" y="556" on="1"/>
        <pt x="468" y="580" on="0"/>
        <pt x="459" y="620" on="0"/>
        <pt x="440" y="644" on="1"/>
        <pt x="385" y="649" on="0"/>
      </contour>
    </TTGlyph>
    <TTGlyph name="G" xMin="42" yMin="-15" xMax="614" yMax="720">
      <contour>
        <pt x="376" y="720" on="1"/>
        <pt x="454" y="720" on="0"/>
        <pt x="596" y="686" on="1"/>
        <pt x="585" y="538" on="1"/>
        <pt x="527" y="544" on="1"/>
        <pt x="527" y="589" on="1"/>
        <pt x="527" y="598" on="0"/>
        <pt x="515" y="638" on="1"/>
        <pt x="434" y="662" on="0"/>
        <pt x="373" y="662" on="1"/>
        <pt x="261" y="662" on="0"/>
        <pt x="143" y="489" on="0"/>
        <pt x="143" y="216" on="0"/>
        <pt x="261" y="43" on="0"/>
        <pt x="373" y="43" on="1"/>
        <pt x="438" y="43" on="0"/>
        <pt x="513" y="63" on="1"/>
        <pt x="525" y="115" on="0"/>
        <pt x="525" y="128" on="1"/>
        <pt x="525" y="196" on="1"/>
        <pt x="515" y="267" on="1"/>
        <pt x="409" y="275" on="1"/>
        <pt x="414" y="333" on="1"/>
        <pt x="525" y="333" on="1"/>
        <pt x="596" y="336" on="1"/>
        <pt x="614" y="319" on="1"/>
        <pt x="605" y="216" on="0"/>
        <pt x="605" y="166" on="1"/>
        <pt x="605" y="19" on="1"/>
        <pt x="463" y="-15" on="0"/>
        <pt x="376" y="-15" on="1"/>
        <pt x="214" y="-15" on="0"/>
        <pt x="42" y="184" on="0"/>
        <pt x="42" y="520" on="0"/>
        <pt x="214" y="720" on="0"/>
      </contour>
    </TTGlyph>
    <TTGlyph name="Gbreve" xMin="42" yMin="-15" xMax="614" yMax="898">
      <contour>
        <pt x="376" y="720" on="1"/>
        <pt x="454" y="720" on="0"/>
        <pt x="596" y="686" on="1"/>
        <pt x="585" y="538" on="1"/>
        <pt x="527" y="544" on="1"/>
        <pt x="527" y="589" on="1"/>
        <pt x="527" y="598" on="0"/>
        <pt x="515" y="638" on="1"/>
        <pt x="434" y="662" on="0"/>
        <pt x="373" y="662" on="1"/>
        <pt x="261" y="662" on="0"/>
        <pt x="143" y="489" on="0"/>
        <pt x="143" y="216" on="0"/>
        <pt x="261" y="43" on="0"/>
        <pt x="373" y="43" on="1"/>
        <pt x="438" y="43" on="0"/>
        <pt x="513" y="63" on="1"/>
        <pt x="525" y="115" on="0"/>
        <pt x="525" y="128" on="1"/>
        <pt x="525" y="196" on="1"/>
        <pt x="515" y="267" on="1"/>
        <pt x="409" y="275" on="1"/>
        <pt x="414" y="333" on="1"/>
        <pt x="525" y="333" on="1"/>
        <pt x="596" y="336" on="1"/>
        <pt x="614" y="319" on="1"/>
        <pt x="605" y="216" on="0"/>
        <pt x="605" y="166" on="1"/>
        <pt x="605" y="19" on="1"/>
        <pt x="463" y="-15" on="0"/>
        <pt x="376" y="-15" on="1"/>
        <pt x="214" y="-15" on="0"/>
        <pt x="42" y="184" on="0"/>
        <pt x="42" y="520" on="0"/>
        <pt x="214" y="720" on="0"/>
      </contour>
      <contour>
        <pt x="463" y="898" on="1"/>
        <pt x="519" y="898" on="1"/>
        <pt x="519" y="830" on="0"/>
        <pt x="447" y="758" on="0"/>
        <pt x="313" y="758" on="0"/>
        <pt x="241" y="830" on="0"/>
        <pt x="241" y="898" on="1"/>
        <pt x="297" y="898" on="1"/>
        <pt x="297" y="860" on="0"/>
        <pt x="343" y="814" on="0"/>
        <pt x="417" y="814" on="0"/>
        <pt x="463" y="860" on="0"/>
      </contour>
    </TTGlyph>
    <TTGlyph name="Gcircumflex" xMin="42" yMin="-15" xMax="614" yMax="893">
      <contour>
        <pt x="376" y="720" on="1"/>
        <pt x="454" y="720" on="0"/>
        <pt x="596" y="686" on="1"/>
        <pt x="585" y="538" on="1"/>
        <pt x="527" y="544" on="1"/>
        <pt x="527" y="589" on="1"/>
        <pt x="527" y="598" on="0"/>
        <pt x="515" y="638" on="1"/>
        <pt x="434" y="662" on="0"/>
        <pt x="373" y="662" on="1"/>
        <pt x="261" y="662" on="0"/>
        <pt x="143" y="489" on="0"/>
        <pt x="143" y="216" on="0"/>
        <pt x="261" y="43" on="0"/>
        <pt x="373" y="43" on="1"/>
        <pt x="438" y="43" on="0"/>
        <pt x="513" y="63" on="1"/>
        <pt x="525" y="115" on="0"/>
        <pt x="525" y="128" on="1"/>
        <pt x="525" y="196" on="1"/>
        <pt x="515" y="267" on="1"/>
        <pt x="409" y="275" on="1"/>
        <pt x="414" y="333" on="1"/>
        <pt x="525" y="333" on="1"/>
        <pt x="596" y="336" on="1"/>
        <pt x="614" y="319" on="1"/>
        <pt x="605" y="216" on="0"/>
        <pt x="605" y="166" on="1"/>
        <pt x="605" y="19" on="1"/>
        <pt x="463" y="-15" on="0"/>
        <pt x="376" y="-15" on="1"/>
        <pt x="214" y="-15" on="0"/>
        <pt x="42" y="184" on="0"/>
        <pt x="42" y="520" on="0"/>
        <pt x="214" y="720" on="0"/>
      </contour>
      <contour>
        <pt x="380" y="893" on="1"/>
        <pt x="554" y="786" on="1"/>
        <pt x="531" y="747" on="1"/>
        <pt x="443" y="788" on="1"/>
        <pt x="380" y="813" on="1"/>
        <pt x="317" y="788" on="1"/>
        <pt x="229" y="747" on="1"/>
        <pt x="206" y="786" on="1"/>
      </contour>
    </TTGlyph>
    <TTGlyph name="Gcommaaccent" xMin="42" yMin="-259" xMax="614" yMax="720">
      <contour>
        <pt x="376" y="720" on="1"/>
        <pt x="454" y="720" on="0"/>
        <pt x="596" y="686" on="1"/>
        <pt x="585" y="538" on="1"/>
        <pt x="527" y="544" on="1"/>
        <pt x="527" y="589" on="1"/>
        <pt x="527" y="598" on="0"/>
        <pt x="515" y="638" on="1"/>
        <pt x="434" y="662" on="0"/>
        <pt x="373" y="662" on="1"/>
        <pt x="261" y="662" on="0"/>
        <pt x="143" y="489" on="0"/>
        <pt x="143" y="216" on="0"/>
        <pt x="261" y="43" on="0"/>
        <pt x="373" y="43" on="1"/>
        <pt x="438" y="43" on="0"/>
        <pt x="513" y="63" on="1"/>
        <pt x="525" y="115" on="0"/>
        <pt x="525" y="128" on="1"/>
        <pt x="525" y="196" on="1"/>
        <pt x="515" y="267" on="1"/>
        <pt x="409" y="275" on="1"/>
        <pt x="414" y="333" on="1"/>
        <pt x="525" y="333" on="1"/>
        <pt x="596" y="336" on="1"/>
        <pt x="614" y="319" on="1"/>
        <pt x="605" y="216" on="0"/>
        <pt x="605" y="166" on="1"/>
        <pt x="605" y="19" on="1"/>
        <pt x="463" y="-15" on="0"/>
        <pt x="376" y="-15" on="1"/>
        <pt x="214" y="-15" on="0"/>
        <pt x="42" y="184" on="0"/>
        <pt x="42" y="520" on="0"/>
        <pt x="214" y="720" on="0"/>
      </contour>
      <contour>
        <pt x="319" y="-116" on="1"/>
        <pt x="319" y="-89" on="0"/>
        <pt x="349" y="-58" on="0"/>
        <pt x="369" y="-58" on="1"/>
        <pt x="421" y="-58" on="0"/>
        <pt x="421" y="-124" on="1"/>
        <pt x="421" y="-148" on="0"/>
        <pt x="398" y="-216" on="0"/>
        <pt x="386" y="-238" on="1"/>
        <pt x="374" y="-259" on="1"/>
        <pt x="337" y="-247" on="1"/>
        <pt x="352" y="-194" on="0"/>
        <pt x="352" y="-168" on="1"/>
        <pt x="319" y="-155" on="0"/>
      </contour>
    </TTGlyph>
    <TTGlyph name="Gdieresis" xMin="42" yMin="-15" xMax="614" yMax="874">
      <contour>
        <pt x="376" y="720" on="1"/>
        <pt x="454" y="720" on="0"/>
        <pt x="596" y="686" on="1"/>
        <pt x="585" y="538" on="1"/>
        <pt x="527" y="544" on="1"/>
        <pt x="527" y="589" on="1"/>
        <pt x="527" y="598" on="0"/>
        <pt x="515" y="638" on="1"/>
        <pt x="434" y="662" on="0"/>
        <pt x="373" y="662" on="1"/>
        <pt x="261" y="662" on="0"/>
        <pt x="143" y="489" on="0"/>
        <pt x="143" y="216" on="0"/>
        <pt x="261" y="43" on="0"/>
        <pt x="373" y="43" on="1"/>
        <pt x="438" y="43" on="0"/>
        <pt x="513" y="63" on="1"/>
        <pt x="525" y="115" on="0"/>
        <pt x="525" y="128" on="1"/>
        <pt x="525" y="196" on="1"/>
        <pt x="515" y="267" on="1"/>
        <pt x="409" y="275" on="1"/>
        <pt x="414" y="333" on="1"/>
        <pt x="525" y="333" on="1"/>
        <pt x="596" y="336" on="1"/>
        <pt x="614" y="319" on="1"/>
        <pt x="605" y="216" on="0"/>
        <pt x="605" y="166" on="1"/>
        <pt x="605" y="19" on="1"/>
        <pt x="463" y="-15" on="0"/>
        <pt x="376" y="-15" on="1"/>
        <pt x="214" y="-15" on="0"/>
        <pt x="42" y="184" on="0"/>
        <pt x="42" y="520" on="0"/>
        <pt x="214" y="720" on="0"/>
      </contour>
      <contour>
        <pt x="498" y="874" on="1"/>
        <pt x="552" y="874" on="0"/>
        <pt x="552" y="755" on="0"/>
        <pt x="444" y="755" on="0"/>
        <pt x="444" y="814" on="1"/>
        <pt x="444" y="842" on="0"/>
        <pt x="472" y="874" on="0"/>
      </contour>
      <contour>
        <pt x="262" y="874" on="1"/>
        <pt x="316" y="874" on="0"/>
        <pt x="316" y="755" on="0"/>
        <pt x="208" y="755" on="0"/>
        <pt x="208" y="814" on="1"/>
        <pt x="208" y="842" on="0"/>
        <pt x="236" y="874" on="0"/>
      </contour>
    </TTGlyph>
    <TTGlyph name="Gdotaccent" xMin="42" yMin="-15" xMax="614" yMax="890">
      <contour>
        <pt x="376" y="720" on="1"/>
        <pt x="454" y="720" on="0"/>
        <pt x="596" y="686" on="1"/>
        <pt x="585" y="538" on="1"/>
        <pt x="527" y="544" on="1"/>
        <pt x="527" y="589" on="1"/>
        <pt x="527" y="598" on="0"/>
        <pt x="515" y="638" on="1"/>
        <pt x="434" y="662" on="0"/>
        <pt x="373" y="662" on="1"/>
        <pt x="261" y="662" on="0"/>
        <pt x="143" y="489" on="0"/>
        <pt x="143" y="216" on="0"/>
        <pt x="261" y="43" on="0"/>
        <pt x="373" y="43" on="1"/>
        <pt x="438" y="43" on="0"/>
        <pt x="513" y="63" on="1"/>
        <pt x="525" y="115" on="0"/>
        <pt x="525" y="128" on="1"/>
        <pt x="525" y="196" on="1"/>
        <pt x="515" y="267" on="1"/>
        <pt x="409" y="275" on="1"/>
        <pt x="414" y="333" on="1"/>
        <pt x="525" y="333" on="1"/>
        <pt x="596" y="336" on="1"/>
        <pt x="614" y="319" on="1"/>
        <pt x="605" y="216" on="0"/>
        <pt x="605" y="166" on="1"/>
        <pt x="605" y="19" on="1"/>
        <pt x="463" y="-15" on="0"/>
        <pt x="376" y="-15" on="1"/>
        <pt x="214" y="-15" on="0"/>
        <pt x="42" y="184" on="0"/>
        <pt x="42" y="520" on="0"/>
        <pt x="214" y="720" on="0"/>
      </contour>
      <contour>
        <pt x="352" y="890" on="0"/>
        <pt x="408" y="890" on="0"/>
        <pt x="439" y="856" on="0"/>
        <pt x="439" y="796" on="0"/>
        <pt x="408" y="761" on="0"/>
        <pt x="352" y="761" on="0"/>
        <pt x="321" y="796" on="0"/>
        <pt x="321" y="854" on="0"/>
      </contour>
    </TTGlyph>
    <TTGlyph name="Gtilde" xMin="42" yMin="-15" xMax="614" yMax="872">
      <contour>
        <pt x="376" y="720" on="1"/>
        <pt x="454" y="720" on="0"/>
        <pt x="596" y="686" on="1"/>
        <pt x="585" y="538" on="1"/>
        <pt x="527" y="544" on="1"/>
        <pt x="527" y="589" on="1"/>
        <pt x="527" y="598" on="0"/>
        <pt x="515" y="638" on="1"/>
        <pt x="434" y="662" on="0"/>
        <pt x="373" y="662" on="1"/>
        <pt x="261" y="662" on="0"/>
        <pt x="143" y="489" on="0"/>
        <pt x="143" y="216" on="0"/>
        <pt x="261" y="43" on="0"/>
        <pt x="373" y="43" on="1"/>
        <pt x="438" y="43" on="0"/>
        <pt x="513" y="63" on="1"/>
        <pt x="525" y="115" on="0"/>
        <pt x="525" y="128" on="1"/>
        <pt x="525" y="196" on="1"/>
        <pt x="515" y="267" on="1"/>
        <pt x="409" y="275" on="1"/>
        <pt x="414" y="333" on="1"/>
        <pt x="525" y="333" on="1"/>
        <pt x="596" y="336" on="1"/>
        <pt x="614" y="319" on="1"/>
        <pt x="605" y="216" on="0"/>
        <pt x="605" y="166" on="1"/>
        <pt x="605" y="19" on="1"/>
        <pt x="463" y="-15" on="0"/>
        <pt x="376" y="-15" on="1"/>
        <pt x="214" y="-15" on="0"/>
        <pt x="42" y="184" on="0"/>
        <pt x="42" y="520" on="0"/>
        <pt x="214" y="720" on="0"/>
      </contour>
      <contour>
        <pt x="527" y="807" on="0"/>
        <pt x="483" y="753" on="0"/>
        <pt x="445" y="753" on="0"/>
        <pt x="321" y="794" on="0"/>
        <pt x="289" y="794" on="0"/>
        <pt x="262" y="767" on="0"/>
        <pt x="255" y="754" on="1"/>
        <pt x="248" y="740" on="1"/>
        <pt x="212" y="761" on="1"/>
        <pt x="217" y="772" on="0"/>
        <pt x="233" y="806" on="0"/>
        <pt x="276" y="862" on="0"/>
        <pt x="314" y="862" on="0"/>
        <pt x="439" y="821" on="0"/>
        <pt x="471" y="821" on="0"/>
        <pt x="498" y="846" on="0"/>
        <pt x="505" y="859" on="1"/>
        <pt x="512" y="872" on="1"/>
        <pt x="548" y="851" on="1"/>
        <pt x="543" y="840" on="0"/>
      </contour>
    </TTGlyph>
    <TTGlyph name="H" xMin="42" yMin="-5" xMax="740" yMax="710">
      <contour>
        <pt x="643" y="538" on="1"/>
        <pt x="643" y="167" on="1"/>
        <pt x="643" y="110" on="0"/>
        <pt x="650" y="61" on="1"/>
        <pt x="740" y="54" on="1"/>
        <pt x="733" y="-5" on="1"/>
        <pt x="667" y="0" on="0"/>
        <pt x="587" y="0" on="1"/>
        <pt x="469" y="-5" on="1"/>
        <pt x="464" y="45" on="1"/>
        <pt x="543" y="61" on="1"/>
        <pt x="552" y="119" on="0"/>
        <pt x="552" y="137" on="1"/>
        <pt x="552" y="327" on="1"/>
        <pt x="221" y="327" on="1"/>
        <pt x="221" y="167" on="1"/>
        <pt x="221" y="110" on="0"/>
        <pt x="228" y="61" on="1"/>
        <pt x="318" y="54" on="1"/>
        <pt x="311" y="-5" on="1"/>
        <pt x="245" y="0" on="0"/>
        <pt x="165" y="0" on="1"/>
        <pt x="47" y="-5" on="1"/>
        <pt x="42" y="45" on="1"/>
        <pt x="121" y="61" on="1"/>
        <pt x="130" y="120" on="0"/>
        <pt x="130" y="137" on="1"/>
        <pt x="130" y="568" on="1"/>
        <pt x="130" y="586" on="0"/>
        <pt x="121" y="644" on="1"/>
        <pt x="44" y="656" on="1"/>
        <pt x="49" y="710" on="1"/>
        <pt x="145" y="705" on="0"/>
        <pt x="165" y="705" on="1"/>
        <pt x="302" y="710" on="1"/>
        <pt x="306" y="651" on="1"/>
        <pt x="228" y="644" on="1"/>
        <pt x="221" y="595" on="0"/>
        <pt x="221" y="538" on="1"/>
        <pt x="221" y="378" on="1"/>
        <pt x="552" y="383" on="1"/>
        <pt x="552" y="568" on="1"/>
        <pt x="552" y="586" on="0"/>
        <pt x="543" y="644" on="1"/>
        <pt x="466" y="656" on="1"/>
        <pt x="471" y="710" on="1"/>
        <pt x="567" y="705" on="0"/>
        <pt x="587" y="705" on="1"/>
        <pt x="724" y="710" on="1"/>
        <pt x="728" y="651" on="1"/>
        <pt x="650" y="644" on="1"/>
        <pt x="643" y="595" on="0"/>
      </contour>
    </TTGlyph>
    <TTGlyph name="Hbar" xMin="42" yMin="-5" xMax="747" yMax="710">
      <contour>
        <pt x="643" y="543" on="1"/>
        <pt x="747" y="543" on="1"/>
        <pt x="747" y="499" on="1"/>
        <pt x="643" y="499" on="1"/>
        <pt x="643" y="167" on="1"/>
        <pt x="643" y="110" on="0"/>
        <pt x="650" y="61" on="1"/>
        <pt x="740" y="54" on="1"/>
        <pt x="733" y="-5" on="1"/>
        <pt x="667" y="0" on="0"/>
        <pt x="587" y="0" on="1"/>
        <pt x="469" y="-5" on="1"/>
        <pt x="464" y="45" on="1"/>
        <pt x="543" y="61" on="1"/>
        <pt x="552" y="119" on="0"/>
        <pt x="552" y="137" on="1"/>
        <pt x="552" y="327" on="1"/>
        <pt x="221" y="327" on="1"/>
        <pt x="221" y="167" on="1"/>
        <pt x="221" y="110" on="0"/>
        <pt x="228" y="61" on="1"/>
        <pt x="318" y="54" on="1"/>
        <pt x="311" y="-5" on="1"/>
        <pt x="245" y="0" on="0"/>
        <pt x="165" y="0" on="1"/>
        <pt x="47" y="-5" on="1"/>
        <pt x="42" y="45" on="1"/>
        <pt x="121" y="61" on="1"/>
        <pt x="130" y="120" on="0"/>
        <pt x="130" y="137" on="1"/>
        <pt x="130" y="499" on="1"/>
        <pt x="43" y="499" on="1"/>
        <pt x="43" y="543" on="1"/>
        <pt x="130" y="543" on="1"/>
        <pt x="130" y="568" on="1"/>
        <pt x="130" y="586" on="0"/>
        <pt x="121" y="644" on="1"/>
        <pt x="44" y="656" on="1"/>
        <pt x="49" y="710" on="1"/>
        <pt x="145" y="705" on="0"/>
        <pt x="165" y="705" on="1"/>
        <pt x="302" y="710" on="1"/>
        <pt x="306" y="651" on="1"/>
        <pt x="228" y="644" on="1"/>
        <pt x="221" y="595" on="0"/>
        <pt x="221" y="543" on="1"/>
        <pt x="552" y="543" on="1"/>
        <pt x="552" y="568" on="1"/>
        <pt x="552" y="586" on="0"/>
        <pt x="543" y="644" on="1"/>
        <pt x="466" y="656" on="1"/>
        <pt x="471" y="710" on="1"/>
        <pt x="567" y="705" on="0"/>
        <pt x="587" y="705" on="1"/>
        <pt x="724" y="710" on="1"/>
        <pt x="728" y="651" on="1"/>
        <pt x="650" y="644" on="1"/>
        <pt x="643" y="595" on="0"/>
      </contour>
      <contour>
        <pt x="552" y="499" on="1"/>
        <pt x="221" y="499" on="1"/>
        <pt x="221" y="378" on="1"/>
        <pt x="552" y="383" on="1"/>
      </contour>
    </TTGlyph>
    <TTGlyph name="Hcircumflex" xMin="42" yMin="-5" xMax="740" yMax="893">
      <contour>
        <pt x="643" y="538" on="1"/>
        <pt x="643" y="167" on="1"/>
        <pt x="643" y="110" on="0"/>
        <pt x="650" y="61" on="1"/>
        <pt x="740" y="54" on="1"/>
        <pt x="733" y="-5" on="1"/>
        <pt x="667" y="0" on="0"/>
        <pt x="587" y="0" on="1"/>
        <pt x="469" y="-5" on="1"/>
        <pt x="464" y="45" on="1"/>
        <pt x="543" y="61" on="1"/>
        <pt x="552" y="119" on="0"/>
        <pt x="552" y="137" on="1"/>
        <pt x="552" y="327" on="1"/>
        <pt x="221" y="327" on="1"/>
        <pt x="221" y="167" on="1"/>
        <pt x="221" y="110" on="0"/>
        <pt x="228" y="61" on="1"/>
        <pt x="318" y="54" on="1"/>
        <pt x="311" y="-5" on="1"/>
        <pt x="245" y="0" on="0"/>
        <pt x="165" y="0" on="1"/>
        <pt x="47" y="-5" on="1"/>
        <pt x="42" y="45" on="1"/>
        <pt x="121" y="61" on="1"/>
        <pt x="130" y="120" on="0"/>
        <pt x="130" y="137" on="1"/>
        <pt x="130" y="568" on="1"/>
        <pt x="130" y="586" on="0"/>
        <pt x="121" y="644" on="1"/>
        <pt x="44" y="656" on="1"/>
        <pt x="49" y="710" on="1"/>
        <pt x="145" y="705" on="0"/>
        <pt x="165" y="705" on="1"/>
        <pt x="302" y="710" on="1"/>
        <pt x="306" y="651" on="1"/>
        <pt x="228" y="644" on="1"/>
        <pt x="221" y="595" on="0"/>
        <pt x="221" y="538" on="1"/>
        <pt x="221" y="378" on="1"/>
        <pt x="552" y="383" on="1"/>
        <pt x="552" y="568" on="1"/>
        <pt x="552" y="586" on="0"/>
        <pt x="543" y="644" on="1"/>
        <pt x="466" y="656" on="1"/>
        <pt x="471" y="710" on="1"/>
        <pt x="567" y="705" on="0"/>
        <pt x="587" y="705" on="1"/>
        <pt x="724" y="710" on="1"/>
        <pt x="728" y="651" on="1"/>
        <pt x="650" y="644" on="1"/>
        <pt x="643" y="595" on="0"/>
      </contour>
      <contour>
        <pt x="387" y="893" on="1"/>
        <pt x="561" y="786" on="1"/>
        <pt x="538" y="747" on="1"/>
        <pt x="450" y="788" on="1"/>
        <pt x="387" y="813" on="1"/>
        <pt x="324" y="788" on="1"/>
        <pt x="236" y="747" on="1"/>
        <pt x="213" y="786" on="1"/>
      </contour>
    </TTGlyph>
    <TTGlyph name="I" xMin="48" yMin="-5" xMax="324" yMax="710">
      <contour>
        <pt x="227" y="538" on="1"/>
        <pt x="227" y="167" on="1"/>
        <pt x="227" y="110" on="0"/>
        <pt x="234" y="61" on="1"/>
        <pt x="324" y="54" on="1"/>
        <pt x="317" y="-5" on="1"/>
        <pt x="251" y="0" on="0"/>
        <pt x="171" y="0" on="1"/>
        <pt x="53" y="-5" on="1"/>
        <pt x="48" y="45" on="1"/>
        <pt x="127" y="61" on="1"/>
        <pt x="136" y="120" on="0"/>
        <pt x="136" y="137" on="1"/>
        <pt x="136" y="568" on="1"/>
        <pt x="136" y="586" on="0"/>
        <pt x="127" y="644" on="1"/>
        <pt x="50" y="656" on="1"/>
        <pt x="55" y="710" on="1"/>
        <pt x="151" y="705" on="0"/>
        <pt x="171" y="705" on="1"/>
        <pt x="308" y="710" on="1"/>
        <pt x="312" y="651" on="1"/>
        <pt x="234" y="644" on="1"/>
        <pt x="227" y="595" on="0"/>
      </contour>
    </TTGlyph>
    <TTGlyph name="IJ" xMin="48" yMin="-200" xMax="585" yMax="710">
      <contour>
        <pt x="500" y="538" on="1"/>
        <pt x="500" y="-10" on="1"/>
        <pt x="500" y="-37" on="0"/>
        <pt x="363" y="-200" on="1"/>
        <pt x="329" y="-178" on="1"/>
        <pt x="409" y="-9" on="0"/>
        <pt x="409" y="11" on="1"/>
        <pt x="409" y="568" on="1"/>
        <pt x="409" y="586" on="0"/>
        <pt x="400" y="644" on="1"/>
        <pt x="317" y="656" on="1"/>
        <pt x="234" y="644" on="1"/>
        <pt x="227" y="595" on="0"/>
        <pt x="227" y="538" on="1"/>
        <pt x="227" y="167" on="1"/>
        <pt x="227" y="110" on="0"/>
        <pt x="234" y="61" on="1"/>
        <pt x="324" y="54" on="1"/>
        <pt x="317" y="-5" on="1"/>
        <pt x="251" y="0" on="0"/>
        <pt x="171" y="0" on="1"/>
        <pt x="53" y="-5" on="1"/>
        <pt x="48" y="45" on="1"/>
        <pt x="127" y="61" on="1"/>
        <pt x="136" y="120" on="0"/>
        <pt x="136" y="137" on="1"/>
        <pt x="136" y="568" on="1"/>
        <pt x="136" y="586" on="0"/>
        <pt x="127" y="644" on="1"/>
        <pt x="50" y="656" on="1"/>
        <pt x="55" y="710" on="1"/>
        <pt x="151" y="705" on="0"/>
        <pt x="171" y="705" on="1"/>
        <pt x="444" y="705" on="1"/>
        <pt x="581" y="710" on="1"/>
        <pt x="585" y="651" on="1"/>
        <pt x="507" y="644" on="1"/>
        <pt x="500" y="595" on="0"/>
      </contour>
    </TTGlyph>
    <TTGlyph name="Iacute" xMin="48" yMin="-5" xMax="331" yMax="898">
      <contour>
        <pt x="227" y="538" on="1"/>
        <pt x="227" y="167" on="1"/>
        <pt x="227" y="110" on="0"/>
        <pt x="234" y="61" on="1"/>
        <pt x="324" y="54" on="1"/>
        <pt x="317" y="-5" on="1"/>
        <pt x="251" y="0" on="0"/>
        <pt x="171" y="0" on="1"/>
        <pt x="53" y="-5" on="1"/>
        <pt x="48" y="45" on="1"/>
        <pt x="127" y="61" on="1"/>
        <pt x="136" y="120" on="0"/>
        <pt x="136" y="137" on="1"/>
        <pt x="136" y="568" on="1"/>
        <pt x="136" y="586" on="0"/>
        <pt x="127" y="644" on="1"/>
        <pt x="50" y="656" on="1"/>
        <pt x="55" y="710" on="1"/>
        <pt x="151" y="705" on="0"/>
        <pt x="171" y="705" on="1"/>
        <pt x="308" y="710" on="1"/>
        <pt x="312" y="651" on="1"/>
        <pt x="234" y="644" on="1"/>
        <pt x="227" y="595" on="0"/>
      </contour>
      <contour>
        <pt x="301" y="898" on="1"/>
        <pt x="331" y="825" on="1"/>
        <pt x="199" y="793" on="0"/>
        <pt x="180" y="787" on="1"/>
        <pt x="92" y="750" on="1"/>
        <pt x="72" y="798" on="1"/>
      </contour>
    </TTGlyph>
    <TTGlyph name="Ibreve" xMin="43" yMin="-5" xMax="324" yMax="898">
      <contour>
        <pt x="227" y="538" on="1"/>
        <pt x="227" y="167" on="1"/>
        <pt x="227" y="110" on="0"/>
        <pt x="234" y="61" on="1"/>
        <pt x="324" y="54" on="1"/>
        <pt x="317" y="-5" on="1"/>
        <pt x="251" y="0" on="0"/>
        <pt x="171" y="0" on="1"/>
        <pt x="53" y="-5" on="1"/>
        <pt x="48" y="45" on="1"/>
        <pt x="127" y="61" on="1"/>
        <pt x="136" y="120" on="0"/>
        <pt x="136" y="137" on="1"/>
        <pt x="136" y="568" on="1"/>
        <pt x="136" y="586" on="0"/>
        <pt x="127" y="644" on="1"/>
        <pt x="50" y="656" on="1"/>
        <pt x="55" y="710" on="1"/>
        <pt x="151" y="705" on="0"/>
        <pt x="171" y="705" on="1"/>
        <pt x="308" y="710" on="1"/>
        <pt x="312" y="651" on="1"/>
        <pt x="234" y="644" on="1"/>
        <pt x="227" y="595" on="0"/>
      </contour>
      <contour>
        <pt x="265" y="898" on="1"/>
        <pt x="321" y="898" on="1"/>
        <pt x="321" y="830" on="0"/>
        <pt x="249" y="758" on="0"/>
        <pt x="115" y="758" on="0"/>
        <pt x="43" y="830" on="0"/>
        <pt x="43" y="898" on="1"/>
        <pt x="99" y="898" on="1"/>
        <pt x="99" y="860" on="0"/>
        <pt x="145" y="814" on="0"/>
        <pt x="219" y="814" on="0"/>
        <pt x="265" y="860" on="0"/>
      </contour>
    </TTGlyph>
    <TTGlyph name="Icircumflex" xMin="8" yMin="-5" xMax="356" yMax="893">
      <contour>
        <pt x="227" y="538" on="1"/>
        <pt x="227" y="167" on="1"/>
        <pt x="227" y="110" on="0"/>
        <pt x="234" y="61" on="1"/>
        <pt x="324" y="54" on="1"/>
        <pt x="317" y="-5" on="1"/>
        <pt x="251" y="0" on="0"/>
        <pt x="171" y="0" on="1"/>
        <pt x="53" y="-5" on="1"/>
        <pt x="48" y="45" on="1"/>
        <pt x="127" y="61" on="1"/>
        <pt x="136" y="120" on="0"/>
        <pt x="136" y="137" on="1"/>
        <pt x="136" y="568" on="1"/>
        <pt x="136" y="586" on="0"/>
        <pt x="127" y="644" on="1"/>
        <pt x="50" y="656" on="1"/>
        <pt x="55" y="710" on="1"/>
        <pt x="151" y="705" on="0"/>
        <pt x="171" y="705" on="1"/>
        <pt x="308" y="710" on="1"/>
        <pt x="312" y="651" on="1"/>
        <pt x="234" y="644" on="1"/>
        <pt x="227" y="595" on="0"/>
      </contour>
      <contour>
        <pt x="182" y="893" on="1"/>
        <pt x="356" y="786" on="1"/>
        <pt x="333" y="747" on="1"/>
        <pt x="245" y="788" on="1"/>
        <pt x="182" y="813" on="1"/>
        <pt x="119" y="788" on="1"/>
        <pt x="31" y="747" on="1"/>
        <pt x="8" y="786" on="1"/>
      </contour>
    </TTGlyph>
    <TTGlyph name="Idieresis" xMin="40" yMin="-5" xMax="324" yMax="884">
      <contour>
        <pt x="270" y="884" on="1"/>
        <pt x="324" y="884" on="0"/>
        <pt x="324" y="765" on="0"/>
        <pt x="216" y="765" on="0"/>
        <pt x="216" y="824" on="1"/>
        <pt x="216" y="852" on="0"/>
        <pt x="244" y="884" on="0"/>
      </contour>
      <contour>
        <pt x="94" y="884" on="1"/>
        <pt x="148" y="884" on="0"/>
        <pt x="148" y="765" on="0"/>
        <pt x="40" y="765" on="0"/>
        <pt x="40" y="824" on="1"/>
        <pt x="40" y="852" on="0"/>
        <pt x="68" y="884" on="0"/>
      </contour>
      <contour>
        <pt x="227" y="538" on="1"/>
        <pt x="227" y="167" on="1"/>
        <pt x="227" y="110" on="0"/>
        <pt x="234" y="61" on="1"/>
        <pt x="324" y="54" on="1"/>
        <pt x="317" y="-5" on="1"/>
        <pt x="251" y="0" on="0"/>
        <pt x="171" y="0" on="1"/>
        <pt x="53" y="-5" on="1"/>
        <pt x="48" y="45" on="1"/>
        <pt x="127" y="61" on="1"/>
        <pt x="136" y="120" on="0"/>
        <pt x="136" y="137" on="1"/>
        <pt x="136" y="568" on="1"/>
        <pt x="136" y="586" on="0"/>
        <pt x="127" y="644" on="1"/>
        <pt x="50" y="656" on="1"/>
        <pt x="55" y="710" on="1"/>
        <pt x="151" y="705" on="0"/>
        <pt x="171" y="705" on="1"/>
        <pt x="308" y="710" on="1"/>
        <pt x="312" y="651" on="1"/>
        <pt x="234" y="644" on="1"/>
        <pt x="227" y="595" on="0"/>
      </contour>
    </TTGlyph>
    <TTGlyph name="Idotaccent" xMin="48" yMin="-5" xMax="324" yMax="890">
      <contour>
        <pt x="227" y="538" on="1"/>
        <pt x="227" y="167" on="1"/>
        <pt x="227" y="110" on="0"/>
        <pt x="234" y="61" on="1"/>
        <pt x="324" y="54" on="1"/>
        <pt x="317" y="-5" on="1"/>
        <pt x="251" y="0" on="0"/>
        <pt x="171" y="0" on="1"/>
        <pt x="53" y="-5" on="1"/>
        <pt x="48" y="45" on="1"/>
        <pt x="127" y="61" on="1"/>
        <pt x="136" y="120" on="0"/>
        <pt x="136" y="137" on="1"/>
        <pt x="136" y="568" on="1"/>
        <pt x="136" y="586" on="0"/>
        <pt x="127" y="644" on="1"/>
        <pt x="50" y="656" on="1"/>
        <pt x="55" y="710" on="1"/>
        <pt x="151" y="705" on="0"/>
        <pt x="171" y="705" on="1"/>
        <pt x="308" y="710" on="1"/>
        <pt x="312" y="651" on="1"/>
        <pt x="234" y="644" on="1"/>
        <pt x="227" y="595" on="0"/>
      </contour>
      <contour>
        <pt x="154" y="890" on="0"/>
        <pt x="210" y="890" on="0"/>
        <pt x="241" y="856" on="0"/>
        <pt x="241" y="796" on="0"/>
        <pt x="210" y="761" on="0"/>
        <pt x="154" y="761" on="0"/>
        <pt x="123" y="796" on="0"/>
        <pt x="123" y="854" on="0"/>
      </contour>
    </TTGlyph>
    <TTGlyph name="Igrave" xMin="32" yMin="-5" xMax="324" yMax="898">
      <contour>
        <pt x="227" y="538" on="1"/>
        <pt x="227" y="167" on="1"/>
        <pt x="227" y="110" on="0"/>
        <pt x="234" y="61" on="1"/>
        <pt x="324" y="54" on="1"/>
        <pt x="317" y="-5" on="1"/>
        <pt x="251" y="0" on="0"/>
        <pt x="171" y="0" on="1"/>
        <pt x="53" y="-5" on="1"/>
        <pt x="48" y="45" on="1"/>
        <pt x="127" y="61" on="1"/>
        <pt x="136" y="120" on="0"/>
        <pt x="136" y="137" on="1"/>
        <pt x="136" y="568" on="1"/>
        <pt x="136" y="586" on="0"/>
        <pt x="127" y="644" on="1"/>
        <pt x="50" y="656" on="1"/>
        <pt x="55" y="710" on="1"/>
        <pt x="151" y="705" on="0"/>
        <pt x="171" y="705" on="1"/>
        <pt x="308" y="710" on="1"/>
        <pt x="312" y="651" on="1"/>
        <pt x="234" y="644" on="1"/>
        <pt x="227" y="595" on="0"/>
      </contour>
      <contour>
        <pt x="32" y="825" on="1"/>
        <pt x="62" y="898" on="1"/>
        <pt x="291" y="798" on="1"/>
        <pt x="271" y="750" on="1"/>
        <pt x="183" y="787" on="1"/>
      </contour>
    </TTGlyph>
    <TTGlyph name="Imacron" xMin="21" yMin="-5" xMax="297" yMax="824">
      <contour>
        <pt x="26" y="771" on="1"/>
        <pt x="26" y="824" on="1"/>
        <pt x="284" y="824" on="1"/>
        <pt x="279" y="771" on="1"/>
      </contour>
      <contour>
        <pt x="200" y="538" on="1"/>
        <pt x="200" y="167" on="1"/>
        <pt x="200" y="110" on="0"/>
        <pt x="207" y="61" on="1"/>
        <pt x="297" y="54" on="1"/>
        <pt x="290" y="-5" on="1"/>
        <pt x="224" y="0" on="0"/>
        <pt x="144" y="0" on="1"/>
        <pt x="26" y="-5" on="1"/>
        <pt x="21" y="45" on="1"/>
        <pt x="100" y="61" on="1"/>
        <pt x="109" y="120" on="0"/>
        <pt x="109" y="137" on="1"/>
        <pt x="109" y="568" on="1"/>
        <pt x="109" y="586" on="0"/>
        <pt x="100" y="644" on="1"/>
        <pt x="23" y="656" on="1"/>
        <pt x="28" y="710" on="1"/>
        <pt x="124" y="705" on="0"/>
        <pt x="144" y="705" on="1"/>
        <pt x="281" y="710" on="1"/>
        <pt x="285" y="651" on="1"/>
        <pt x="207" y="644" on="1"/>
        <pt x="200" y="595" on="0"/>
      </contour>
    </TTGlyph>
    <TTGlyph name="Iogonek" xMin="25" yMin="-197" xMax="324" yMax="710">
      <contour>
        <pt x="136" y="568" on="1"/>
        <pt x="136" y="586" on="0"/>
        <pt x="127" y="644" on="1"/>
        <pt x="50" y="656" on="1"/>
        <pt x="55" y="710" on="1"/>
        <pt x="151" y="705" on="0"/>
        <pt x="171" y="705" on="1"/>
        <pt x="308" y="710" on="1"/>
        <pt x="312" y="651" on="1"/>
        <pt x="234" y="644" on="1"/>
        <pt x="227" y="595" on="0"/>
        <pt x="227" y="538" on="1"/>
        <pt x="227" y="167" on="1"/>
        <pt x="227" y="110" on="0"/>
        <pt x="234" y="61" on="1"/>
        <pt x="324" y="54" on="1"/>
        <pt x="317" y="-5" on="1"/>
        <pt x="260" y="0" on="0"/>
        <pt x="189" y="0" on="1"/>
        <pt x="144" y="-6" on="0"/>
        <pt x="89" y="-68" on="0"/>
        <pt x="89" y="-96" on="1"/>
        <pt x="89" y="-155" on="0"/>
        <pt x="145" y="-155" on="1"/>
        <pt x="168" y="-155" on="0"/>
        <pt x="200" y="-142" on="1"/>
        <pt x="214" y="-175" on="1"/>
        <pt x="167" y="-197" on="0"/>
        <pt x="81" y="-197" on="0"/>
        <pt x="25" y="-152" on="0"/>
        <pt x="25" y="-108" on="1"/>
        <pt x="25" y="-72" on="0"/>
        <pt x="58" y="-38" on="1"/>
        <pt x="67" y="-28" on="0"/>
        <pt x="72" y="-24" on="1"/>
        <pt x="90" y="-5" on="0"/>
        <pt x="125" y="30" on="0"/>
        <pt x="135" y="78" on="0"/>
        <pt x="136" y="137" on="1"/>
      </contour>
    </TTGlyph>
    <TTGlyph name="Itilde" xMin="14" yMin="-5" xMax="350" yMax="882">
      <contour>
        <pt x="227" y="538" on="1"/>
        <pt x="227" y="167" on="1"/>
        <pt x="227" y="110" on="0"/>
        <pt x="234" y="61" on="1"/>
        <pt x="324" y="54" on="1"/>
        <pt x="317" y="-5" on="1"/>
        <pt x="251" y="0" on="0"/>
        <pt x="171" y="0" on="1"/>
        <pt x="53" y="-5" on="1"/>
        <pt x="48" y="45" on="1"/>
        <pt x="127" y="61" on="1"/>
        <pt x="136" y="120" on="0"/>
        <pt x="136" y="137" on="1"/>
        <pt x="136" y="568" on="1"/>
        <pt x="136" y="586" on="0"/>
        <pt x="127" y="644" on="1"/>
        <pt x="50" y="656" on="1"/>
        <pt x="55" y="710" on="1"/>
        <pt x="151" y="705" on="0"/>
        <pt x="171" y="705" on="1"/>
        <pt x="308" y="710" on="1"/>
        <pt x="312" y="651" on="1"/>
        <pt x="234" y="644" on="1"/>
        <pt x="227" y="595" on="0"/>
      </contour>
      <contour>
        <pt x="329" y="817" on="0"/>
        <pt x="285" y="763" on="0"/>
        <pt x="247" y="763" on="0"/>
        <pt x="123" y="804" on="0"/>
        <pt x="107" y="804" on="1"/>
        <pt x="80" y="804" on="0"/>
        <pt x="58" y="764" on="1"/>
        <pt x="50" y="750" on="1"/>
        <pt x="14" y="771" on="1"/>
        <pt x="19" y="782" on="0"/>
        <pt x="35" y="816" on="0"/>
        <pt x="78" y="872" on="0"/>
        <pt x="116" y="872" on="0"/>
        <pt x="241" y="831" on="0"/>
        <pt x="257" y="831" on="1"/>
        <pt x="285" y="831" on="0"/>
        <pt x="306" y="869" on="1"/>
        <pt x="314" y="882" on="1"/>
        <pt x="350" y="861" on="1"/>
        <pt x="345" y="850" on="0"/>
      </contour>
    </TTGlyph>
    <TTGlyph name="J" xMin="40" yMin="-200" xMax="302" yMax="710">
      <contour>
        <pt x="217" y="538" on="1"/>
        <pt x="217" y="-10" on="1"/>
        <pt x="217" y="-37" on="0"/>
        <pt x="80" y="-200" on="1"/>
        <pt x="46" y="-178" on="1"/>
        <pt x="126" y="-9" on="0"/>
        <pt x="126" y="11" on="1"/>
        <pt x="126" y="568" on="1"/>
        <pt x="126" y="586" on="0"/>
        <pt x="117" y="644" on="1"/>
        <pt x="40" y="656" on="1"/>
        <pt x="45" y="710" on="1"/>
        <pt x="141" y="705" on="0"/>
        <pt x="161" y="705" on="1"/>
        <pt x="298" y="710" on="1"/>
        <pt x="302" y="651" on="1"/>
        <pt x="224" y="644" on="1"/>
        <pt x="217" y="595" on="0"/>
      </contour>
    </TTGlyph>
    <TTGlyph name="Jcircumflex" xMin="-8" yMin="-200" xMax="340" yMax="893">
      <contour>
        <pt x="217" y="538" on="1"/>
        <pt x="217" y="-10" on="1"/>
        <pt x="217" y="-37" on="0"/>
        <pt x="80" y="-200" on="1"/>
        <pt x="46" y="-178" on="1"/>
        <pt x="126" y="-9" on="0"/>
        <pt x="126" y="11" on="1"/>
        <pt x="126" y="568" on="1"/>
        <pt x="126" y="586" on="0"/>
        <pt x="117" y="644" on="1"/>
        <pt x="40" y="656" on="1"/>
        <pt x="45" y="710" on="1"/>
        <pt x="141" y="705" on="0"/>
        <pt x="161" y="705" on="1"/>
        <pt x="298" y="710" on="1"/>
        <pt x="302" y="651" on="1"/>
        <pt x="224" y="644" on="1"/>
        <pt x="217" y="595" on="0"/>
      </contour>
      <contour>
        <pt x="166" y="893" on="1"/>
        <pt x="340" y="786" on="1"/>
        <pt x="317" y="747" on="1"/>
        <pt x="229" y="788" on="1"/>
        <pt x="166" y="813" on="1"/>
        <pt x="103" y="788" on="1"/>
        <pt x="15" y="747" on="1"/>
        <pt x="-8" y="786" on="1"/>
      </contour>
    </TTGlyph>
    <TTGlyph name="K" xMin="42" yMin="-5" xMax="688" yMax="710">
      <contour>
        <pt x="688" y="54" on="1"/>
        <pt x="681" y="-5" on="1"/>
        <pt x="620" y="0" on="0"/>
        <pt x="540" y="0" on="1"/>
        <pt x="412" y="-5" on="1"/>
        <pt x="407" y="45" on="1"/>
        <pt x="466" y="59" on="1"/>
        <pt x="422" y="130" on="0"/>
        <pt x="396" y="164" on="1"/>
        <pt x="231" y="353" on="1"/>
        <pt x="413" y="577" on="1"/>
        <pt x="452" y="645" on="1"/>
        <pt x="398" y="656" on="1"/>
        <pt x="403" y="710" on="1"/>
        <pt x="489" y="705" on="0"/>
        <pt x="509" y="705" on="1"/>
        <pt x="636" y="710" on="1"/>
        <pt x="640" y="651" on="1"/>
        <pt x="564" y="644" on="1"/>
        <pt x="512" y="596" on="0"/>
        <pt x="462" y="546" on="1"/>
        <pt x="330" y="370" on="1"/>
        <pt x="354" y="342" on="0"/>
        <pt x="439" y="246" on="0"/>
        <pt x="510" y="164" on="0"/>
        <pt x="557" y="111" on="0"/>
        <pt x="618" y="61" on="1"/>
      </contour>
      <contour>
        <pt x="221" y="538" on="1"/>
        <pt x="221" y="167" on="1"/>
        <pt x="221" y="110" on="0"/>
        <pt x="228" y="61" on="1"/>
        <pt x="318" y="54" on="1"/>
        <pt x="311" y="-5" on="1"/>
        <pt x="245" y="0" on="0"/>
        <pt x="165" y="0" on="1"/>
        <pt x="47" y="-5" on="1"/>
        <pt x="42" y="45" on="1"/>
        <pt x="121" y="61" on="1"/>
        <pt x="130" y="120" on="0"/>
        <pt x="130" y="137" on="1"/>
        <pt x="130" y="568" on="1"/>
        <pt x="130" y="586" on="0"/>
        <pt x="121" y="644" on="1"/>
        <pt x="44" y="656" on="1"/>
        <pt x="49" y="710" on="1"/>
        <pt x="145" y="705" on="0"/>
        <pt x="165" y="705" on="1"/>
        <pt x="302" y="710" on="1"/>
        <pt x="306" y="651" on="1"/>
        <pt x="228" y="644" on="1"/>
        <pt x="221" y="595" on="0"/>
      </contour>
    </TTGlyph>
    <TTGlyph name="Kcommaaccent" xMin="42" yMin="-259" xMax="688" yMax="710">
      <contour>
        <pt x="688" y="54" on="1"/>
        <pt x="681" y="-5" on="1"/>
        <pt x="620" y="0" on="0"/>
        <pt x="540" y="0" on="1"/>
        <pt x="412" y="-5" on="1"/>
        <pt x="407" y="45" on="1"/>
        <pt x="466" y="59" on="1"/>
        <pt x="422" y="130" on="0"/>
        <pt x="396" y="164" on="1"/>
        <pt x="231" y="353" on="1"/>
        <pt x="413" y="577" on="1"/>
        <pt x="452" y="645" on="1"/>
        <pt x="398" y="656" on="1"/>
        <pt x="403" y="710" on="1"/>
        <pt x="489" y="705" on="0"/>
        <pt x="509" y="705" on="1"/>
        <pt x="636" y="710" on="1"/>
        <pt x="640" y="651" on="1"/>
        <pt x="564" y="644" on="1"/>
        <pt x="512" y="596" on="0"/>
        <pt x="462" y="546" on="1"/>
        <pt x="330" y="370" on="1"/>
        <pt x="354" y="342" on="0"/>
        <pt x="439" y="246" on="0"/>
        <pt x="510" y="164" on="0"/>
        <pt x="557" y="111" on="0"/>
        <pt x="618" y="61" on="1"/>
      </contour>
      <contour>
        <pt x="221" y="538" on="1"/>
        <pt x="221" y="167" on="1"/>
        <pt x="221" y="110" on="0"/>
        <pt x="228" y="61" on="1"/>
        <pt x="318" y="54" on="1"/>
        <pt x="311" y="-5" on="1"/>
        <pt x="245" y="0" on="0"/>
        <pt x="165" y="0" on="1"/>
        <pt x="47" y="-5" on="1"/>
        <pt x="42" y="45" on="1"/>
        <pt x="121" y="61" on="1"/>
        <pt x="130" y="120" on="0"/>
        <pt x="130" y="137" on="1"/>
        <pt x="130" y="568" on="1"/>
        <pt x="130" y="586" on="0"/>
        <pt x="121" y="644" on="1"/>
        <pt x="44" y="656" on="1"/>
        <pt x="49" y="710" on="1"/>
        <pt x="145" y="705" on="0"/>
        <pt x="165" y="705" on="1"/>
        <pt x="302" y="710" on="1"/>
        <pt x="306" y="651" on="1"/>
        <pt x="228" y="644" on="1"/>
        <pt x="221" y="595" on="0"/>
      </contour>
      <contour>
        <pt x="319" y="-116" on="1"/>
        <pt x="319" y="-89" on="0"/>
        <pt x="349" y="-58" on="0"/>
        <pt x="369" y="-58" on="1"/>
        <pt x="421" y="-58" on="0"/>
        <pt x="421" y="-124" on="1"/>
        <pt x="421" y="-148" on="0"/>
        <pt x="398" y="-216" on="0"/>
        <pt x="386" y="-238" on="1"/>
        <pt x="374" y="-259" on="1"/>
        <pt x="337" y="-247" on="1"/>
        <pt x="352" y="-194" on="0"/>
        <pt x="352" y="-168" on="1"/>
        <pt x="319" y="-155" on="0"/>
      </contour>
    </TTGlyph>
    <TTGlyph name="L" xMin="42" yMin="-5" xMax="524" yMax="710">
      <contour>
        <pt x="221" y="538" on="1"/>
        <pt x="221" y="167" on="1"/>
        <pt x="221" y="110" on="0"/>
        <pt x="228" y="57" on="1"/>
        <pt x="346" y="57" on="1"/>
        <pt x="384" y="57" on="0"/>
        <pt x="433" y="66" on="1"/>
        <pt x="453" y="94" on="0"/>
        <pt x="454" y="103" on="1"/>
        <pt x="466" y="150" on="0"/>
        <pt x="469" y="170" on="1"/>
        <pt x="524" y="165" on="1"/>
        <pt x="509" y="14" on="1"/>
        <pt x="490" y="-4" on="1"/>
        <pt x="396" y="0" on="0"/>
        <pt x="376" y="0" on="1"/>
        <pt x="165" y="0" on="1"/>
        <pt x="47" y="-5" on="1"/>
        <pt x="42" y="45" on="1"/>
        <pt x="121" y="61" on="1"/>
        <pt x="130" y="120" on="0"/>
        <pt x="130" y="137" on="1"/>
        <pt x="130" y="568" on="1"/>
        <pt x="130" y="586" on="0"/>
        <pt x="121" y="644" on="1"/>
        <pt x="44" y="656" on="1"/>
        <pt x="49" y="710" on="1"/>
        <pt x="145" y="705" on="0"/>
        <pt x="165" y="705" on="1"/>
        <pt x="302" y="710" on="1"/>
        <pt x="306" y="651" on="1"/>
        <pt x="228" y="644" on="1"/>
        <pt x="221" y="595" on="0"/>
      </contour>
    </TTGlyph>
    <TTGlyph name="Lacute" xMin="42" yMin="-5" xMax="524" yMax="898">
      <contour>
        <pt x="221" y="538" on="1"/>
        <pt x="221" y="167" on="1"/>
        <pt x="221" y="110" on="0"/>
        <pt x="228" y="57" on="1"/>
        <pt x="346" y="57" on="1"/>
        <pt x="384" y="57" on="0"/>
        <pt x="433" y="66" on="1"/>
        <pt x="453" y="94" on="0"/>
        <pt x="454" y="103" on="1"/>
        <pt x="466" y="150" on="0"/>
        <pt x="469" y="170" on="1"/>
        <pt x="524" y="165" on="1"/>
        <pt x="509" y="14" on="1"/>
        <pt x="490" y="-4" on="1"/>
        <pt x="396" y="0" on="0"/>
        <pt x="376" y="0" on="1"/>
        <pt x="165" y="0" on="1"/>
        <pt x="47" y="-5" on="1"/>
        <pt x="42" y="45" on="1"/>
        <pt x="121" y="61" on="1"/>
        <pt x="130" y="120" on="0"/>
        <pt x="130" y="137" on="1"/>
        <pt x="130" y="568" on="1"/>
        <pt x="130" y="586" on="0"/>
        <pt x="121" y="644" on="1"/>
        <pt x="44" y="656" on="1"/>
        <pt x="49" y="710" on="1"/>
        <pt x="145" y="705" on="0"/>
        <pt x="165" y="705" on="1"/>
        <pt x="302" y="710" on="1"/>
        <pt x="306" y="651" on="1"/>
        <pt x="228" y="644" on="1"/>
        <pt x="221" y="595" on="0"/>
      </contour>
      <contour>
        <pt x="297" y="898" on="1"/>
        <pt x="327" y="825" on="1"/>
        <pt x="195" y="793" on="0"/>
        <pt x="176" y="787" on="1"/>
        <pt x="88" y="750" on="1"/>
        <pt x="68" y="798" on="1"/>
      </contour>
    </TTGlyph>
    <TTGlyph name="Lcaron" xMin="42" yMin="-5" xMax="524" yMax="710">
      <contour>
        <pt x="348" y="607" on="1"/>
        <pt x="437" y="607" on="1"/>
        <pt x="424" y="364" on="1"/>
        <pt x="366" y="367" on="1"/>
        <pt x="367" y="461" on="1"/>
      </contour>
      <contour>
        <pt x="221" y="538" on="1"/>
        <pt x="221" y="167" on="1"/>
        <pt x="221" y="110" on="0"/>
        <pt x="228" y="57" on="1"/>
        <pt x="346" y="57" on="1"/>
        <pt x="384" y="57" on="0"/>
        <pt x="433" y="66" on="1"/>
        <pt x="453" y="94" on="0"/>
        <pt x="454" y="103" on="1"/>
        <pt x="466" y="150" on="0"/>
        <pt x="469" y="170" on="1"/>
        <pt x="524" y="165" on="1"/>
        <pt x="509" y="14" on="1"/>
        <pt x="490" y="-4" on="1"/>
        <pt x="396" y="0" on="0"/>
        <pt x="376" y="0" on="1"/>
        <pt x="165" y="0" on="1"/>
        <pt x="47" y="-5" on="1"/>
        <pt x="42" y="45" on="1"/>
        <pt x="121" y="61" on="1"/>
        <pt x="130" y="120" on="0"/>
        <pt x="130" y="137" on="1"/>
        <pt x="130" y="568" on="1"/>
        <pt x="130" y="586" on="0"/>
        <pt x="121" y="644" on="1"/>
        <pt x="44" y="656" on="1"/>
        <pt x="49" y="710" on="1"/>
        <pt x="145" y="705" on="0"/>
        <pt x="165" y="705" on="1"/>
        <pt x="302" y="710" on="1"/>
        <pt x="306" y="651" on="1"/>
        <pt x="228" y="644" on="1"/>
        <pt x="221" y="595" on="0"/>
      </contour>
    </TTGlyph>
    <TTGlyph name="Lcommaaccent" xMin="42" yMin="-259" xMax="524" yMax="710">
      <contour>
        <pt x="221" y="538" on="1"/>
        <pt x="221" y="167" on="1"/>
        <pt x="221" y="110" on="0"/>
        <pt x="228" y="57" on="1"/>
        <pt x="346" y="57" on="1"/>
        <pt x="384" y="57" on="0"/>
        <pt x="433" y="66" on="1"/>
        <pt x="453" y="94" on="0"/>
        <pt x="454" y="103" on="1"/>
        <pt x="466" y="150" on="0"/>
        <pt x="469" y="170" on="1"/>
        <pt x="524" y="165" on="1"/>
        <pt x="509" y="14" on="1"/>
        <pt x="490" y="-4" on="1"/>
        <pt x="396" y="0" on="0"/>
        <pt x="376" y="0" on="1"/>
        <pt x="165" y="0" on="1"/>
        <pt x="47" y="-5" on="1"/>
        <pt x="42" y="45" on="1"/>
        <pt x="121" y="61" on="1"/>
        <pt x="130" y="120" on="0"/>
        <pt x="130" y="137" on="1"/>
        <pt x="130" y="568" on="1"/>
        <pt x="130" y="586" on="0"/>
        <pt x="121" y="644" on="1"/>
        <pt x="44" y="656" on="1"/>
        <pt x="49" y="710" on="1"/>
        <pt x="145" y="705" on="0"/>
        <pt x="165" y="705" on="1"/>
        <pt x="302" y="710" on="1"/>
        <pt x="306" y="651" on="1"/>
        <pt x="228" y="644" on="1"/>
        <pt x="221" y="595" on="0"/>
      </contour>
      <contour>
        <pt x="239" y="-116" on="1"/>
        <pt x="239" y="-89" on="0"/>
        <pt x="269" y="-58" on="0"/>
        <pt x="289" y="-58" on="1"/>
        <pt x="341" y="-58" on="0"/>
        <pt x="341" y="-124" on="1"/>
        <pt x="341" y="-148" on="0"/>
        <pt x="318" y="-216" on="0"/>
        <pt x="306" y="-238" on="1"/>
        <pt x="294" y="-259" on="1"/>
        <pt x="257" y="-247" on="1"/>
        <pt x="272" y="-194" on="0"/>
        <pt x="272" y="-168" on="1"/>
        <pt x="239" y="-155" on="0"/>
      </contour>
    </TTGlyph>
    <TTGlyph name="Ldot" xMin="42" yMin="-5" xMax="524" yMax="710">
      <contour>
        <pt x="352" y="480" on="0"/>
        <pt x="412" y="480" on="0"/>
        <pt x="446" y="443" on="0"/>
        <pt x="446" y="379" on="0"/>
        <pt x="412" y="341" on="0"/>
        <pt x="352" y="341" on="0"/>
        <pt x="318" y="379" on="0"/>
        <pt x="318" y="441" on="0"/>
      </contour>
      <contour>
        <pt x="221" y="538" on="1"/>
        <pt x="221" y="167" on="1"/>
        <pt x="221" y="110" on="0"/>
        <pt x="228" y="57" on="1"/>
        <pt x="346" y="57" on="1"/>
        <pt x="384" y="57" on="0"/>
        <pt x="433" y="66" on="1"/>
        <pt x="453" y="94" on="0"/>
        <pt x="454" y="103" on="1"/>
        <pt x="466" y="150" on="0"/>
        <pt x="469" y="170" on="1"/>
        <pt x="524" y="165" on="1"/>
        <pt x="509" y="14" on="1"/>
        <pt x="490" y="-4" on="1"/>
        <pt x="396" y="0" on="0"/>
        <pt x="376" y="0" on="1"/>
        <pt x="165" y="0" on="1"/>
        <pt x="47" y="-5" on="1"/>
        <pt x="42" y="45" on="1"/>
        <pt x="121" y="61" on="1"/>
        <pt x="130" y="120" on="0"/>
        <pt x="130" y="137" on="1"/>
        <pt x="130" y="568" on="1"/>
        <pt x="130" y="586" on="0"/>
        <pt x="121" y="644" on="1"/>
        <pt x="44" y="656" on="1"/>
        <pt x="49" y="710" on="1"/>
        <pt x="145" y="705" on="0"/>
        <pt x="165" y="705" on="1"/>
        <pt x="302" y="710" on="1"/>
        <pt x="306" y="651" on="1"/>
        <pt x="228" y="644" on="1"/>
        <pt x="221" y="595" on="0"/>
      </contour>
    </TTGlyph>
    <TTGlyph name="Lslash" xMin="30" yMin="-5" xMax="524" yMax="710">
      <contour>
        <pt x="221" y="538" on="1"/>
        <pt x="221" y="449" on="1"/>
        <pt x="360" y="500" on="1"/>
        <pt x="375" y="459" on="1"/>
        <pt x="221" y="403" on="1"/>
        <pt x="221" y="167" on="1"/>
        <pt x="221" y="110" on="0"/>
        <pt x="228" y="57" on="1"/>
        <pt x="346" y="57" on="1"/>
        <pt x="384" y="57" on="0"/>
        <pt x="433" y="66" on="1"/>
        <pt x="453" y="94" on="0"/>
        <pt x="454" y="103" on="1"/>
        <pt x="466" y="150" on="0"/>
        <pt x="469" y="170" on="1"/>
        <pt x="524" y="165" on="1"/>
        <pt x="509" y="14" on="1"/>
        <pt x="490" y="-4" on="1"/>
        <pt x="396" y="0" on="0"/>
        <pt x="376" y="0" on="1"/>
        <pt x="165" y="0" on="1"/>
        <pt x="47" y="-5" on="1"/>
        <pt x="42" y="45" on="1"/>
        <pt x="121" y="61" on="1"/>
        <pt x="130" y="120" on="0"/>
        <pt x="130" y="137" on="1"/>
        <pt x="130" y="370" on="1"/>
        <pt x="45" y="339" on="1"/>
        <pt x="30" y="380" on="1"/>
        <pt x="130" y="416" on="1"/>
        <pt x="130" y="568" on="1"/>
        <pt x="130" y="586" on="0"/>
        <pt x="121" y="644" on="1"/>
        <pt x="44" y="656" on="1"/>
        <pt x="49" y="710" on="1"/>
        <pt x="145" y="705" on="0"/>
        <pt x="165" y="705" on="1"/>
        <pt x="302" y="710" on="1"/>
        <pt x="306" y="651" on="1"/>
        <pt x="228" y="644" on="1"/>
        <pt x="221" y="595" on="0"/>
      </contour>
    </TTGlyph>
    <TTGlyph name="M" xMin="27" yMin="-5" xMax="907" yMax="710">
      <contour>
        <pt x="674" y="705" on="1"/>
        <pt x="700" y="705" on="1"/>
        <pt x="855" y="710" on="1"/>
        <pt x="859" y="651" on="1"/>
        <pt x="779" y="644" on="1"/>
        <pt x="776" y="626" on="0"/>
        <pt x="776" y="569" on="1"/>
        <pt x="810" y="132" on="1"/>
        <pt x="811" y="125" on="0"/>
        <pt x="826" y="61" on="1"/>
        <pt x="907" y="54" on="1"/>
        <pt x="901" y="-5" on="1"/>
        <pt x="835" y="0" on="0"/>
        <pt x="755" y="0" on="1"/>
        <pt x="636" y="-5" on="1"/>
        <pt x="631" y="45" on="1"/>
        <pt x="709" y="61" on="1"/>
        <pt x="714" y="136" on="0"/>
        <pt x="714" y="162" on="1"/>
        <pt x="687" y="584" on="1"/>
        <pt x="468" y="0" on="1"/>
        <pt x="432" y="0" on="1"/>
        <pt x="213" y="584" on="1"/>
        <pt x="189" y="162" on="1"/>
        <pt x="189" y="141" on="0"/>
        <pt x="194" y="61" on="1"/>
        <pt x="275" y="54" on="1"/>
        <pt x="268" y="-5" on="1"/>
        <pt x="217" y="0" on="0"/>
        <pt x="139" y="0" on="1"/>
        <pt x="32" y="-5" on="1"/>
        <pt x="27" y="45" on="1"/>
        <pt x="105" y="61" on="1"/>
        <pt x="106" y="65" on="0"/>
        <pt x="110" y="80" on="1"/>
        <pt x="120" y="121" on="0"/>
        <pt x="122" y="132" on="1"/>
        <pt x="148" y="569" on="1"/>
        <pt x="148" y="616" on="0"/>
        <pt x="144" y="644" on="1"/>
        <pt x="62" y="656" on="1"/>
        <pt x="67" y="710" on="1"/>
        <pt x="205" y="706" on="1"/>
        <pt x="261" y="706" on="1"/>
        <pt x="280" y="685" on="1"/>
        <pt x="323" y="553" on="0"/>
        <pt x="332" y="529" on="1"/>
        <pt x="465" y="175" on="1"/>
        <pt x="601" y="537" on="1"/>
        <pt x="654" y="685" on="1"/>
      </contour>
    </TTGlyph>
    <TTGlyph name="N" xMin="41" yMin="-7" xMax="746" yMax="710">
      <contour>
        <pt x="652" y="528" on="1"/>
        <pt x="652" y="297" on="1"/>
        <pt x="651" y="-7" on="1"/>
        <pt x="591" y="-7" on="1"/>
        <pt x="197" y="556" on="1"/>
        <pt x="197" y="167" on="1"/>
        <pt x="197" y="110" on="0"/>
        <pt x="204" y="61" on="1"/>
        <pt x="285" y="54" on="1"/>
        <pt x="278" y="-5" on="1"/>
        <pt x="235" y="0" on="0"/>
        <pt x="155" y="0" on="1"/>
        <pt x="47" y="-5" on="1"/>
        <pt x="42" y="45" on="1"/>
        <pt x="121" y="61" on="1"/>
        <pt x="130" y="120" on="0"/>
        <pt x="130" y="137" on="1"/>
        <pt x="130" y="568" on="1"/>
        <pt x="130" y="576" on="0"/>
        <pt x="121" y="644" on="1"/>
        <pt x="41" y="656" on="1"/>
        <pt x="46" y="710" on="1"/>
        <pt x="142" y="705" on="0"/>
        <pt x="162" y="705" on="1"/>
        <pt x="206" y="706" on="1"/>
        <pt x="226" y="685" on="1"/>
        <pt x="308" y="552" on="0"/>
        <pt x="323" y="530" on="1"/>
        <pt x="585" y="163" on="1"/>
        <pt x="585" y="558" on="1"/>
        <pt x="585" y="587" on="0"/>
        <pt x="576" y="641" on="1"/>
        <pt x="497" y="647" on="1"/>
        <pt x="503" y="707" on="1"/>
        <pt x="585" y="705" on="1"/>
        <pt x="741" y="710" on="1"/>
        <pt x="746" y="657" on="1"/>
        <pt x="667" y="641" on="1"/>
        <pt x="652" y="570" on="0"/>
      </contour>
    </TTGlyph>
    <TTGlyph name="Nacute" xMin="41" yMin="-7" xMax="746" yMax="898">
      <contour>
        <pt x="652" y="528" on="1"/>
        <pt x="652" y="297" on="1"/>
        <pt x="651" y="-7" on="1"/>
        <pt x="591" y="-7" on="1"/>
        <pt x="197" y="556" on="1"/>
        <pt x="197" y="167" on="1"/>
        <pt x="197" y="110" on="0"/>
        <pt x="204" y="61" on="1"/>
        <pt x="285" y="54" on="1"/>
        <pt x="278" y="-5" on="1"/>
        <pt x="235" y="0" on="0"/>
        <pt x="155" y="0" on="1"/>
        <pt x="47" y="-5" on="1"/>
        <pt x="42" y="45" on="1"/>
        <pt x="121" y="61" on="1"/>
        <pt x="130" y="120" on="0"/>
        <pt x="130" y="137" on="1"/>
        <pt x="130" y="568" on="1"/>
        <pt x="130" y="576" on="0"/>
        <pt x="121" y="644" on="1"/>
        <pt x="41" y="656" on="1"/>
        <pt x="46" y="710" on="1"/>
        <pt x="142" y="705" on="0"/>
        <pt x="162" y="705" on="1"/>
        <pt x="206" y="706" on="1"/>
        <pt x="226" y="685" on="1"/>
        <pt x="308" y="552" on="0"/>
        <pt x="323" y="530" on="1"/>
        <pt x="585" y="163" on="1"/>
        <pt x="585" y="558" on="1"/>
        <pt x="585" y="587" on="0"/>
        <pt x="576" y="641" on="1"/>
        <pt x="497" y="647" on="1"/>
        <pt x="503" y="707" on="1"/>
        <pt x="585" y="705" on="1"/>
        <pt x="741" y="710" on="1"/>
        <pt x="746" y="657" on="1"/>
        <pt x="667" y="641" on="1"/>
        <pt x="652" y="570" on="0"/>
      </contour>
      <contour>
        <pt x="500" y="898" on="1"/>
        <pt x="530" y="825" on="1"/>
        <pt x="398" y="793" on="0"/>
        <pt x="379" y="787" on="1"/>
        <pt x="291" y="750" on="1"/>
        <pt x="271" y="798" on="1"/>
      </contour>
    </TTGlyph>
    <TTGlyph name="Ncaron" xMin="41" yMin="-7" xMax="746" yMax="893">
      <contour>
        <pt x="652" y="528" on="1"/>
        <pt x="652" y="297" on="1"/>
        <pt x="651" y="-7" on="1"/>
        <pt x="591" y="-7" on="1"/>
        <pt x="197" y="556" on="1"/>
        <pt x="197" y="167" on="1"/>
        <pt x="197" y="110" on="0"/>
        <pt x="204" y="61" on="1"/>
        <pt x="285" y="54" on="1"/>
        <pt x="278" y="-5" on="1"/>
        <pt x="235" y="0" on="0"/>
        <pt x="155" y="0" on="1"/>
        <pt x="47" y="-5" on="1"/>
        <pt x="42" y="45" on="1"/>
        <pt x="121" y="61" on="1"/>
        <pt x="130" y="120" on="0"/>
        <pt x="130" y="137" on="1"/>
        <pt x="130" y="568" on="1"/>
        <pt x="130" y="576" on="0"/>
        <pt x="121" y="644" on="1"/>
        <pt x="41" y="656" on="1"/>
        <pt x="46" y="710" on="1"/>
        <pt x="142" y="705" on="0"/>
        <pt x="162" y="705" on="1"/>
        <pt x="206" y="706" on="1"/>
        <pt x="226" y="685" on="1"/>
        <pt x="308" y="552" on="0"/>
        <pt x="323" y="530" on="1"/>
        <pt x="585" y="163" on="1"/>
        <pt x="585" y="558" on="1"/>
        <pt x="585" y="587" on="0"/>
        <pt x="576" y="641" on="1"/>
        <pt x="497" y="647" on="1"/>
        <pt x="503" y="707" on="1"/>
        <pt x="585" y="705" on="1"/>
        <pt x="741" y="710" on="1"/>
        <pt x="746" y="657" on="1"/>
        <pt x="667" y="641" on="1"/>
        <pt x="652" y="570" on="0"/>
      </contour>
      <contour>
        <pt x="532" y="893" on="1"/>
        <pt x="555" y="854" on="1"/>
        <pt x="381" y="747" on="1"/>
        <pt x="207" y="854" on="1"/>
        <pt x="230" y="893" on="1"/>
        <pt x="318" y="852" on="1"/>
        <pt x="381" y="827" on="1"/>
        <pt x="444" y="852" on="1"/>
      </contour>
    </TTGlyph>
    <TTGlyph name="Ncommaaccent" xMin="41" yMin="-259" xMax="746" yMax="710">
      <contour>
        <pt x="652" y="528" on="1"/>
        <pt x="652" y="297" on="1"/>
        <pt x="651" y="-7" on="1"/>
        <pt x="591" y="-7" on="1"/>
        <pt x="197" y="556" on="1"/>
        <pt x="197" y="167" on="1"/>
        <pt x="197" y="110" on="0"/>
        <pt x="204" y="61" on="1"/>
        <pt x="285" y="54" on="1"/>
        <pt x="278" y="-5" on="1"/>
        <pt x="235" y="0" on="0"/>
        <pt x="155" y="0" on="1"/>
        <pt x="47" y="-5" on="1"/>
        <pt x="42" y="45" on="1"/>
        <pt x="121" y="61" on="1"/>
        <pt x="130" y="120" on="0"/>
        <pt x="130" y="137" on="1"/>
        <pt x="130" y="568" on="1"/>
        <pt x="130" y="576" on="0"/>
        <pt x="121" y="644" on="1"/>
        <pt x="41" y="656" on="1"/>
        <pt x="46" y="710" on="1"/>
        <pt x="142" y="705" on="0"/>
        <pt x="162" y="705" on="1"/>
        <pt x="206" y="706" on="1"/>
        <pt x="226" y="685" on="1"/>
        <pt x="308" y="552" on="0"/>
        <pt x="323" y="530" on="1"/>
        <pt x="585" y="163" on="1"/>
        <pt x="585" y="558" on="1"/>
        <pt x="585" y="587" on="0"/>
        <pt x="576" y="641" on="1"/>
        <pt x="497" y="647" on="1"/>
        <pt x="503" y="707" on="1"/>
        <pt x="585" y="705" on="1"/>
        <pt x="741" y="710" on="1"/>
        <pt x="746" y="657" on="1"/>
        <pt x="667" y="641" on="1"/>
        <pt x="652" y="570" on="0"/>
      </contour>
      <contour>
        <pt x="329" y="-116" on="1"/>
        <pt x="329" y="-89" on="0"/>
        <pt x="359" y="-58" on="0"/>
        <pt x="379" y="-58" on="1"/>
        <pt x="431" y="-58" on="0"/>
        <pt x="431" y="-124" on="1"/>
        <pt x="431" y="-148" on="0"/>
        <pt x="408" y="-216" on="0"/>
        <pt x="396" y="-238" on="1"/>
        <pt x="384" y="-259" on="1"/>
        <pt x="347" y="-247" on="1"/>
        <pt x="362" y="-194" on="0"/>
        <pt x="362" y="-168" on="1"/>
        <pt x="329" y="-155" on="0"/>
      </contour>
    </TTGlyph>
    <TTGlyph name="Ntilde" xMin="41" yMin="-7" xMax="746" yMax="882">
      <contour>
        <pt x="652" y="528" on="1"/>
        <pt x="652" y="297" on="1"/>
        <pt x="651" y="-7" on="1"/>
        <pt x="591" y="-7" on="1"/>
        <pt x="197" y="556" on="1"/>
        <pt x="197" y="167" on="1"/>
        <pt x="197" y="110" on="0"/>
        <pt x="204" y="61" on="1"/>
        <pt x="285" y="54" on="1"/>
        <pt x="278" y="-5" on="1"/>
        <pt x="235" y="0" on="0"/>
        <pt x="155" y="0" on="1"/>
        <pt x="47" y="-5" on="1"/>
        <pt x="42" y="45" on="1"/>
        <pt x="121" y="61" on="1"/>
        <pt x="130" y="120" on="0"/>
        <pt x="130" y="137" on="1"/>
        <pt x="130" y="568" on="1"/>
        <pt x="130" y="576" on="0"/>
        <pt x="121" y="644" on="1"/>
        <pt x="41" y="656" on="1"/>
        <pt x="46" y="710" on="1"/>
        <pt x="142" y="705" on="0"/>
        <pt x="162" y="705" on="1"/>
        <pt x="206" y="706" on="1"/>
        <pt x="226" y="685" on="1"/>
        <pt x="308" y="552" on="0"/>
        <pt x="323" y="530" on="1"/>
        <pt x="585" y="163" on="1"/>
        <pt x="585" y="558" on="1"/>
        <pt x="585" y="587" on="0"/>
        <pt x="576" y="641" on="1"/>
        <pt x="497" y="647" on="1"/>
        <pt x="503" y="707" on="1"/>
        <pt x="585" y="705" on="1"/>
        <pt x="741" y="710" on="1"/>
        <pt x="746" y="657" on="1"/>
        <pt x="667" y="641" on="1"/>
        <pt x="652" y="570" on="0"/>
      </contour>
      <contour>
        <pt x="528" y="817" on="0"/>
        <pt x="484" y="763" on="0"/>
        <pt x="446" y="763" on="0"/>
        <pt x="322" y="804" on="0"/>
        <pt x="306" y="804" on="1"/>
        <pt x="279" y="804" on="0"/>
        <pt x="256" y="764" on="1"/>
        <pt x="249" y="750" on="1"/>
        <pt x="213" y="771" on="1"/>
        <pt x="218" y="782" on="0"/>
        <pt x="234" y="816" on="0"/>
        <pt x="277" y="872" on="0"/>
        <pt x="315" y="872" on="0"/>
        <pt x="440" y="831" on="0"/>
        <pt x="456" y="831" on="1"/>
        <pt x="484" y="831" on="0"/>
        <pt x="506" y="869" on="1"/>
        <pt x="513" y="882" on="1"/>
        <pt x="549" y="861" on="1"/>
        <pt x="544" y="850" on="0"/>
      </contour>
    </TTGlyph>
    <TTGlyph name="O" xMin="42" yMin="-15" xMax="698" yMax="720">
      <contour>
        <pt x="698" y="520" on="0"/>
        <pt x="698" y="184" on="0"/>
        <pt x="529" y="-15" on="0"/>
        <pt x="211" y="-15" on="0"/>
        <pt x="42" y="184" on="0"/>
        <pt x="42" y="520" on="0"/>
        <pt x="211" y="720" on="0"/>
        <pt x="529" y="720" on="0"/>
      </contour>
      <contour>
        <pt x="149" y="490" on="0"/>
        <pt x="149" y="214" on="0"/>
        <pt x="263" y="38" on="0"/>
        <pt x="477" y="38" on="0"/>
        <pt x="591" y="214" on="0"/>
        <pt x="591" y="490" on="0"/>
        <pt x="477" y="667" on="0"/>
        <pt x="263" y="667" on="0"/>
      </contour>
    </TTGlyph>
    <TTGlyph name="OE" xMin="42" yMin="-15" xMax="943" yMax="720">
      <contour>
        <pt x="795" y="0" on="1"/>
        <pt x="558" y="0" on="1"/>
        <pt x="527" y="0" on="0"/>
        <pt x="467" y="-4" on="1"/>
        <pt x="420" y="-15" on="0"/>
        <pt x="370" y="-15" on="1"/>
        <pt x="211" y="-15" on="0"/>
        <pt x="42" y="184" on="0"/>
        <pt x="42" y="520" on="0"/>
        <pt x="211" y="720" on="0"/>
        <pt x="370" y="720" on="1"/>
        <pt x="420" y="720" on="0"/>
        <pt x="467" y="709" on="1"/>
        <pt x="527" y="705" on="0"/>
        <pt x="558" y="705" on="1"/>
        <pt x="782" y="705" on="1"/>
        <pt x="896" y="715" on="1"/>
        <pt x="915" y="697" on="1"/>
        <pt x="922" y="561" on="1"/>
        <pt x="864" y="556" on="1"/>
        <pt x="861" y="580" on="0"/>
        <pt x="852" y="620" on="0"/>
        <pt x="833" y="644" on="1"/>
        <pt x="778" y="649" on="0"/>
        <pt x="752" y="649" on="1"/>
        <pt x="621" y="649" on="1"/>
        <pt x="614" y="582" on="0"/>
        <pt x="614" y="538" on="1"/>
        <pt x="614" y="394" on="1"/>
        <pt x="648" y="392" on="0"/>
        <pt x="657" y="392" on="1"/>
        <pt x="730" y="392" on="1"/>
        <pt x="790" y="401" on="1"/>
        <pt x="799" y="467" on="1"/>
        <pt x="845" y="462" on="1"/>
        <pt x="844" y="402" on="0"/>
        <pt x="844" y="382" on="1"/>
        <pt x="847" y="273" on="1"/>
        <pt x="799" y="267" on="1"/>
        <pt x="790" y="334" on="1"/>
        <pt x="730" y="340" on="0"/>
        <pt x="710" y="340" on="1"/>
        <pt x="657" y="340" on="1"/>
        <pt x="640" y="340" on="0"/>
        <pt x="614" y="337" on="1"/>
        <pt x="614" y="167" on="1"/>
        <pt x="614" y="124" on="0"/>
        <pt x="621" y="57" on="1"/>
        <pt x="765" y="57" on="1"/>
        <pt x="802" y="57" on="0"/>
        <pt x="852" y="66" on="1"/>
        <pt x="871" y="92" on="0"/>
        <pt x="874" y="107" on="0"/>
        <pt x="887" y="161" on="0"/>
        <pt x="888" y="170" on="1"/>
        <pt x="943" y="165" on="1"/>
        <pt x="928" y="14" on="1"/>
        <pt x="909" y="-4" on="1"/>
        <pt x="815" y="0" on="0"/>
      </contour>
      <contour>
        <pt x="370" y="667" on="1"/>
        <pt x="263" y="667" on="0"/>
        <pt x="149" y="490" on="0"/>
        <pt x="149" y="214" on="0"/>
        <pt x="263" y="38" on="0"/>
        <pt x="466" y="38" on="0"/>
        <pt x="523" y="108" on="1"/>
        <pt x="523" y="595" on="1"/>
        <pt x="462" y="667" on="0"/>
      </contour>
    </TTGlyph>
    <TTGlyph name="Oacute" xMin="42" yMin="-15" xMax="698" yMax="898">
      <contour>
        <pt x="698" y="520" on="0"/>
        <pt x="698" y="184" on="0"/>
        <pt x="529" y="-15" on="0"/>
        <pt x="211" y="-15" on="0"/>
        <pt x="42" y="184" on="0"/>
        <pt x="42" y="520" on="0"/>
        <pt x="211" y="720" on="0"/>
        <pt x="529" y="720" on="0"/>
      </contour>
      <contour>
        <pt x="149" y="490" on="0"/>
        <pt x="149" y="214" on="0"/>
        <pt x="263" y="38" on="0"/>
        <pt x="477" y="38" on="0"/>
        <pt x="591" y="214" on="0"/>
        <pt x="591" y="490" on="0"/>
        <pt x="477" y="667" on="0"/>
        <pt x="263" y="667" on="0"/>
      </contour>
      <contour>
        <pt x="489" y="898" on="1"/>
        <pt x="519" y="825" on="1"/>
        <pt x="387" y="793" on="0"/>
        <pt x="368" y="787" on="1"/>
        <pt x="280" y="750" on="1"/>
        <pt x="260" y="798" on="1"/>
      </contour>
    </TTGlyph>
    <TTGlyph name="Obreve" xMin="42" yMin="-15" xMax="698" yMax="898">
      <contour>
        <pt x="698" y="520" on="0"/>
        <pt x="698" y="184" on="0"/>
        <pt x="529" y="-15" on="0"/>
        <pt x="211" y="-15" on="0"/>
        <pt x="42" y="184" on="0"/>
        <pt x="42" y="520" on="0"/>
        <pt x="211" y="720" on="0"/>
        <pt x="529" y="720" on="0"/>
      </contour>
      <contour>
        <pt x="149" y="490" on="0"/>
        <pt x="149" y="214" on="0"/>
        <pt x="263" y="38" on="0"/>
        <pt x="477" y="38" on="0"/>
        <pt x="591" y="214" on="0"/>
        <pt x="591" y="490" on="0"/>
        <pt x="477" y="667" on="0"/>
        <pt x="263" y="667" on="0"/>
      </contour>
      <contour>
        <pt x="453" y="898" on="1"/>
        <pt x="509" y="898" on="1"/>
        <pt x="509" y="830" on="0"/>
        <pt x="437" y="758" on="0"/>
        <pt x="303" y="758" on="0"/>
        <pt x="231" y="830" on="0"/>
        <pt x="231" y="898" on="1"/>
        <pt x="287" y="898" on="1"/>
        <pt x="287" y="860" on="0"/>
        <pt x="333" y="814" on="0"/>
        <pt x="407" y="814" on="0"/>
        <pt x="453" y="860" on="0"/>
      </contour>
    </TTGlyph>
    <TTGlyph name="Ocircumflex" xMin="42" yMin="-15" xMax="698" yMax="893">
      <contour>
        <pt x="698" y="520" on="0"/>
        <pt x="698" y="184" on="0"/>
        <pt x="529" y="-15" on="0"/>
        <pt x="211" y="-15" on="0"/>
        <pt x="42" y="184" on="0"/>
        <pt x="42" y="520" on="0"/>
        <pt x="211" y="720" on="0"/>
        <pt x="529" y="720" on="0"/>
      </contour>
      <contour>
        <pt x="149" y="490" on="0"/>
        <pt x="149" y="214" on="0"/>
        <pt x="263" y="38" on="0"/>
        <pt x="477" y="38" on="0"/>
        <pt x="591" y="214" on="0"/>
        <pt x="591" y="490" on="0"/>
        <pt x="477" y="667" on="0"/>
        <pt x="263" y="667" on="0"/>
      </contour>
      <contour>
        <pt x="370" y="893" on="1"/>
        <pt x="544" y="786" on="1"/>
        <pt x="521" y="747" on="1"/>
        <pt x="433" y="788" on="1"/>
        <pt x="370" y="813" on="1"/>
        <pt x="307" y="788" on="1"/>
        <pt x="219" y="747" on="1"/>
        <pt x="196" y="786" on="1"/>
      </contour>
    </TTGlyph>
    <TTGlyph name="Odieresis" xMin="42" yMin="-15" xMax="698" yMax="884">
      <contour>
        <pt x="698" y="520" on="0"/>
        <pt x="698" y="184" on="0"/>
        <pt x="529" y="-15" on="0"/>
        <pt x="211" y="-15" on="0"/>
        <pt x="42" y="184" on="0"/>
        <pt x="42" y="520" on="0"/>
        <pt x="211" y="720" on="0"/>
        <pt x="529" y="720" on="0"/>
      </contour>
      <contour>
        <pt x="149" y="490" on="0"/>
        <pt x="149" y="214" on="0"/>
        <pt x="263" y="38" on="0"/>
        <pt x="477" y="38" on="0"/>
        <pt x="591" y="214" on="0"/>
        <pt x="591" y="490" on="0"/>
        <pt x="477" y="667" on="0"/>
        <pt x="263" y="667" on="0"/>
      </contour>
      <contour>
        <pt x="488" y="884" on="1"/>
        <pt x="542" y="884" on="0"/>
        <pt x="542" y="765" on="0"/>
        <pt x="434" y="765" on="0"/>
        <pt x="434" y="824" on="1"/>
        <pt x="434" y="852" on="0"/>
        <pt x="462" y="884" on="0"/>
      </contour>
      <contour>
        <pt x="252" y="884" on="1"/>
        <pt x="306" y="884" on="0"/>
        <pt x="306" y="765" on="0"/>
        <pt x="198" y="765" on="0"/>
        <pt x="198" y="824" on="1"/>
        <pt x="198" y="852" on="0"/>
        <pt x="226" y="884" on="0"/>
      </contour>
    </TTGlyph>
    <TTGlyph name="Ograve" xMin="42" yMin="-15" xMax="698" yMax="898">
      <contour>
        <pt x="698" y="520" on="0"/>
        <pt x="698" y="184" on="0"/>
        <pt x="529" y="-15" on="0"/>
        <pt x="211" y="-15" on="0"/>
        <pt x="42" y="184" on="0"/>
        <pt x="42" y="520" on="0"/>
        <pt x="211" y="720" on="0"/>
        <pt x="529" y="720" on="0"/>
      </contour>
      <contour>
        <pt x="149" y="490" on="0"/>
        <pt x="149" y="214" on="0"/>
        <pt x="263" y="38" on="0"/>
        <pt x="477" y="38" on="0"/>
        <pt x="591" y="214" on="0"/>
        <pt x="591" y="490" on="0"/>
        <pt x="477" y="667" on="0"/>
        <pt x="263" y="667" on="0"/>
      </contour>
      <contour>
        <pt x="220" y="825" on="1"/>
        <pt x="250" y="898" on="1"/>
        <pt x="479" y="798" on="1"/>
        <pt x="459" y="750" on="1"/>
        <pt x="371" y="787" on="1"/>
      </contour>
    </TTGlyph>
    <TTGlyph name="Ohungarumlaut" xMin="42" yMin="-15" xMax="698" yMax="913">
      <contour>
        <pt x="698" y="520" on="0"/>
        <pt x="698" y="184" on="0"/>
        <pt x="529" y="-15" on="0"/>
        <pt x="211" y="-15" on="0"/>
        <pt x="42" y="184" on="0"/>
        <pt x="42" y="520" on="0"/>
        <pt x="211" y="720" on="0"/>
        <pt x="529" y="720" on="0"/>
      </contour>
      <contour>
        <pt x="149" y="490" on="0"/>
        <pt x="149" y="214" on="0"/>
        <pt x="263" y="38" on="0"/>
        <pt x="477" y="38" on="0"/>
        <pt x="591" y="214" on="0"/>
        <pt x="591" y="490" on="0"/>
        <pt x="477" y="667" on="0"/>
        <pt x="263" y="667" on="0"/>
      </contour>
      <contour>
        <pt x="398" y="913" on="1"/>
        <pt x="439" y="846" on="1"/>
        <pt x="315" y="793" on="0"/>
        <pt x="296" y="784" on="1"/>
        <pt x="214" y="734" on="1"/>
        <pt x="187" y="777" on="1"/>
      </contour>
      <contour>
        <pt x="612" y="913" on="1"/>
        <pt x="653" y="846" on="1"/>
        <pt x="529" y="793" on="0"/>
        <pt x="510" y="784" on="1"/>
        <pt x="429" y="734" on="1"/>
        <pt x="402" y="777" on="1"/>
      </contour>
    </TTGlyph>
    <TTGlyph name="Omacron" xMin="42" yMin="-15" xMax="698" yMax="824">
      <contour>
        <pt x="698" y="520" on="0"/>
        <pt x="698" y="184" on="0"/>
        <pt x="529" y="-15" on="0"/>
        <pt x="211" y="-15" on="0"/>
        <pt x="42" y="184" on="0"/>
        <pt x="42" y="520" on="0"/>
        <pt x="211" y="720" on="0"/>
        <pt x="529" y="720" on="0"/>
      </contour>
      <contour>
        <pt x="149" y="490" on="0"/>
        <pt x="149" y="214" on="0"/>
        <pt x="263" y="38" on="0"/>
        <pt x="477" y="38" on="0"/>
        <pt x="591" y="214" on="0"/>
        <pt x="591" y="490" on="0"/>
        <pt x="477" y="667" on="0"/>
        <pt x="263" y="667" on="0"/>
      </contour>
      <contour>
        <pt x="209" y="771" on="1"/>
        <pt x="209" y="824" on="1"/>
        <pt x="531" y="824" on="1"/>
        <pt x="526" y="771" on="1"/>
      </contour>
    </TTGlyph>
    <TTGlyph name="Omega" xMin="25" yMin="-4" xMax="769" yMax="720">
      <contour>
        <pt x="79" y="382" on="1"/>
        <pt x="79" y="538" on="0"/>
        <pt x="245" y="720" on="0"/>
        <pt x="549" y="720" on="0"/>
        <pt x="715" y="538" on="0"/>
        <pt x="715" y="382" on="1"/>
        <pt x="715" y="146" on="0"/>
        <pt x="514" y="66" on="1"/>
        <pt x="514" y="53" on="1"/>
        <pt x="591" y="57" on="1"/>
        <pt x="628" y="57" on="0"/>
        <pt x="678" y="66" on="1"/>
        <pt x="696" y="91" on="0"/>
        <pt x="699" y="103" on="1"/>
        <pt x="711" y="150" on="0"/>
        <pt x="714" y="170" on="1"/>
        <pt x="769" y="165" on="1"/>
        <pt x="754" y="7" on="1"/>
        <pt x="744" y="-4" on="1"/>
        <pt x="641" y="0" on="0"/>
        <pt x="621" y="0" on="1"/>
        <pt x="557" y="0" on="1"/>
        <pt x="463" y="-4" on="1"/>
        <pt x="453" y="93" on="1"/>
        <pt x="534" y="129" on="0"/>
        <pt x="608" y="269" on="0"/>
        <pt x="608" y="461" on="0"/>
        <pt x="567" y="585" on="0"/>
        <pt x="469" y="667" on="0"/>
        <pt x="325" y="667" on="0"/>
        <pt x="276" y="626" on="1"/>
        <pt x="186" y="551" on="0"/>
        <pt x="186" y="382" on="1"/>
        <pt x="186" y="269" on="0"/>
        <pt x="260" y="129" on="0"/>
        <pt x="341" y="93" on="1"/>
        <pt x="331" y="-4" on="1"/>
        <pt x="277" y="0" on="0"/>
        <pt x="237" y="0" on="1"/>
        <pt x="173" y="0" on="1"/>
        <pt x="50" y="-4" on="1"/>
        <pt x="40" y="7" on="1"/>
        <pt x="25" y="165" on="1"/>
        <pt x="80" y="170" on="1"/>
        <pt x="83" y="150" on="0"/>
        <pt x="95" y="103" on="1"/>
        <pt x="98" y="91" on="0"/>
        <pt x="116" y="66" on="1"/>
        <pt x="166" y="57" on="0"/>
        <pt x="203" y="57" on="1"/>
        <pt x="280" y="53" on="1"/>
        <pt x="280" y="66" on="1"/>
        <pt x="79" y="146" on="0"/>
      </contour>
    </TTGlyph>
    <TTGlyph name="Oslash" xMin="42" yMin="-136" xMax="698" yMax="838">
      <contour>
        <pt x="698" y="352" on="1"/>
        <pt x="698" y="184" on="0"/>
        <pt x="529" y="-15" on="0"/>
        <pt x="370" y="-15" on="1"/>
        <pt x="286" y="-15" on="0"/>
        <pt x="220" y="15" on="1"/>
        <pt x="140" y="-136" on="1"/>
        <pt x="100" y="-113" on="1"/>
        <pt x="179" y="38" on="1"/>
        <pt x="42" y="131" on="0"/>
        <pt x="42" y="352" on="1"/>
        <pt x="42" y="520" on="0"/>
        <pt x="211" y="720" on="0"/>
        <pt x="370" y="720" on="1"/>
        <pt x="455" y="720" on="0"/>
        <pt x="522" y="689" on="1"/>
        <pt x="600" y="838" on="1"/>
        <pt x="642" y="815" on="1"/>
        <pt x="563" y="665" on="1"/>
        <pt x="698" y="569" on="0"/>
      </contour>
      <contour>
        <pt x="263" y="667" on="0"/>
        <pt x="149" y="490" on="0"/>
        <pt x="149" y="196" on="0"/>
        <pt x="217" y="110" on="1"/>
        <pt x="489" y="627" on="1"/>
        <pt x="438" y="667" on="0"/>
        <pt x="370" y="667" on="1"/>
      </contour>
      <contour>
        <pt x="477" y="38" on="0"/>
        <pt x="591" y="214" on="0"/>
        <pt x="591" y="506" on="0"/>
        <pt x="524" y="592" on="1"/>
        <pt x="252" y="76" on="1"/>
        <pt x="303" y="38" on="0"/>
        <pt x="370" y="38" on="1"/>
      </contour>
    </TTGlyph>
    <TTGlyph name="Oslashacute" xMin="42" yMin="-136" xMax="698" yMax="898">
      <contour>
        <pt x="698" y="352" on="1"/>
        <pt x="698" y="184" on="0"/>
        <pt x="529" y="-15" on="0"/>
        <pt x="370" y="-15" on="1"/>
        <pt x="286" y="-15" on="0"/>
        <pt x="220" y="15" on="1"/>
        <pt x="140" y="-136" on="1"/>
        <pt x="100" y="-113" on="1"/>
        <pt x="179" y="38" on="1"/>
        <pt x="42" y="131" on="0"/>
        <pt x="42" y="352" on="1"/>
        <pt x="42" y="520" on="0"/>
        <pt x="211" y="720" on="0"/>
        <pt x="370" y="720" on="1"/>
        <pt x="455" y="720" on="0"/>
        <pt x="522" y="689" on="1"/>
        <pt x="600" y="838" on="1"/>
        <pt x="642" y="815" on="1"/>
        <pt x="563" y="665" on="1"/>
        <pt x="698" y="569" on="0"/>
      </contour>
      <contour>
        <pt x="263" y="667" on="0"/>
        <pt x="149" y="490" on="0"/>
        <pt x="149" y="196" on="0"/>
        <pt x="217" y="110" on="1"/>
        <pt x="489" y="627" on="1"/>
        <pt x="438" y="667" on="0"/>
        <pt x="370" y="667" on="1"/>
      </contour>
      <contour>
        <pt x="477" y="38" on="0"/>
        <pt x="591" y="214" on="0"/>
        <pt x="591" y="506" on="0"/>
        <pt x="524" y="592" on="1"/>
        <pt x="252" y="76" on="1"/>
        <pt x="303" y="38" on="0"/>
        <pt x="370" y="38" on="1"/>
      </contour>
      <contour>
        <pt x="489" y="898" on="1"/>
        <pt x="519" y="825" on="1"/>
        <pt x="387" y="793" on="0"/>
        <pt x="368" y="787" on="1"/>
        <pt x="280" y="750" on="1"/>
        <pt x="260" y="798" on="1"/>
      </contour>
    </TTGlyph>
    <TTGlyph name="Otilde" xMin="42" yMin="-15" xMax="698" yMax="882">
      <contour>
        <pt x="698" y="520" on="0"/>
        <pt x="698" y="184" on="0"/>
        <pt x="529" y="-15" on="0"/>
        <pt x="211" y="-15" on="0"/>
        <pt x="42" y="184" on="0"/>
        <pt x="42" y="520" on="0"/>
        <pt x="211" y="720" on="0"/>
        <pt x="529" y="720" on="0"/>
      </contour>
      <contour>
        <pt x="149" y="490" on="0"/>
        <pt x="149" y="214" on="0"/>
        <pt x="263" y="38" on="0"/>
        <pt x="477" y="38" on="0"/>
        <pt x="591" y="214" on="0"/>
        <pt x="591" y="490" on="0"/>
        <pt x="477" y="667" on="0"/>
        <pt x="263" y="667" on="0"/>
      </contour>
      <contour>
        <pt x="517" y="817" on="0"/>
        <pt x="473" y="763" on="0"/>
        <pt x="435" y="763" on="0"/>
        <pt x="311" y="804" on="0"/>
        <pt x="279" y="804" on="0"/>
        <pt x="252" y="777" on="0"/>
        <pt x="245" y="764" on="1"/>
        <pt x="238" y="750" on="1"/>
        <pt x="202" y="771" on="1"/>
        <pt x="207" y="782" on="0"/>
        <pt x="223" y="816" on="0"/>
        <pt x="266" y="872" on="0"/>
        <pt x="304" y="872" on="0"/>
        <pt x="429" y="831" on="0"/>
        <pt x="445" y="831" on="1"/>
        <pt x="473" y="831" on="0"/>
        <pt x="494" y="869" on="1"/>
        <pt x="502" y="882" on="1"/>
        <pt x="538" y="861" on="1"/>
        <pt x="533" y="850" on="0"/>
      </contour>
    </TTGlyph>
    <TTGlyph name="P" xMin="42" yMin="-5" xMax="556" yMax="715">
      <contour>
        <pt x="148" y="705" on="1"/>
        <pt x="333" y="715" on="1"/>
        <pt x="438" y="715" on="0"/>
        <pt x="556" y="607" on="0"/>
        <pt x="556" y="404" on="0"/>
        <pt x="415" y="291" on="0"/>
        <pt x="310" y="291" on="1"/>
        <pt x="249" y="291" on="0"/>
        <pt x="221" y="292" on="1"/>
        <pt x="221" y="167" on="1"/>
        <pt x="221" y="110" on="0"/>
        <pt x="228" y="61" on="1"/>
        <pt x="322" y="54" on="1"/>
        <pt x="315" y="-5" on="1"/>
        <pt x="245" y="0" on="0"/>
        <pt x="165" y="0" on="1"/>
        <pt x="47" y="-5" on="1"/>
        <pt x="42" y="45" on="1"/>
        <pt x="121" y="61" on="1"/>
        <pt x="130" y="120" on="0"/>
        <pt x="130" y="137" on="1"/>
        <pt x="130" y="568" on="1"/>
        <pt x="130" y="586" on="0"/>
        <pt x="121" y="644" on="1"/>
        <pt x="44" y="656" on="1"/>
        <pt x="49" y="710" on="1"/>
        <pt x="114" y="706" on="0"/>
      </contour>
      <contour>
        <pt x="221" y="538" on="1"/>
        <pt x="221" y="345" on="1"/>
        <pt x="273" y="341" on="0"/>
        <pt x="290" y="341" on="1"/>
        <pt x="370" y="341" on="0"/>
        <pt x="462" y="423" on="0"/>
        <pt x="462" y="581" on="0"/>
        <pt x="371" y="665" on="0"/>
        <pt x="291" y="665" on="1"/>
        <pt x="271" y="665" on="0"/>
        <pt x="228" y="660" on="1"/>
        <pt x="221" y="599" on="0"/>
      </contour>
    </TTGlyph>
    <TTGlyph name="Q" xMin="42" yMin="-224" xMax="728" yMax="720">
      <contour>
        <pt x="370" y="-15" on="1"/>
        <pt x="211" y="-15" on="0"/>
        <pt x="42" y="184" on="0"/>
        <pt x="42" y="520" on="0"/>
        <pt x="211" y="720" on="0"/>
        <pt x="529" y="720" on="0"/>
        <pt x="698" y="520" on="0"/>
        <pt x="698" y="352" on="1"/>
        <pt x="698" y="218" on="0"/>
        <pt x="588" y="33" on="0"/>
        <pt x="483" y="1" on="1"/>
        <pt x="570" y="-60" on="1"/>
        <pt x="584" y="-70" on="0"/>
        <pt x="692" y="-116" on="1"/>
        <pt x="728" y="-132" on="1"/>
        <pt x="669" y="-224" on="1"/>
        <pt x="407" y="-13" on="1"/>
        <pt x="383" y="-15" on="0"/>
      </contour>
      <contour>
        <pt x="149" y="490" on="0"/>
        <pt x="149" y="214" on="0"/>
        <pt x="263" y="38" on="0"/>
        <pt x="477" y="38" on="0"/>
        <pt x="591" y="214" on="0"/>
        <pt x="591" y="490" on="0"/>
        <pt x="477" y="667" on="0"/>
        <pt x="263" y="667" on="0"/>
      </contour>
    </TTGlyph>
    <TTGlyph name="R" xMin="42" yMin="-5" xMax="634" yMax="715">
      <contour>
        <pt x="149" y="705" on="1"/>
        <pt x="332" y="715" on="1"/>
        <pt x="437" y="715" on="0"/>
        <pt x="553" y="610" on="0"/>
        <pt x="553" y="508" on="1"/>
        <pt x="553" y="437" on="0"/>
        <pt x="473" y="338" on="0"/>
        <pt x="407" y="316" on="1"/>
        <pt x="482" y="173" on="0"/>
        <pt x="513" y="131" on="1"/>
        <pt x="522" y="116" on="0"/>
        <pt x="562" y="61" on="1"/>
        <pt x="634" y="54" on="1"/>
        <pt x="627" y="-5" on="1"/>
        <pt x="549" y="0" on="0"/>
        <pt x="469" y="0" on="1"/>
        <pt x="427" y="92" on="0"/>
        <pt x="414" y="116" on="1"/>
        <pt x="316" y="301" on="1"/>
        <pt x="309" y="301" on="1"/>
        <pt x="248" y="301" on="0"/>
        <pt x="221" y="302" on="1"/>
        <pt x="221" y="167" on="1"/>
        <pt x="221" y="110" on="0"/>
        <pt x="228" y="61" on="1"/>
        <pt x="318" y="54" on="1"/>
        <pt x="311" y="-5" on="1"/>
        <pt x="245" y="0" on="0"/>
        <pt x="165" y="0" on="1"/>
        <pt x="47" y="-5" on="1"/>
        <pt x="42" y="45" on="1"/>
        <pt x="121" y="61" on="1"/>
        <pt x="130" y="120" on="0"/>
        <pt x="130" y="137" on="1"/>
        <pt x="130" y="568" on="1"/>
        <pt x="130" y="581" on="0"/>
        <pt x="121" y="644" on="1"/>
        <pt x="44" y="656" on="1"/>
        <pt x="49" y="710" on="1"/>
        <pt x="116" y="707" on="0"/>
      </contour>
      <contour>
        <pt x="290" y="665" on="1"/>
        <pt x="279" y="665" on="0"/>
        <pt x="229" y="659" on="1"/>
        <pt x="221" y="609" on="0"/>
        <pt x="221" y="538" on="1"/>
        <pt x="221" y="355" on="1"/>
        <pt x="271" y="351" on="0"/>
        <pt x="289" y="351" on="1"/>
        <pt x="368" y="351" on="0"/>
        <pt x="459" y="430" on="0"/>
        <pt x="459" y="584" on="0"/>
        <pt x="369" y="665" on="0"/>
      </contour>
    </TTGlyph>
    <TTGlyph name="Racute" xMin="42" yMin="-5" xMax="634" yMax="898">
      <contour>
        <pt x="149" y="705" on="1"/>
        <pt x="332" y="715" on="1"/>
        <pt x="437" y="715" on="0"/>
        <pt x="553" y="610" on="0"/>
        <pt x="553" y="508" on="1"/>
        <pt x="553" y="437" on="0"/>
        <pt x="473" y="338" on="0"/>
        <pt x="407" y="316" on="1"/>
        <pt x="482" y="173" on="0"/>
        <pt x="513" y="131" on="1"/>
        <pt x="522" y="116" on="0"/>
        <pt x="562" y="61" on="1"/>
        <pt x="634" y="54" on="1"/>
        <pt x="627" y="-5" on="1"/>
        <pt x="549" y="0" on="0"/>
        <pt x="469" y="0" on="1"/>
        <pt x="427" y="92" on="0"/>
        <pt x="414" y="116" on="1"/>
        <pt x="316" y="301" on="1"/>
        <pt x="309" y="301" on="1"/>
        <pt x="248" y="301" on="0"/>
        <pt x="221" y="302" on="1"/>
        <pt x="221" y="167" on="1"/>
        <pt x="221" y="110" on="0"/>
        <pt x="228" y="61" on="1"/>
        <pt x="318" y="54" on="1"/>
        <pt x="311" y="-5" on="1"/>
        <pt x="245" y="0" on="0"/>
        <pt x="165" y="0" on="1"/>
        <pt x="47" y="-5" on="1"/>
        <pt x="42" y="45" on="1"/>
        <pt x="121" y="61" on="1"/>
        <pt x="130" y="120" on="0"/>
        <pt x="130" y="137" on="1"/>
        <pt x="130" y="568" on="1"/>
        <pt x="130" y="581" on="0"/>
        <pt x="121" y="644" on="1"/>
        <pt x="44" y="656" on="1"/>
        <pt x="49" y="710" on="1"/>
        <pt x="116" y="707" on="0"/>
      </contour>
      <contour>
        <pt x="290" y="665" on="1"/>
        <pt x="279" y="665" on="0"/>
        <pt x="229" y="659" on="1"/>
        <pt x="221" y="609" on="0"/>
        <pt x="221" y="538" on="1"/>
        <pt x="221" y="355" on="1"/>
        <pt x="271" y="351" on="0"/>
        <pt x="289" y="351" on="1"/>
        <pt x="368" y="351" on="0"/>
        <pt x="459" y="430" on="0"/>
        <pt x="459" y="584" on="0"/>
        <pt x="369" y="665" on="0"/>
      </contour>
      <contour>
        <pt x="431" y="898" on="1"/>
        <pt x="461" y="825" on="1"/>
        <pt x="329" y="793" on="0"/>
        <pt x="310" y="787" on="1"/>
        <pt x="222" y="750" on="1"/>
        <pt x="202" y="798" on="1"/>
      </contour>
    </TTGlyph>
    <TTGlyph name="Rcaron" xMin="42" yMin="-5" xMax="634" yMax="893">
      <contour>
        <pt x="149" y="705" on="1"/>
        <pt x="332" y="715" on="1"/>
        <pt x="437" y="715" on="0"/>
        <pt x="553" y="610" on="0"/>
        <pt x="553" y="508" on="1"/>
        <pt x="553" y="437" on="0"/>
        <pt x="473" y="338" on="0"/>
        <pt x="407" y="316" on="1"/>
        <pt x="482" y="173" on="0"/>
        <pt x="513" y="131" on="1"/>
        <pt x="522" y="116" on="0"/>
        <pt x="562" y="61" on="1"/>
        <pt x="634" y="54" on="1"/>
        <pt x="627" y="-5" on="1"/>
        <pt x="549" y="0" on="0"/>
        <pt x="469" y="0" on="1"/>
        <pt x="427" y="92" on="0"/>
        <pt x="414" y="116" on="1"/>
        <pt x="316" y="301" on="1"/>
        <pt x="309" y="301" on="1"/>
        <pt x="248" y="301" on="0"/>
        <pt x="221" y="302" on="1"/>
        <pt x="221" y="167" on="1"/>
        <pt x="221" y="110" on="0"/>
        <pt x="228" y="61" on="1"/>
        <pt x="318" y="54" on="1"/>
        <pt x="311" y="-5" on="1"/>
        <pt x="245" y="0" on="0"/>
        <pt x="165" y="0" on="1"/>
        <pt x="47" y="-5" on="1"/>
        <pt x="42" y="45" on="1"/>
        <pt x="121" y="61" on="1"/>
        <pt x="130" y="120" on="0"/>
        <pt x="130" y="137" on="1"/>
        <pt x="130" y="568" on="1"/>
        <pt x="130" y="581" on="0"/>
        <pt x="121" y="644" on="1"/>
        <pt x="44" y="656" on="1"/>
        <pt x="49" y="710" on="1"/>
        <pt x="116" y="707" on="0"/>
      </contour>
      <contour>
        <pt x="290" y="665" on="1"/>
        <pt x="279" y="665" on="0"/>
        <pt x="229" y="659" on="1"/>
        <pt x="221" y="609" on="0"/>
        <pt x="221" y="538" on="1"/>
        <pt x="221" y="355" on="1"/>
        <pt x="271" y="351" on="0"/>
        <pt x="289" y="351" on="1"/>
        <pt x="368" y="351" on="0"/>
        <pt x="459" y="430" on="0"/>
        <pt x="459" y="584" on="0"/>
        <pt x="369" y="665" on="0"/>
      </contour>
      <contour>
        <pt x="463" y="893" on="1"/>
        <pt x="486" y="854" on="1"/>
        <pt x="312" y="747" on="1"/>
        <pt x="138" y="854" on="1"/>
        <pt x="161" y="893" on="1"/>
        <pt x="249" y="852" on="1"/>
        <pt x="312" y="827" on="1"/>
        <pt x="375" y="852" on="1"/>
      </contour>
    </TTGlyph>
    <TTGlyph name="Rcommaaccent" xMin="42" yMin="-259" xMax="634" yMax="715">
      <contour>
        <pt x="149" y="705" on="1"/>
        <pt x="332" y="715" on="1"/>
        <pt x="437" y="715" on="0"/>
        <pt x="553" y="610" on="0"/>
        <pt x="553" y="508" on="1"/>
        <pt x="553" y="437" on="0"/>
        <pt x="473" y="338" on="0"/>
        <pt x="407" y="316" on="1"/>
        <pt x="482" y="173" on="0"/>
        <pt x="513" y="131" on="1"/>
        <pt x="522" y="116" on="0"/>
        <pt x="562" y="61" on="1"/>
        <pt x="634" y="54" on="1"/>
        <pt x="627" y="-5" on="1"/>
        <pt x="549" y="0" on="0"/>
        <pt x="469" y="0" on="1"/>
        <pt x="427" y="92" on="0"/>
        <pt x="414" y="116" on="1"/>
        <pt x="316" y="301" on="1"/>
        <pt x="309" y="301" on="1"/>
        <pt x="248" y="301" on="0"/>
        <pt x="221" y="302" on="1"/>
        <pt x="221" y="167" on="1"/>
        <pt x="221" y="110" on="0"/>
        <pt x="228" y="61" on="1"/>
        <pt x="318" y="54" on="1"/>
        <pt x="311" y="-5" on="1"/>
        <pt x="245" y="0" on="0"/>
        <pt x="165" y="0" on="1"/>
        <pt x="47" y="-5" on="1"/>
        <pt x="42" y="45" on="1"/>
        <pt x="121" y="61" on="1"/>
        <pt x="130" y="120" on="0"/>
        <pt x="130" y="137" on="1"/>
        <pt x="130" y="568" on="1"/>
        <pt x="130" y="581" on="0"/>
        <pt x="121" y="644" on="1"/>
        <pt x="44" y="656" on="1"/>
        <pt x="49" y="710" on="1"/>
        <pt x="116" y="707" on="0"/>
      </contour>
      <contour>
        <pt x="290" y="665" on="1"/>
        <pt x="279" y="665" on="0"/>
        <pt x="229" y="659" on="1"/>
        <pt x="221" y="609" on="0"/>
        <pt x="221" y="538" on="1"/>
        <pt x="221" y="355" on="1"/>
        <pt x="271" y="351" on="0"/>
        <pt x="289" y="351" on="1"/>
        <pt x="368" y="351" on="0"/>
        <pt x="459" y="430" on="0"/>
        <pt x="459" y="584" on="0"/>
        <pt x="369" y="665" on="0"/>
      </contour>
      <contour>
        <pt x="319" y="-116" on="1"/>
        <pt x="319" y="-89" on="0"/>
        <pt x="349" y="-58" on="0"/>
        <pt x="369" y="-58" on="1"/>
        <pt x="421" y="-58" on="0"/>
        <pt x="421" y="-124" on="1"/>
        <pt x="421" y="-148" on="0"/>
        <pt x="398" y="-216" on="0"/>
        <pt x="386" y="-238" on="1"/>
        <pt x="374" y="-259" on="1"/>
        <pt x="337" y="-247" on="1"/>
        <pt x="352" y="-194" on="0"/>
        <pt x="352" y="-168" on="1"/>
        <pt x="319" y="-155" on="0"/>
      </contour>
    </TTGlyph>
    <TTGlyph name="S" xMin="50" yMin="-15" xMax="509" yMax="720">
      <contour>
        <pt x="131" y="138" on="1"/>
        <pt x="131" y="120" on="0"/>
        <pt x="142" y="72" on="1"/>
        <pt x="210" y="45" on="0"/>
        <pt x="333" y="45" on="0"/>
        <pt x="404" y="110" on="0"/>
        <pt x="404" y="170" on="1"/>
        <pt x="404" y="208" on="0"/>
        <pt x="353" y="270" on="0"/>
        <pt x="278" y="309" on="0"/>
        <pt x="189" y="357" on="0"/>
        <pt x="114" y="404" on="0"/>
        <pt x="63" y="484" on="0"/>
        <pt x="63" y="535" on="1"/>
        <pt x="63" y="622" on="0"/>
        <pt x="184" y="720" on="0"/>
        <pt x="354" y="720" on="0"/>
        <pt x="482" y="688" on="1"/>
        <pt x="468" y="537" on="1"/>
        <pt x="409" y="543" on="1"/>
        <pt x="409" y="587" on="1"/>
        <pt x="409" y="593" on="0"/>
        <pt x="396" y="643" on="1"/>
        <pt x="345" y="665" on="0"/>
        <pt x="228" y="665" on="0"/>
        <pt x="163" y="607" on="0"/>
        <pt x="163" y="554" on="1"/>
        <pt x="163" y="494" on="0"/>
        <pt x="232" y="451" on="1"/>
        <pt x="262" y="432" on="0"/>
        <pt x="336" y="395" on="0"/>
        <pt x="410" y="353" on="0"/>
        <pt x="471" y="303" on="0"/>
        <pt x="509" y="228" on="0"/>
        <pt x="509" y="182" on="1"/>
        <pt x="509" y="86" on="0"/>
        <pt x="375" y="-15" on="0"/>
        <pt x="270" y="-15" on="1"/>
        <pt x="210" y="-15" on="0"/>
        <pt x="100" y="12" on="0"/>
        <pt x="75" y="25" on="1"/>
        <pt x="50" y="38" on="1"/>
        <pt x="65" y="192" on="1"/>
        <pt x="131" y="186" on="1"/>
      </contour>
    </TTGlyph>
    <TTGlyph name="Sacute" xMin="50" yMin="-15" xMax="509" yMax="898">
      <contour>
        <pt x="131" y="138" on="1"/>
        <pt x="131" y="120" on="0"/>
        <pt x="142" y="72" on="1"/>
        <pt x="210" y="45" on="0"/>
        <pt x="333" y="45" on="0"/>
        <pt x="404" y="110" on="0"/>
        <pt x="404" y="170" on="1"/>
        <pt x="404" y="208" on="0"/>
        <pt x="353" y="270" on="0"/>
        <pt x="278" y="309" on="0"/>
        <pt x="189" y="357" on="0"/>
        <pt x="114" y="404" on="0"/>
        <pt x="63" y="484" on="0"/>
        <pt x="63" y="535" on="1"/>
        <pt x="63" y="622" on="0"/>
        <pt x="184" y="720" on="0"/>
        <pt x="354" y="720" on="0"/>
        <pt x="482" y="688" on="1"/>
        <pt x="468" y="537" on="1"/>
        <pt x="409" y="543" on="1"/>
        <pt x="409" y="587" on="1"/>
        <pt x="409" y="593" on="0"/>
        <pt x="396" y="643" on="1"/>
        <pt x="345" y="665" on="0"/>
        <pt x="228" y="665" on="0"/>
        <pt x="163" y="607" on="0"/>
        <pt x="163" y="554" on="1"/>
        <pt x="163" y="494" on="0"/>
        <pt x="232" y="451" on="1"/>
        <pt x="262" y="432" on="0"/>
        <pt x="336" y="395" on="0"/>
        <pt x="410" y="353" on="0"/>
        <pt x="471" y="303" on="0"/>
        <pt x="509" y="228" on="0"/>
        <pt x="509" y="182" on="1"/>
        <pt x="509" y="86" on="0"/>
        <pt x="375" y="-15" on="0"/>
        <pt x="270" y="-15" on="1"/>
        <pt x="210" y="-15" on="0"/>
        <pt x="100" y="12" on="0"/>
        <pt x="75" y="25" on="1"/>
        <pt x="50" y="38" on="1"/>
        <pt x="65" y="192" on="1"/>
        <pt x="131" y="186" on="1"/>
      </contour>
      <contour>
        <pt x="396" y="898" on="1"/>
        <pt x="426" y="825" on="1"/>
        <pt x="294" y="793" on="0"/>
        <pt x="275" y="787" on="1"/>
        <pt x="187" y="750" on="1"/>
        <pt x="167" y="798" on="1"/>
      </contour>
    </TTGlyph>
    <TTGlyph name="Scaron" xMin="50" yMin="-15" xMax="509" yMax="893">
      <contour>
        <pt x="131" y="138" on="1"/>
        <pt x="131" y="120" on="0"/>
        <pt x="142" y="72" on="1"/>
        <pt x="210" y="45" on="0"/>
        <pt x="333" y="45" on="0"/>
        <pt x="404" y="110" on="0"/>
        <pt x="404" y="170" on="1"/>
        <pt x="404" y="208" on="0"/>
        <pt x="353" y="270" on="0"/>
        <pt x="278" y="309" on="0"/>
        <pt x="189" y="357" on="0"/>
        <pt x="114" y="404" on="0"/>
        <pt x="63" y="484" on="0"/>
        <pt x="63" y="535" on="1"/>
        <pt x="63" y="622" on="0"/>
        <pt x="184" y="720" on="0"/>
        <pt x="354" y="720" on="0"/>
        <pt x="482" y="688" on="1"/>
        <pt x="468" y="537" on="1"/>
        <pt x="409" y="543" on="1"/>
        <pt x="409" y="587" on="1"/>
        <pt x="409" y="593" on="0"/>
        <pt x="396" y="643" on="1"/>
        <pt x="345" y="665" on="0"/>
        <pt x="228" y="665" on="0"/>
        <pt x="163" y="607" on="0"/>
        <pt x="163" y="554" on="1"/>
        <pt x="163" y="494" on="0"/>
        <pt x="232" y="451" on="1"/>
        <pt x="262" y="432" on="0"/>
        <pt x="336" y="395" on="0"/>
        <pt x="410" y="353" on="0"/>
        <pt x="471" y="303" on="0"/>
        <pt x="509" y="228" on="0"/>
        <pt x="509" y="182" on="1"/>
        <pt x="509" y="86" on="0"/>
        <pt x="375" y="-15" on="0"/>
        <pt x="270" y="-15" on="1"/>
        <pt x="210" y="-15" on="0"/>
        <pt x="100" y="12" on="0"/>
        <pt x="75" y="25" on="1"/>
        <pt x="50" y="38" on="1"/>
        <pt x="65" y="192" on="1"/>
        <pt x="131" y="186" on="1"/>
      </contour>
      <contour>
        <pt x="428" y="893" on="1"/>
        <pt x="451" y="854" on="1"/>
        <pt x="277" y="747" on="1"/>
        <pt x="103" y="854" on="1"/>
        <pt x="126" y="893" on="1"/>
        <pt x="214" y="852" on="1"/>
        <pt x="277" y="827" on="1"/>
        <pt x="340" y="852" on="1"/>
      </contour>
    </TTGlyph>
    <TTGlyph name="Scedilla" xMin="50" yMin="-235" xMax="509" yMax="720">
      <contour>
        <pt x="131" y="138" on="1"/>
        <pt x="131" y="120" on="0"/>
        <pt x="142" y="72" on="1"/>
        <pt x="210" y="45" on="0"/>
        <pt x="333" y="45" on="0"/>
        <pt x="404" y="110" on="0"/>
        <pt x="404" y="170" on="1"/>
        <pt x="404" y="208" on="0"/>
        <pt x="353" y="270" on="0"/>
        <pt x="278" y="309" on="0"/>
        <pt x="189" y="357" on="0"/>
        <pt x="114" y="404" on="0"/>
        <pt x="63" y="484" on="0"/>
        <pt x="63" y="535" on="1"/>
        <pt x="63" y="622" on="0"/>
        <pt x="184" y="720" on="0"/>
        <pt x="354" y="720" on="0"/>
        <pt x="482" y="688" on="1"/>
        <pt x="468" y="537" on="1"/>
        <pt x="409" y="543" on="1"/>
        <pt x="409" y="587" on="1"/>
        <pt x="409" y="593" on="0"/>
        <pt x="396" y="643" on="1"/>
        <pt x="345" y="665" on="0"/>
        <pt x="228" y="665" on="0"/>
        <pt x="163" y="607" on="0"/>
        <pt x="163" y="554" on="1"/>
        <pt x="163" y="494" on="0"/>
        <pt x="232" y="451" on="1"/>
        <pt x="262" y="432" on="0"/>
        <pt x="336" y="395" on="0"/>
        <pt x="410" y="353" on="0"/>
        <pt x="471" y="303" on="0"/>
        <pt x="509" y="228" on="0"/>
        <pt x="509" y="182" on="1"/>
        <pt x="509" y="91" on="0"/>
        <pt x="387" y="-9" on="0"/>
        <pt x="289" y="-14" on="1"/>
        <pt x="280" y="-59" on="1"/>
        <pt x="325" y="-60" on="0"/>
        <pt x="381" y="-106" on="0"/>
        <pt x="381" y="-186" on="0"/>
        <pt x="319" y="-235" on="0"/>
        <pt x="229" y="-235" on="0"/>
        <pt x="191" y="-217" on="1"/>
        <pt x="204" y="-182" on="1"/>
        <pt x="239" y="-193" on="0"/>
        <pt x="286" y="-193" on="0"/>
        <pt x="316" y="-168" on="0"/>
        <pt x="316" y="-146" on="1"/>
        <pt x="316" y="-103" on="0"/>
        <pt x="269" y="-103" on="1"/>
        <pt x="248" y="-104" on="1"/>
        <pt x="237" y="-94" on="1"/>
        <pt x="244" y="-14" on="1"/>
        <pt x="191" y="-11" on="0"/>
        <pt x="94" y="15" on="0"/>
        <pt x="72" y="26" on="1"/>
        <pt x="50" y="38" on="1"/>
        <pt x="65" y="192" on="1"/>
        <pt x="131" y="186" on="1"/>
      </contour>
    </TTGlyph>
    <TTGlyph name="Scircumflex" xMin="50" yMin="-15" xMax="509" yMax="893">
      <contour>
        <pt x="131" y="138" on="1"/>
        <pt x="131" y="120" on="0"/>
        <pt x="142" y="72" on="1"/>
        <pt x="210" y="45" on="0"/>
        <pt x="333" y="45" on="0"/>
        <pt x="404" y="110" on="0"/>
        <pt x="404" y="170" on="1"/>
        <pt x="404" y="208" on="0"/>
        <pt x="353" y="270" on="0"/>
        <pt x="278" y="309" on="0"/>
        <pt x="189" y="357" on="0"/>
        <pt x="114" y="404" on="0"/>
        <pt x="63" y="484" on="0"/>
        <pt x="63" y="535" on="1"/>
        <pt x="63" y="622" on="0"/>
        <pt x="184" y="720" on="0"/>
        <pt x="354" y="720" on="0"/>
        <pt x="482" y="688" on="1"/>
        <pt x="468" y="537" on="1"/>
        <pt x="409" y="543" on="1"/>
        <pt x="409" y="587" on="1"/>
        <pt x="409" y="593" on="0"/>
        <pt x="396" y="643" on="1"/>
        <pt x="345" y="665" on="0"/>
        <pt x="228" y="665" on="0"/>
        <pt x="163" y="607" on="0"/>
        <pt x="163" y="554" on="1"/>
        <pt x="163" y="494" on="0"/>
        <pt x="232" y="451" on="1"/>
        <pt x="262" y="432" on="0"/>
        <pt x="336" y="395" on="0"/>
        <pt x="410" y="353" on="0"/>
        <pt x="471" y="303" on="0"/>
        <pt x="509" y="228" on="0"/>
        <pt x="509" y="182" on="1"/>
        <pt x="509" y="86" on="0"/>
        <pt x="375" y="-15" on="0"/>
        <pt x="270" y="-15" on="1"/>
        <pt x="210" y="-15" on="0"/>
        <pt x="100" y="12" on="0"/>
        <pt x="75" y="25" on="1"/>
        <pt x="50" y="38" on="1"/>
        <pt x="65" y="192" on="1"/>
        <pt x="131" y="186" on="1"/>
      </contour>
      <contour>
        <pt x="277" y="893" on="1"/>
        <pt x="451" y="786" on="1"/>
        <pt x="428" y="747" on="1"/>
        <pt x="340" y="788" on="1"/>
        <pt x="277" y="813" on="1"/>
        <pt x="214" y="788" on="1"/>
        <pt x="126" y="747" on="1"/>
        <pt x="103" y="786" on="1"/>
      </contour>
    </TTGlyph>
    <TTGlyph name="Scommaaccent" xMin="50" yMin="-259" xMax="509" yMax="720">
      <contour>
        <pt x="131" y="138" on="1"/>
        <pt x="131" y="120" on="0"/>
        <pt x="142" y="72" on="1"/>
        <pt x="210" y="45" on="0"/>
        <pt x="333" y="45" on="0"/>
        <pt x="404" y="110" on="0"/>
        <pt x="404" y="170" on="1"/>
        <pt x="404" y="208" on="0"/>
        <pt x="353" y="270" on="0"/>
        <pt x="278" y="309" on="0"/>
        <pt x="189" y="357" on="0"/>
        <pt x="114" y="404" on="0"/>
        <pt x="63" y="484" on="0"/>
        <pt x="63" y="535" on="1"/>
        <pt x="63" y="622" on="0"/>
        <pt x="184" y="720" on="0"/>
        <pt x="354" y="720" on="0"/>
        <pt x="482" y="688" on="1"/>
        <pt x="468" y="537" on="1"/>
        <pt x="409" y="543" on="1"/>
        <pt x="409" y="587" on="1"/>
        <pt x="409" y="593" on="0"/>
        <pt x="396" y="643" on="1"/>
        <pt x="345" y="665" on="0"/>
        <pt x="228" y="665" on="0"/>
        <pt x="163" y="607" on="0"/>
        <pt x="163" y="554" on="1"/>
        <pt x="163" y="494" on="0"/>
        <pt x="232" y="451" on="1"/>
        <pt x="262" y="432" on="0"/>
        <pt x="336" y="395" on="0"/>
        <pt x="410" y="353" on="0"/>
        <pt x="471" y="303" on="0"/>
        <pt x="509" y="228" on="0"/>
        <pt x="509" y="182" on="1"/>
        <pt x="509" y="86" on="0"/>
        <pt x="375" y="-15" on="0"/>
        <pt x="270" y="-15" on="1"/>
        <pt x="210" y="-15" on="0"/>
        <pt x="100" y="12" on="0"/>
        <pt x="75" y="25" on="1"/>
        <pt x="50" y="38" on="1"/>
        <pt x="65" y="192" on="1"/>
        <pt x="131" y="186" on="1"/>
      </contour>
      <contour>
        <pt x="224" y="-116" on="1"/>
        <pt x="224" y="-89" on="0"/>
        <pt x="254" y="-58" on="0"/>
        <pt x="274" y="-58" on="1"/>
        <pt x="326" y="-58" on="0"/>
        <pt x="326" y="-124" on="1"/>
        <pt x="326" y="-148" on="0"/>
        <pt x="302" y="-216" on="0"/>
        <pt x="290" y="-238" on="1"/>
        <pt x="279" y="-259" on="1"/>
        <pt x="242" y="-247" on="1"/>
        <pt x="257" y="-194" on="0"/>
        <pt x="257" y="-168" on="1"/>
        <pt x="224" y="-155" on="0"/>
      </contour>
    </TTGlyph>
    <TTGlyph name="T" xMin="10" yMin="-5" xMax="585" yMax="715">
      <contour>
        <pt x="252" y="568" on="1"/>
        <pt x="252" y="595" on="0"/>
        <pt x="243" y="649" on="1"/>
        <pt x="180" y="649" on="1"/>
        <pt x="154" y="649" on="0"/>
        <pt x="99" y="644" on="1"/>
        <pt x="80" y="620" on="0"/>
        <pt x="73" y="587" on="0"/>
        <pt x="68" y="548" on="1"/>
        <pt x="10" y="553" on="1"/>
        <pt x="17" y="697" on="1"/>
        <pt x="36" y="715" on="1"/>
        <pt x="130" y="705" on="0"/>
        <pt x="150" y="705" on="1"/>
        <pt x="445" y="705" on="1"/>
        <pt x="559" y="715" on="1"/>
        <pt x="578" y="697" on="1"/>
        <pt x="585" y="553" on="1"/>
        <pt x="527" y="548" on="1"/>
        <pt x="522" y="587" on="0"/>
        <pt x="515" y="620" on="0"/>
        <pt x="496" y="644" on="1"/>
        <pt x="441" y="649" on="0"/>
        <pt x="415" y="649" on="1"/>
        <pt x="350" y="649" on="1"/>
        <pt x="343" y="579" on="0"/>
        <pt x="343" y="538" on="1"/>
        <pt x="343" y="167" on="1"/>
        <pt x="343" y="110" on="0"/>
        <pt x="350" y="61" on="1"/>
        <pt x="440" y="54" on="1"/>
        <pt x="433" y="-5" on="1"/>
        <pt x="367" y="0" on="0"/>
        <pt x="287" y="0" on="1"/>
        <pt x="169" y="-5" on="1"/>
        <pt x="164" y="45" on="1"/>
        <pt x="243" y="61" on="1"/>
        <pt x="252" y="120" on="0"/>
        <pt x="252" y="137" on="1"/>
      </contour>
    </TTGlyph>
    <TTGlyph name="Tbar" xMin="10" yMin="-5" xMax="585" yMax="715">
      <contour>
        <pt x="252" y="568" on="1"/>
        <pt x="252" y="595" on="0"/>
        <pt x="243" y="649" on="1"/>
        <pt x="180" y="649" on="1"/>
        <pt x="154" y="649" on="0"/>
        <pt x="99" y="644" on="1"/>
        <pt x="80" y="620" on="0"/>
        <pt x="73" y="587" on="0"/>
        <pt x="68" y="548" on="1"/>
        <pt x="10" y="553" on="1"/>
        <pt x="17" y="697" on="1"/>
        <pt x="36" y="715" on="1"/>
        <pt x="130" y="705" on="0"/>
        <pt x="150" y="705" on="1"/>
        <pt x="445" y="705" on="1"/>
        <pt x="559" y="715" on="1"/>
        <pt x="578" y="697" on="1"/>
        <pt x="585" y="553" on="1"/>
        <pt x="527" y="548" on="1"/>
        <pt x="522" y="587" on="0"/>
        <pt x="515" y="620" on="0"/>
        <pt x="496" y="644" on="1"/>
        <pt x="441" y="649" on="0"/>
        <pt x="415" y="649" on="1"/>
        <pt x="350" y="649" on="1"/>
        <pt x="343" y="579" on="0"/>
        <pt x="343" y="538" on="1"/>
        <pt x="343" y="397" on="1"/>
        <pt x="497" y="397" on="1"/>
        <pt x="497" y="353" on="1"/>
        <pt x="343" y="353" on="1"/>
        <pt x="343" y="167" on="1"/>
        <pt x="343" y="110" on="0"/>
        <pt x="350" y="61" on="1"/>
        <pt x="440" y="54" on="1"/>
        <pt x="433" y="-5" on="1"/>
        <pt x="367" y="0" on="0"/>
        <pt x="287" y="0" on="1"/>
        <pt x="169" y="-5" on="1"/>
        <pt x="164" y="45" on="1"/>
        <pt x="243" y="61" on="1"/>
        <pt x="252" y="120" on="0"/>
        <pt x="252" y="137" on="1"/>
        <pt x="252" y="353" on="1"/>
        <pt x="97" y="353" on="1"/>
        <pt x="97" y="397" on="1"/>
        <pt x="252" y="397" on="1"/>
      </contour>
    </TTGlyph>
    <TTGlyph name="Tcaron" xMin="10" yMin="-5" xMax="585" yMax="893">
      <contour>
        <pt x="252" y="568" on="1"/>
        <pt x="252" y="595" on="0"/>
        <pt x="243" y="649" on="1"/>
        <pt x="180" y="649" on="1"/>
        <pt x="154" y="649" on="0"/>
        <pt x="99" y="644" on="1"/>
        <pt x="80" y="620" on="0"/>
        <pt x="73" y="587" on="0"/>
        <pt x="68" y="548" on="1"/>
        <pt x="10" y="553" on="1"/>
        <pt x="17" y="697" on="1"/>
        <pt x="36" y="715" on="1"/>
        <pt x="130" y="705" on="0"/>
        <pt x="150" y="705" on="1"/>
        <pt x="445" y="705" on="1"/>
        <pt x="559" y="715" on="1"/>
        <pt x="578" y="697" on="1"/>
        <pt x="585" y="553" on="1"/>
        <pt x="527" y="548" on="1"/>
        <pt x="522" y="587" on="0"/>
        <pt x="515" y="620" on="0"/>
        <pt x="496" y="644" on="1"/>
        <pt x="441" y="649" on="0"/>
        <pt x="415" y="649" on="1"/>
        <pt x="350" y="649" on="1"/>
        <pt x="343" y="579" on="0"/>
        <pt x="343" y="538" on="1"/>
        <pt x="343" y="167" on="1"/>
        <pt x="343" y="110" on="0"/>
        <pt x="350" y="61" on="1"/>
        <pt x="440" y="54" on="1"/>
        <pt x="433" y="-5" on="1"/>
        <pt x="367" y="0" on="0"/>
        <pt x="287" y="0" on="1"/>
        <pt x="169" y="-5" on="1"/>
        <pt x="164" y="45" on="1"/>
        <pt x="243" y="61" on="1"/>
        <pt x="252" y="120" on="0"/>
        <pt x="252" y="137" on="1"/>
      </contour>
      <contour>
        <pt x="449" y="893" on="1"/>
        <pt x="472" y="854" on="1"/>
        <pt x="298" y="747" on="1"/>
        <pt x="124" y="854" on="1"/>
        <pt x="147" y="893" on="1"/>
        <pt x="235" y="852" on="1"/>
        <pt x="298" y="827" on="1"/>
        <pt x="361" y="852" on="1"/>
      </contour>
    </TTGlyph>
    <TTGlyph name="Tcedilla" xMin="10" yMin="-235" xMax="585" yMax="715">
      <contour>
        <pt x="252" y="568" on="1"/>
        <pt x="252" y="595" on="0"/>
        <pt x="243" y="649" on="1"/>
        <pt x="180" y="649" on="1"/>
        <pt x="154" y="649" on="0"/>
        <pt x="99" y="644" on="1"/>
        <pt x="80" y="620" on="0"/>
        <pt x="73" y="587" on="0"/>
        <pt x="68" y="548" on="1"/>
        <pt x="10" y="553" on="1"/>
        <pt x="17" y="697" on="1"/>
        <pt x="36" y="715" on="1"/>
        <pt x="130" y="705" on="0"/>
        <pt x="150" y="705" on="1"/>
        <pt x="445" y="705" on="1"/>
        <pt x="559" y="715" on="1"/>
        <pt x="578" y="697" on="1"/>
        <pt x="585" y="553" on="1"/>
        <pt x="527" y="548" on="1"/>
        <pt x="522" y="587" on="0"/>
        <pt x="515" y="620" on="0"/>
        <pt x="496" y="644" on="1"/>
        <pt x="441" y="649" on="0"/>
        <pt x="415" y="649" on="1"/>
        <pt x="350" y="649" on="1"/>
        <pt x="343" y="579" on="0"/>
        <pt x="343" y="538" on="1"/>
        <pt x="343" y="167" on="1"/>
        <pt x="343" y="110" on="0"/>
        <pt x="350" y="61" on="1"/>
        <pt x="440" y="54" on="1"/>
        <pt x="433" y="-5" on="1"/>
        <pt x="383" y="-1" on="0"/>
        <pt x="319" y="0" on="1"/>
        <pt x="307" y="-59" on="1"/>
        <pt x="352" y="-60" on="0"/>
        <pt x="408" y="-106" on="0"/>
        <pt x="408" y="-186" on="0"/>
        <pt x="346" y="-235" on="0"/>
        <pt x="256" y="-235" on="0"/>
        <pt x="218" y="-217" on="1"/>
        <pt x="231" y="-182" on="1"/>
        <pt x="266" y="-193" on="0"/>
        <pt x="313" y="-193" on="0"/>
        <pt x="343" y="-168" on="0"/>
        <pt x="343" y="-146" on="1"/>
        <pt x="343" y="-103" on="0"/>
        <pt x="296" y="-103" on="1"/>
        <pt x="275" y="-104" on="1"/>
        <pt x="264" y="-94" on="1"/>
        <pt x="272" y="0" on="1"/>
        <pt x="169" y="-5" on="1"/>
        <pt x="164" y="45" on="1"/>
        <pt x="243" y="61" on="1"/>
        <pt x="252" y="120" on="0"/>
        <pt x="252" y="137" on="1"/>
      </contour>
    </TTGlyph>
    <TTGlyph name="Thorn" xMin="42" yMin="-5" xMax="555" yMax="710">
      <contour>
        <pt x="332" y="573" on="1"/>
        <pt x="438" y="573" on="0"/>
        <pt x="555" y="465" on="0"/>
        <pt x="555" y="262" on="0"/>
        <pt x="414" y="149" on="0"/>
        <pt x="309" y="149" on="1"/>
        <pt x="277" y="149" on="0"/>
        <pt x="221" y="151" on="1"/>
        <pt x="222" y="94" on="0"/>
        <pt x="228" y="61" on="1"/>
        <pt x="318" y="54" on="1"/>
        <pt x="311" y="-5" on="1"/>
        <pt x="245" y="0" on="0"/>
        <pt x="165" y="0" on="1"/>
        <pt x="47" y="-5" on="1"/>
        <pt x="42" y="45" on="1"/>
        <pt x="121" y="61" on="1"/>
        <pt x="130" y="120" on="0"/>
        <pt x="130" y="137" on="1"/>
        <pt x="130" y="568" on="1"/>
        <pt x="130" y="586" on="0"/>
        <pt x="121" y="644" on="1"/>
        <pt x="44" y="656" on="1"/>
        <pt x="49" y="710" on="1"/>
        <pt x="145" y="705" on="0"/>
        <pt x="165" y="705" on="1"/>
        <pt x="302" y="710" on="1"/>
        <pt x="306" y="651" on="1"/>
        <pt x="228" y="644" on="1"/>
        <pt x="224" y="620" on="0"/>
        <pt x="222" y="567" on="1"/>
        <pt x="298" y="573" on="0"/>
      </contour>
      <contour>
        <pt x="289" y="199" on="1"/>
        <pt x="369" y="199" on="0"/>
        <pt x="461" y="281" on="0"/>
        <pt x="461" y="439" on="0"/>
        <pt x="370" y="523" on="0"/>
        <pt x="290" y="523" on="1"/>
        <pt x="273" y="523" on="0"/>
        <pt x="221" y="517" on="1"/>
        <pt x="221" y="204" on="1"/>
        <pt x="263" y="199" on="0"/>
      </contour>
    </TTGlyph>
    <TTGlyph name="U" xMin="17" yMin="-15" xMax="708" yMax="710">
      <contour>
        <pt x="622" y="533" on="1"/>
        <pt x="622" y="266" on="1"/>
        <pt x="622" y="135" on="0"/>
        <pt x="489" y="-15" on="0"/>
        <pt x="237" y="-15" on="0"/>
        <pt x="105" y="135" on="0"/>
        <pt x="105" y="266" on="1"/>
        <pt x="105" y="563" on="1"/>
        <pt x="105" y="576" on="0"/>
        <pt x="96" y="644" on="1"/>
        <pt x="17" y="656" on="1"/>
        <pt x="22" y="710" on="1"/>
        <pt x="118" y="705" on="0"/>
        <pt x="138" y="705" on="1"/>
        <pt x="282" y="710" on="1"/>
        <pt x="286" y="651" on="1"/>
        <pt x="207" y="644" on="1"/>
        <pt x="200" y="592" on="0"/>
        <pt x="200" y="533" on="1"/>
        <pt x="200" y="266" on="1"/>
        <pt x="200" y="167" on="0"/>
        <pt x="288" y="49" on="0"/>
        <pt x="459" y="49" on="0"/>
        <pt x="550" y="168" on="0"/>
        <pt x="550" y="266" on="1"/>
        <pt x="550" y="563" on="1"/>
        <pt x="550" y="574" on="0"/>
        <pt x="540" y="644" on="1"/>
        <pt x="462" y="656" on="1"/>
        <pt x="467" y="710" on="1"/>
        <pt x="553" y="705" on="0"/>
        <pt x="573" y="705" on="1"/>
        <pt x="704" y="710" on="1"/>
        <pt x="708" y="651" on="1"/>
        <pt x="629" y="644" on="1"/>
        <pt x="622" y="592" on="0"/>
      </contour>
    </TTGlyph>
    <TTGlyph name="Uacute" xMin="17" yMin="-15" xMax="708" yMax="898">
      <contour>
        <pt x="622" y="533" on="1"/>
        <pt x="622" y="266" on="1"/>
        <pt x="622" y="135" on="0"/>
        <pt x="489" y="-15" on="0"/>
        <pt x="237" y="-15" on="0"/>
        <pt x="105" y="135" on="0"/>
        <pt x="105" y="266" on="1"/>
        <pt x="105" y="563" on="1"/>
        <pt x="105" y="576" on="0"/>
        <pt x="96" y="644" on="1"/>
        <pt x="17" y="656" on="1"/>
        <pt x="22" y="710" on="1"/>
        <pt x="118" y="705" on="0"/>
        <pt x="138" y="705" on="1"/>
        <pt x="282" y="710" on="1"/>
        <pt x="286" y="651" on="1"/>
        <pt x="207" y="644" on="1"/>
        <pt x="200" y="592" on="0"/>
        <pt x="200" y="533" on="1"/>
        <pt x="200" y="266" on="1"/>
        <pt x="200" y="167" on="0"/>
        <pt x="288" y="49" on="0"/>
        <pt x="459" y="49" on="0"/>
        <pt x="550" y="168" on="0"/>
        <pt x="550" y="266" on="1"/>
        <pt x="550" y="563" on="1"/>
        <pt x="550" y="574" on="0"/>
        <pt x="540" y="644" on="1"/>
        <pt x="462" y="656" on="1"/>
        <pt x="467" y="710" on="1"/>
        <pt x="553" y="705" on="0"/>
        <pt x="573" y="705" on="1"/>
        <pt x="704" y="710" on="1"/>
        <pt x="708" y="651" on="1"/>
        <pt x="629" y="644" on="1"/>
        <pt x="622" y="592" on="0"/>
      </contour>
      <contour>
        <pt x="484" y="898" on="1"/>
        <pt x="514" y="825" on="1"/>
        <pt x="382" y="793" on="0"/>
        <pt x="363" y="787" on="1"/>
        <pt x="275" y="750" on="1"/>
        <pt x="255" y="798" on="1"/>
      </contour>
    </TTGlyph>
    <TTGlyph name="Ubreve" xMin="17" yMin="-15" xMax="708" yMax="898">
      <contour>
        <pt x="622" y="533" on="1"/>
        <pt x="622" y="266" on="1"/>
        <pt x="622" y="135" on="0"/>
        <pt x="489" y="-15" on="0"/>
        <pt x="237" y="-15" on="0"/>
        <pt x="105" y="135" on="0"/>
        <pt x="105" y="266" on="1"/>
        <pt x="105" y="563" on="1"/>
        <pt x="105" y="576" on="0"/>
        <pt x="96" y="644" on="1"/>
        <pt x="17" y="656" on="1"/>
        <pt x="22" y="710" on="1"/>
        <pt x="118" y="705" on="0"/>
        <pt x="138" y="705" on="1"/>
        <pt x="282" y="710" on="1"/>
        <pt x="286" y="651" on="1"/>
        <pt x="207" y="644" on="1"/>
        <pt x="200" y="592" on="0"/>
        <pt x="200" y="533" on="1"/>
        <pt x="200" y="266" on="1"/>
        <pt x="200" y="167" on="0"/>
        <pt x="288" y="49" on="0"/>
        <pt x="459" y="49" on="0"/>
        <pt x="550" y="168" on="0"/>
        <pt x="550" y="266" on="1"/>
        <pt x="550" y="563" on="1"/>
        <pt x="550" y="574" on="0"/>
        <pt x="540" y="644" on="1"/>
        <pt x="462" y="656" on="1"/>
        <pt x="467" y="710" on="1"/>
        <pt x="553" y="705" on="0"/>
        <pt x="573" y="705" on="1"/>
        <pt x="704" y="710" on="1"/>
        <pt x="708" y="651" on="1"/>
        <pt x="629" y="644" on="1"/>
        <pt x="622" y="592" on="0"/>
      </contour>
      <contour>
        <pt x="448" y="898" on="1"/>
        <pt x="504" y="898" on="1"/>
        <pt x="504" y="830" on="0"/>
        <pt x="432" y="758" on="0"/>
        <pt x="298" y="758" on="0"/>
        <pt x="226" y="830" on="0"/>
        <pt x="226" y="898" on="1"/>
        <pt x="282" y="898" on="1"/>
        <pt x="282" y="860" on="0"/>
        <pt x="328" y="814" on="0"/>
        <pt x="402" y="814" on="0"/>
        <pt x="448" y="860" on="0"/>
      </contour>
    </TTGlyph>
    <TTGlyph name="Ucircumflex" xMin="17" yMin="-15" xMax="708" yMax="893">
      <contour>
        <pt x="622" y="533" on="1"/>
        <pt x="622" y="266" on="1"/>
        <pt x="622" y="135" on="0"/>
        <pt x="489" y="-15" on="0"/>
        <pt x="237" y="-15" on="0"/>
        <pt x="105" y="135" on="0"/>
        <pt x="105" y="266" on="1"/>
        <pt x="105" y="563" on="1"/>
        <pt x="105" y="576" on="0"/>
        <pt x="96" y="644" on="1"/>
        <pt x="17" y="656" on="1"/>
        <pt x="22" y="710" on="1"/>
        <pt x="118" y="705" on="0"/>
        <pt x="138" y="705" on="1"/>
        <pt x="282" y="710" on="1"/>
        <pt x="286" y="651" on="1"/>
        <pt x="207" y="644" on="1"/>
        <pt x="200" y="592" on="0"/>
        <pt x="200" y="533" on="1"/>
        <pt x="200" y="266" on="1"/>
        <pt x="200" y="167" on="0"/>
        <pt x="288" y="49" on="0"/>
        <pt x="459" y="49" on="0"/>
        <pt x="550" y="168" on="0"/>
        <pt x="550" y="266" on="1"/>
        <pt x="550" y="563" on="1"/>
        <pt x="550" y="574" on="0"/>
        <pt x="540" y="644" on="1"/>
        <pt x="462" y="656" on="1"/>
        <pt x="467" y="710" on="1"/>
        <pt x="553" y="705" on="0"/>
        <pt x="573" y="705" on="1"/>
        <pt x="704" y="710" on="1"/>
        <pt x="708" y="651" on="1"/>
        <pt x="629" y="644" on="1"/>
        <pt x="622" y="592" on="0"/>
      </contour>
      <contour>
        <pt x="365" y="893" on="1"/>
        <pt x="539" y="786" on="1"/>
        <pt x="516" y="747" on="1"/>
        <pt x="428" y="788" on="1"/>
        <pt x="365" y="813" on="1"/>
        <pt x="302" y="788" on="1"/>
        <pt x="214" y="747" on="1"/>
        <pt x="191" y="786" on="1"/>
      </contour>
    </TTGlyph>
    <TTGlyph name="Udieresis" xMin="17" yMin="-15" xMax="708" yMax="884">
      <contour>
        <pt x="622" y="533" on="1"/>
        <pt x="622" y="266" on="1"/>
        <pt x="622" y="135" on="0"/>
        <pt x="489" y="-15" on="0"/>
        <pt x="237" y="-15" on="0"/>
        <pt x="105" y="135" on="0"/>
        <pt x="105" y="266" on="1"/>
        <pt x="105" y="563" on="1"/>
        <pt x="105" y="576" on="0"/>
        <pt x="96" y="644" on="1"/>
        <pt x="17" y="656" on="1"/>
        <pt x="22" y="710" on="1"/>
        <pt x="118" y="705" on="0"/>
        <pt x="138" y="705" on="1"/>
        <pt x="282" y="710" on="1"/>
        <pt x="286" y="651" on="1"/>
        <pt x="207" y="644" on="1"/>
        <pt x="200" y="592" on="0"/>
        <pt x="200" y="533" on="1"/>
        <pt x="200" y="266" on="1"/>
        <pt x="200" y="167" on="0"/>
        <pt x="288" y="49" on="0"/>
        <pt x="459" y="49" on="0"/>
        <pt x="550" y="168" on="0"/>
        <pt x="550" y="266" on="1"/>
        <pt x="550" y="563" on="1"/>
        <pt x="550" y="574" on="0"/>
        <pt x="540" y="644" on="1"/>
        <pt x="462" y="656" on="1"/>
        <pt x="467" y="710" on="1"/>
        <pt x="553" y="705" on="0"/>
        <pt x="573" y="705" on="1"/>
        <pt x="704" y="710" on="1"/>
        <pt x="708" y="651" on="1"/>
        <pt x="629" y="644" on="1"/>
        <pt x="622" y="592" on="0"/>
      </contour>
      <contour>
        <pt x="483" y="884" on="1"/>
        <pt x="537" y="884" on="0"/>
        <pt x="537" y="765" on="0"/>
        <pt x="429" y="765" on="0"/>
        <pt x="429" y="824" on="1"/>
        <pt x="429" y="852" on="0"/>
        <pt x="457" y="884" on="0"/>
      </contour>
      <contour>
        <pt x="247" y="884" on="1"/>
        <pt x="301" y="884" on="0"/>
        <pt x="301" y="765" on="0"/>
        <pt x="193" y="765" on="0"/>
        <pt x="193" y="824" on="1"/>
        <pt x="193" y="852" on="0"/>
        <pt x="221" y="884" on="0"/>
      </contour>
    </TTGlyph>
    <TTGlyph name="Ugrave" xMin="17" yMin="-15" xMax="708" yMax="898">
      <contour>
        <pt x="622" y="533" on="1"/>
        <pt x="622" y="266" on="1"/>
        <pt x="622" y="135" on="0"/>
        <pt x="489" y="-15" on="0"/>
        <pt x="237" y="-15" on="0"/>
        <pt x="105" y="135" on="0"/>
        <pt x="105" y="266" on="1"/>
        <pt x="105" y="563" on="1"/>
        <pt x="105" y="576" on="0"/>
        <pt x="96" y="644" on="1"/>
        <pt x="17" y="656" on="1"/>
        <pt x="22" y="710" on="1"/>
        <pt x="118" y="705" on="0"/>
        <pt x="138" y="705" on="1"/>
        <pt x="282" y="710" on="1"/>
        <pt x="286" y="651" on="1"/>
        <pt x="207" y="644" on="1"/>
        <pt x="200" y="592" on="0"/>
        <pt x="200" y="533" on="1"/>
        <pt x="200" y="266" on="1"/>
        <pt x="200" y="167" on="0"/>
        <pt x="288" y="49" on="0"/>
        <pt x="459" y="49" on="0"/>
        <pt x="550" y="168" on="0"/>
        <pt x="550" y="266" on="1"/>
        <pt x="550" y="563" on="1"/>
        <pt x="550" y="574" on="0"/>
        <pt x="540" y="644" on="1"/>
        <pt x="462" y="656" on="1"/>
        <pt x="467" y="710" on="1"/>
        <pt x="553" y="705" on="0"/>
        <pt x="573" y="705" on="1"/>
        <pt x="704" y="710" on="1"/>
        <pt x="708" y="651" on="1"/>
        <pt x="629" y="644" on="1"/>
        <pt x="622" y="592" on="0"/>
      </contour>
      <contour>
        <pt x="215" y="825" on="1"/>
        <pt x="245" y="898" on="1"/>
        <pt x="474" y="798" on="1"/>
        <pt x="454" y="750" on="1"/>
        <pt x="366" y="787" on="1"/>
      </contour>
    </TTGlyph>
</ttFont>
